<?xml version="1.0" encoding="UTF-8" standalone="no"?><!DOCTYPE svg PUBLIC "-//W3C//DTD SVG 1.1//EN" "http://www.w3.org/Graphics/SVG/1.1/DTD/svg11.dtd"><svg width="100%" height="100%" viewBox="0 0 36 36" version="1.1" xmlns="http://www.w3.org/2000/svg" xmlns:xlink="http://www.w3.org/1999/xlink" xml:space="preserve" xmlns:serif="http://www.serif.com/" style="fill-rule:evenodd;clip-rule:evenodd;stroke-linejoin:round;stroke-miterlimit:2;"><path d="M18,32.625c-5.09,0 -10.5,-3.965 -10.5,-11.312c0,-4.877 3.365,-9.178 7.591,-12.272c-2.698,-1.302 -5.335,-2.041 -7.091,-2.041c-2.708,-0 -5.499,0.914 -5.527,0.923c-0.79,0.258 -1.635,-0.165 -1.896,-0.951c-0.261,-0.785 0.163,-1.633 0.949,-1.895c0.132,-0.044 3.267,-1.077 6.474,-1.077c2.695,-0 6.449,1.158 10.01,3.162c3.555,-2.004 7.3,-3.162 9.99,-3.162c3.207,-0 6.222,1.559 6.344,1.625c0.781,0.422 1.312,0.699 1.125,1.266c-0.182,0.551 -0.891,0.328 -1.75,0.234c-0.029,-0.003 -2.156,-0.391 -5.688,-0.391c-1.752,-0 -4.41,1.003 -7.1,2.304c4.215,3.083 7.568,7.36 7.568,12.212c0.001,7.389 -5.409,11.375 -10.499,11.375Zm0.013,-21.954c-4.03,2.585 -7.513,6.345 -7.513,10.642c0,6.056 4.6,8.312 7.5,8.312c2.899,0 7.5,-2.273 7.5,-8.375c0,-4.27 -3.468,-8.005 -7.487,-10.579Z" style="fill:#0080ff;fill-rule:nonzero;"/></svg>