<?xml version="1.0" encoding="utf-8"?>
<!-- Generator: Adobe Illustrator 12.0.1, SVG Export Plug-In . SVG Version: 6.00 Build 51448)  -->
<!DOCTYPE svg PUBLIC "-//W3C//DTD SVG 1.1//EN" "http://www.w3.org/Graphics/SVG/1.1/DTD/svg11.dtd" [
	<!ENTITY ns_svg "http://www.w3.org/2000/svg">
	<!ENTITY ns_xlink "http://www.w3.org/1999/xlink">
]>
<svg  version="1.1" id="Layer_1" xmlns="&ns_svg;" xmlns:xlink="&ns_xlink;" width="396" height="467.059"
	 viewBox="0 0 396 467.059" overflow="visible" enable-background="new 0 0 396 467.059" xml:space="preserve">
<g>
	<g>
		<defs>
			<rect id="XMLID_1_" width="396" height="467.059"/>
		</defs>
		<clipPath id="XMLID_3_">
			<use xlink:href="#XMLID_1_" />
		</clipPath>
		<rect clip-path="url(#XMLID_3_)" fill-rule="evenodd" clip-rule="evenodd" fill="#FFFFFF" width="396" height="467.059"/>
		<path clip-path="url(#XMLID_3_)" fill-rule="evenodd" clip-rule="evenodd" fill="#E9E4D1" d="M0,0h396v311.372H0V0z M0,0"/>
	</g>
	<rect y="311.372" fill-rule="evenodd" clip-rule="evenodd" fill="#D7A676" width="396" height="155.687"/>
	<g>
		<path fill="#414142" d="M78.35,28.951c-7.95,5.239-12.6,10.878-17.8,18.662c-4.75,7.085-12.9,14.521-21.7,14.521
			c-3.05,0-7.7-1.597-7.7-5.14c0-1.197,1-2.445,2.25-2.445c1.1,0,1.75,0.898,1.75,1.747c0,0.798-0.65,1.646-1.7,1.646
			c-0.8,0-1.3-0.649-1.4-1.198c-0.2,0.2-0.2,0.599-0.2,0.948c0,0.898,1.65,3.742,6.9,3.742c13.05,0,17.85-18.163,33.75-28.492
			l-0.1-0.1c-1.95,1.048-4.2,1.946-6.25,1.946c-2.3,0-3.6-0.898-3.6-2.445c0-1.198,1.1-2.196,1.1-2.645c0-0.549-2.3-1.946-6-1.946
			c-5.75,0-11.4,3.144-11.4,7.235c0,1.846,2,3.792,5.1,3.792c4.4,0,7.45-2.046,10-4.591l0.3,0.25c-2.5,2.645-5.6,5.04-10.15,5.04
			c-3.15,0-5.95-1.746-5.95-4.541c0-4.441,5.6-7.884,11.8-7.884c5.6,0,8.3,2.545,8.3,4.191c0,0.998-0.6,1.697-0.6,2.246
			c0,0.499,0.7,0.599,1.6,0.599c2.25,0,6.45-1.796,11.3-5.638L78.35,28.951z M73,56.744l-0.3,0.25c-3.1,2.595-7,5.14-9.85,5.14
			c-1.75,0-2.8-1.147-2.8-2.745c0-4.291,9.65-10.978,9.65-13.273c0-0.349-0.1-0.648-0.25-0.848c-0.7,0.25-1.95,0.449-2.6,0.449
			c-0.9,0-2.35-0.399-2.35-1.647c0-0.648,0.55-1.347,1.75-1.347c1.4,0,2.7,0.798,3.45,1.996c9.4-3.244,15.6-17.665,25.85-17.665
			c1.5,0,3.55,1.048,3.55,2.794c0,1.048-0.9,1.597-1.7,1.597c-0.95,0-1.7-0.599-1.7-1.597c0-0.898,0.7-1.497,1.6-1.497
			c-0.35-0.349-0.9-0.599-2.05-0.599c-8.25,0-13.05,14.72-25.3,17.365c0.4,0.649,0.45,1.497,0.45,2.096
			c0,4.591-9.05,10.729-9.05,13.173c0,0.599,0.55,1.048,1.6,1.048c2.5,0,6.75-2.395,9.45-4.74l0.35-0.299L73,56.744z M67.25,45.018
			c0.8,0,1.45-0.1,1.95-0.25c-0.65-0.848-1.85-1.347-2.95-1.347c-0.6,0-1.05,0.399-1.05,0.749
			C65.2,44.668,65.75,45.018,67.25,45.018z"/>
		<path fill="#414142" d="M88.649,51.954l-5.3,5.788c-2.15,2.345-2.65,2.894-2.65,3.343s0.2,0.649,0.7,0.649
			c1,0,3.95-2.295,7.15-5.04l0.35-0.299l0.25,0.349l-0.3,0.25c-4.85,4.042-6.35,5.14-7.6,5.14c-0.9,0-1.55-0.549-1.55-1.447
			c0-0.849,0.7-2.146,1.8-3.593h-0.1l-3.8,3.293c-1.05,0.898-2.6,1.747-3.75,1.747c-1.1,0-1.9-0.749-1.9-1.846
			c0-1.547,1.1-2.844,4.7-6.237l-0.1-0.1c-1.2,0.898-2.45,1.896-3.55,2.794l-0.3,0.25l-0.3-0.299l0.35-0.299
			c1.75-1.497,3.75-2.944,5.65-4.441h2.65l-6.65,6.786c-1.15,1.147-1.45,1.697-1.45,2.246c0,0.449,0.55,0.749,0.95,0.749
			c1.4,0,3.7-1.447,9.7-7.435l2.35-2.345H88.649z"/>
		<path fill="#414142" d="M99.099,56.744l-0.3,0.25c-4.05,3.343-6.95,5.14-9.35,5.14c-1.45,0-2.15-1.048-2.15-2.395
			c0-3.743,6.65-8.083,9.95-8.083c0.85,0,1.15,0.549,1.15,1.098c0,1.597-2.3,3.593-8.2,4.641c-0.75,0.549-1.9,1.996-1.9,3.193
			c0,0.599,0.5,1.148,1.2,1.148c1.95,0,5.45-1.996,9-5.04l0.35-0.299L99.099,56.744z M90.749,56.645l0.1,0.1
			c2.9-0.449,7.15-2.046,7.15-3.942c0-0.449-0.4-0.749-0.75-0.749C96.099,52.054,94.499,53.401,90.749,56.645z"/>
		<path fill="#414142" d="M102.799,56.694c1.55-1.547,3.45-3.393,3.45-4.042c0-0.349-0.05-0.599-0.45-0.599
			c-0.8,0-2.6,1.248-6.7,4.69l-0.3,0.25l-0.3-0.299l0.35-0.299c4.2-3.593,6.05-4.74,6.95-4.74s1.45,0.648,1.45,1.397
			c0,0.998-0.65,2.046-1.65,3.343h0.1c1.95-1.697,5.4-4.74,7.6-4.74c1.1,0,1.9,0.698,1.9,1.646c0,2.994-6.05,5.888-6.05,7.685
			c0,0.449,0.35,0.749,0.7,0.749c1.15,0,5-3.094,7.3-5.04l0.35-0.299l0.25,0.349l-0.3,0.25c-3.4,2.794-6.25,5.14-7.6,5.14
			c-0.85,0-1.4-0.648-1.4-1.447c0-3.942,5.75-6.337,5.75-7.984c0-0.35-0.4-0.649-0.8-0.649c-2.85,0-8.4,5.738-10.75,7.685
			c-0.65,0.549-1.3,1.147-2.15,2.096h-2.8L102.799,56.694z"/>
		<path fill="#414142" d="M117.148,56.694l0.35-0.299c2.85-2.445,5.65-4.94,8.5-7.435l0.2,0.549l-0.75,0.699
			c-0.55,0.499-0.85,0.749-0.85,1.248s0.55,1.747,0.55,3.643c0,1.198-0.25,2.295-0.7,3.193c0.95-0.149,1.95-0.998,2.65-1.597
			l0.35-0.299l0.25,0.349l-0.3,0.25c-1.35,1.098-2.4,1.896-3.3,1.996c-1.6,1.896-4.1,3.144-6.55,3.144c-1.3,0-2.7-0.299-2.7-1.896
			c0-0.649,0.55-1.297,1.2-1.297c0.6,0,1.05,0.449,1.05,1.197c0,0.549-0.5,0.998-1.05,0.998c-0.2,0-0.4-0.05-0.5-0.149l-0.1,0.1
			c0.3,0.449,0.9,0.649,1.5,0.649c1.95,0,4.6-2.495,5.5-4.142c1.1-2.046,1.4-4.242,1.45-6.088c-2.05,1.796-4.1,3.543-6.15,5.239
			l-0.3,0.25L117.148,56.694z"/>
		<path fill="#414142" d="M133.897,48.811h2.95l4.25-4.441h2.6l-4.15,4.441h3.5l-0.25,0.399h-3.7l-5.8,6.188
			c-4.35,4.641-4.85,5.14-4.85,5.738c0,0.499,0.45,0.599,0.95,0.599c1.5,0,4.8-2.595,7.65-5.04l0.35-0.299l0.25,0.349l-0.3,0.25
			c-5.05,4.191-6.6,5.14-8.05,5.14c-1.1,0-1.85-0.399-1.85-1.696c0-1.946,1.75-3.942,9.35-10.928l-0.1-0.1
			c-3,2.495-6.05,4.89-9,7.335l-0.3,0.25l-0.3-0.299l0.35-0.299c2.85-2.445,5.85-4.69,8.75-7.086v-0.1h-2.55L133.897,48.811z"/>
		<path fill="#414142" d="M141.047,53.9l-0.1-0.1c-0.9,0.848-1.85,1.747-3.3,2.944l-0.3,0.25l-0.3-0.299l0.35-0.299
			c2.25-1.946,4.8-4.292,8.45-8.083c4.05-4.142,13.3-14.67,18.6-14.67c1,0,1.4,0.698,1.4,1.497c0,3.493-8.95,10.379-18.2,14.021
			c-7.85,8.683-9.25,10.529-9.25,11.676c0,0.399,0.35,0.898,1.2,0.898c1,0,3.75-1.896,7.4-5.04l0.35-0.299l0.25,0.349l-0.3,0.25
			c-6.05,5.04-6.85,5.14-8.1,5.14c-1.2,0-1.8-0.848-1.8-1.996C137.396,58.441,139.047,56.195,141.047,53.9z M148.347,48.312
			c3.65-1.248,17.1-9.182,17.1-13.373c0-0.449-0.4-0.898-1.05-0.898c-3.25,0-9.95,7.186-16.15,14.171L148.347,48.312z"/>
		<path fill="#414142" d="M157.546,56.744l-0.3,0.25c-4.05,3.343-6.95,5.14-9.35,5.14c-1.45,0-2.15-1.048-2.15-2.395
			c0-3.743,6.65-8.083,9.95-8.083c0.85,0,1.15,0.549,1.15,1.098c0,1.597-2.3,3.593-8.2,4.641c-0.75,0.549-1.9,1.996-1.9,3.193
			c0,0.599,0.5,1.148,1.2,1.148c1.95,0,5.45-1.996,9-5.04l0.35-0.299L157.546,56.744z M149.196,56.645l0.1,0.1
			c2.9-0.449,7.15-2.046,7.15-3.942c0-0.449-0.4-0.749-0.75-0.749C154.546,52.054,152.946,53.401,149.196,56.645z"/>
		<path fill="#414142" d="M156.946,56.694l0.35-0.299c1.05-0.898,2.6-2.395,3.75-3.543c-0.4-0.449-0.6-0.848-0.6-1.397
			c0-0.849,0.55-1.297,1.15-1.297c0.65,0,1.05,0.449,1.05,1.098c0,0.749-0.75,1.048-1.45,1.098c0.35,0.299,0.95,0.499,1.45,0.499
			c0.8,0,1.5-0.25,2-0.499l1.35,1.447l-1.45,1.497c-4.05,4.191-5.2,5.339-5.2,5.838c0,0.399,0.25,0.599,0.95,0.599
			c1.25,0,4.45-2.146,7.8-5.04l0.35-0.299l0.25,0.349l-0.3,0.25c-4.65,3.892-6.7,5.14-8.25,5.14c-1.2,0-1.8-0.499-1.8-1.497
			c0-1.248,0.6-2.295,2.8-4.541l2.9-2.944l-0.1-0.1c-0.35,0.1-0.8,0.2-1.3,0.2c-0.4,0-0.7-0.05-1-0.15
			c-1.45,1.248-3,2.745-4.1,3.643l-0.3,0.25L156.946,56.694z"/>
	</g>
	<g>
		<path fill="#414142" d="M211.021,27.803c-1.5-0.149-3.05-0.299-4.85-0.299c-8.601,0-17.65,4.99-17.65,11.277
			c0,4.091,3.75,6.487,9.65,6.487c2.95,0,6.75-0.449,9.35-1.347c4.9-7.286,13.35-16.118,20.5-16.118c1.8,0,3.15,0.798,3.15,2.545
			c0,5.389-13.75,11.776-20.15,13.173c-6.25,9.331-13.35,18.612-26.65,18.612c-2.85,0-7.25-1.147-7.25-4.69
			c0-1.747,1.1-2.844,2.75-2.844c0.9,0,1.75,0.699,1.75,1.697c0,0.848-0.55,1.696-1.6,1.696c-0.95,0-1.5-0.699-1.5-1.996
			c-0.55,0.2-0.7,0.798-0.7,1.447c0,3.244,3.9,3.992,6.4,3.992c10.85,0,17.55-8.383,22.649-16.517l-0.1-0.1
			c-2.45,0.699-5.8,1.147-8.7,1.147c-6.9,0-10.55-2.794-10.55-7.285c0-7.584,8.45-11.577,18.3-11.577c2.3,0,3.851,0.15,5.2,0.3
			V27.803z M228.07,28.501c-6.25,0-13.55,8.882-16.6,14.321c5.3-1.447,19-7.485,19-12.524
			C230.471,29.15,229.57,28.501,228.07,28.501z"/>
		<path fill="#414142" d="M216.721,56.744l-0.301,0.25c-4.6,3.842-6.949,5.14-8.899,5.14c-1.45,0-2.601-0.798-2.601-2.395
			c0-3.842,6.5-8.083,9.75-8.083c1.051,0,1.801,0.399,1.801,1.447c0,1.248-1.25,2.295-2.051,2.295c-0.699,0-0.949-0.549-0.949-1.048
			c0-0.549,0.449-1.147,1.149-1.147c0.8,0,0.95,0.449,1.2,0.449c0.2,0,0.25-0.199,0.25-0.449c0-0.749-0.6-1.148-1.1-1.148
			c-1.9,0-8.75,6.487-8.75,8.683c0,0.549,0.55,0.998,1.55,0.998c1.55,0,4.45-1.697,8.35-5.04l0.351-0.299L216.721,56.744z"/>
		<path fill="#414142" d="M216.12,56.694l0.35-0.299c1.05-0.898,2.601-2.395,3.75-3.543c-0.399-0.449-0.6-0.848-0.6-1.397
			c0-0.849,0.55-1.297,1.149-1.297c0.65,0,1.051,0.449,1.051,1.098c0,0.749-0.75,1.048-1.45,1.098c0.35,0.299,0.95,0.499,1.45,0.499
			c0.8,0,1.5-0.25,2-0.499l1.35,1.447l-1.45,1.497c-4.05,4.191-5.2,5.339-5.2,5.838c0,0.399,0.25,0.599,0.95,0.599
			c1.25,0,4.45-2.146,7.8-5.04l0.351-0.299l0.25,0.349l-0.3,0.25c-4.65,3.892-6.7,5.14-8.25,5.14c-1.2,0-1.801-0.499-1.801-1.497
			c0-1.248,0.601-2.295,2.801-4.541l2.899-2.944l-0.1-0.1c-0.351,0.1-0.8,0.2-1.3,0.2c-0.4,0-0.7-0.05-1-0.15
			c-1.45,1.248-3,2.745-4.101,3.643l-0.3,0.25L216.12,56.694z"/>
		<path fill="#414142" d="M235.22,51.954l-4.051,4.591c-3,3.393-3.449,3.992-3.449,4.69c0,0.299,0.35,0.499,0.649,0.499
			c1,0,3.05-1.148,7.601-5.04l0.35-0.299l0.25,0.349l-0.3,0.25c-4.45,3.693-6.45,5.14-7.9,5.14c-0.95,0-1.649-0.449-1.649-1.397
			c0-1.796,1.449-3.543,5.149-7.385l-0.1-0.1c-1.3,1.248-2.7,2.495-3.9,3.493l-0.3,0.25l-0.3-0.299l0.35-0.299
			c1.5-1.297,3.25-2.844,5.05-4.441H235.22z M237.52,49.11l-1.351-1.647l1.7-1.746l1.4,1.746L237.52,49.11z"/>
		<path fill="#414142" d="M235.97,56.694l0.35-0.299c2.95-2.545,11.15-8.782,13.851-11.577h2.3l-10.101,11.028l0.101,0.1
			c2.1-1.646,5.45-4.291,7.6-4.291c1.15,0,2.101,0.599,2.101,1.846c0,3.044-6.15,5.838-6.15,7.634c0,0.399,0.4,0.599,1.05,0.599
			c0.9,0,3.4-1.497,7.55-5.04l0.351-0.299l0.25,0.349l-0.3,0.25c-5.2,4.341-6.65,5.14-8.051,5.14c-1.149,0-2.149-0.499-2.149-1.846
			c0-3.094,6.149-5.788,6.149-7.485c0-0.499-0.399-0.749-0.75-0.749c-4.149,0-14.6,11.028-20.949,17.465l-4,4.042h-2.9l23.85-24.251
			l-0.1-0.1c-3.05,2.395-6.1,4.74-9.45,7.535l-0.3,0.25L235.97,56.694z"/>
		<path fill="#414142" d="M261.419,48.811h2.95l4.25-4.441h2.6l-4.149,4.441h3.5l-0.25,0.399h-3.7l-5.8,6.188
			c-4.351,4.641-4.851,5.14-4.851,5.738c0,0.499,0.45,0.599,0.95,0.599c1.5,0,4.8-2.595,7.65-5.04l0.35-0.299l0.25,0.349l-0.3,0.25
			c-5.05,4.191-6.601,5.14-8.05,5.14c-1.101,0-1.851-0.399-1.851-1.696c0-1.946,1.75-3.942,9.351-10.928l-0.101-0.1
			c-3,2.495-6.05,4.89-9,7.335l-0.3,0.25l-0.3-0.299l0.35-0.299c2.851-2.445,5.851-4.69,8.75-7.086v-0.1h-2.55L261.419,48.811z"/>
	</g>
	<g>
		<path d="M51.755,343.296c-1.098,1.096-9.394,9.375-9.394,11.263c0,0.426,0.244,0.608,0.61,0.608c0.976,0,4.514-2.922,8.235-6.088
			l0.427-0.365l0.305,0.427l-0.366,0.304c-7.198,5.966-7.625,6.271-8.723,6.271c-1.342,0-1.708-0.67-1.708-1.644
			c0-1.096,0.488-2.191,0.976-2.983h-0.122c-3.233,2.923-5.673,4.627-7.991,4.627c-1.83,0-2.44-1.096-2.44-2.861
			c0-5.113,8.54-9.923,12.81-9.923c2.013,0,2.318,0.974,2.318,2.618h0.122l1.83-2.253H51.755z M32.785,354.071
			c0,0.73,0.427,1.156,1.464,1.156c1.708,0,4.88-2.069,8.052-5.053c2.745-2.617,3.904-4.018,3.904-5.418
			c0-0.913-0.671-1.339-1.586-1.339C41.081,343.418,32.785,351.758,32.785,354.071z"/>
		<path d="M57.55,349.079l0.427-0.365c2.623-2.191,7.747-6.331,9.089-7.122c1.281-0.73,8.296-8.097,9.638-9.558
			c1.83-1.948,10.98-11.08,15.555-11.08c0.854,0,1.891,0.67,1.891,1.644c0,5.783-12.444,13.637-22.814,17.959
			c-1.769,1.887-10.431,11.384-10.431,13.089c0,0.852,0.366,1.582,1.281,1.582c1.952,0,5.49-2.191,9.15-5.174
			c0.183-2.861,3.172-6.88,4.88-6.88c0.305,0,0.671,0.183,0.671,0.853c0,1.461-1.891,3.47-5.063,6.21
			c0.122,0.548,0.671,1.278,1.281,1.278c0.976,0,1.891-0.487,4.148-2.436l0.427-0.365l0.305,0.427l-0.366,0.304
			c-2.257,1.888-3.355,2.557-4.575,2.557c-0.732,0-1.464-0.852-1.647-1.399c-3.965,3.287-7.32,5.113-9.211,5.113
			c-1.952,0-2.501-1.4-2.501-2.679c0-2.496,1.037-4.14,5.551-9.314l-0.122-0.121c-2.135,1.644-4.026,3.227-6.832,5.54l-0.366,0.304
			L57.55,349.079z M92.259,321.441c-3.843,0-9.15,5.783-20.069,18.141v-0.121l0.122,0.121c5.124-2.617,10.553-5.113,15.067-8.827
			c1.952-1.521,6.283-5.479,6.283-7.975C93.662,321.928,92.869,321.441,92.259,321.441z"/>
		<path d="M96.468,349.141l-0.366,0.304c-5.612,4.688-8.479,6.271-10.858,6.271c-1.769,0-3.172-0.974-3.172-2.922
			c0-4.688,7.93-9.862,11.895-9.862c1.281,0,2.196,0.487,2.196,1.766c0,1.521-1.525,2.8-2.501,2.8c-0.854,0-1.159-0.669-1.159-1.278
			c0-0.669,0.549-1.399,1.403-1.399c0.976,0,1.159,0.548,1.464,0.548c0.244,0,0.305-0.244,0.305-0.548c0-0.914-0.732-1.4-1.342-1.4
			c-2.318,0-10.675,7.914-10.675,10.593c0,0.669,0.671,1.217,1.891,1.217c1.891,0,5.429-2.069,10.187-6.148l0.427-0.365
			L96.468,349.141z"/>
		<path d="M138.497,325.52l-25.559,26.726c-1.098,1.156-1.647,1.887-1.647,2.374s0.427,0.608,1.159,0.608
			c1.708,0,5.734-3.044,9.333-6.148l0.427-0.365l0.305,0.427l-0.366,0.304c-7.442,6.21-8.357,6.271-10.004,6.271
			c-1.281,0-1.708-0.608-1.708-1.4c0-0.913,0.244-2.009,0.488-2.861l-0.122-0.121c-3.721,3.104-6.039,4.383-7.808,4.383
			c-1.83,0-2.44-1.096-2.44-2.861c0-5.113,8.357-9.923,12.871-9.923c1.403,0,2.257,0.67,2.257,1.888
			c0,0.426-0.061,0.974-0.122,1.156l0.122,0.122l19.642-20.577H138.497z M101.775,354.071c0,0.73,0.427,1.156,1.464,1.156
			c1.708,0,4.758-1.948,8.052-4.931c2.989-2.739,3.904-4.383,3.904-5.418c0-0.853-0.61-1.461-1.586-1.461
			C110.071,343.418,101.775,351.758,101.775,354.071z"/>
		<path d="M140.998,349.141l-0.366,0.304c-4.941,4.079-8.479,6.271-11.407,6.271c-1.769,0-2.623-1.278-2.623-2.922
			c0-4.566,8.113-9.862,12.139-9.862c1.037,0,1.403,0.67,1.403,1.339c0,1.948-2.806,4.384-10.004,5.662
			c-0.915,0.67-2.318,2.435-2.318,3.896c0,0.73,0.61,1.399,1.464,1.399c2.379,0,6.649-2.435,10.98-6.148l0.427-0.365
			L140.998,349.141z M130.811,349.019l0.122,0.122c3.538-0.549,8.723-2.496,8.723-4.81c0-0.548-0.488-0.913-0.915-0.913
			C137.337,343.418,135.386,345.062,130.811,349.019z"/>
		<path d="M152.892,350.054c0.305,0.426,1.403,0.791,2.135,0.791c0.854,0,2.501-0.67,3.721-1.766l0.427-0.365l0.305,0.427
			l-0.366,0.304c-1.342,1.157-2.745,1.888-4.209,1.888c-0.854,0-1.708-0.244-2.501-0.792l-17.324,19.115h-3.721l8.113-8.4
			c5.246-5.418,6.893-7.914,10.675-14.185l-0.122-0.122c-0.915,0.73-1.769,1.461-2.684,2.192l-0.366,0.304l-0.366-0.365l0.427-0.365
			c1.159-0.974,2.257-1.887,3.416-2.861c0.793-1.826,2.135-4.443,3.294-4.443c0.366,0,0.671,0.121,0.671,0.548
			c0,0.426-0.244,0.974-0.61,1.399l0.122,0.122l5.063-3.227c16.47-16.497,21.35-19.298,24.034-19.298
			c0.854,0,1.403,0.487,1.403,1.522c0,4.991-9.333,11.322-22.204,17.289L152.892,350.054z M150.818,349.141
			c-0.183-0.427-0.366-0.975-0.366-1.462h-0.122c-1.098,1.948-2.318,4.019-3.721,5.784l0.122,0.121L150.818,349.141z
			 M157.894,341.713l-0.122-0.121c-2.196,1.461-4.514,2.922-6.649,4.505c-0.061,0.304-0.122,0.669-0.122,1.096
			c0,0.486,0.122,0.974,0.366,1.399L157.894,341.713z M162.957,338.608l0.122,0.122c14.64-6.696,20.862-12.663,20.862-16.376
			c0-0.487-0.427-0.913-1.037-0.913c-3.66,0-11.834,8.462-19.947,17.289V338.608z"/>
		<path d="M184.306,343.235l-13.786,14.062l0.122,0.121c4.331-1.521,10.248-4.991,14.152-8.34l0.427-0.365l0.305,0.427l-0.366,0.304
			c-6.527,5.418-11.529,7.549-15.677,9.01c-3.904,3.896-11.956,11.932-16.287,11.932c-0.915,0-1.769-0.548-1.769-1.644
			c0-4.018,11.773-8.766,15.555-10.044l5.551-5.905l-0.122-0.122c-1.403,1.096-4.209,3.044-6.1,3.044
			c-1.83,0-2.745-0.913-2.745-2.739c0-6.21,8.662-10.045,13.786-10.045c1.037,0,2.013,0.548,2.013,1.339
			c0,0.427,0,0.731-0.061,0.975h0.122l1.952-2.009H184.306z M166.25,359.55c-3.111,1.218-14.335,5.662-14.335,9.375
			c0,0.548,0.61,0.975,1.281,0.975c3.355,0,7.747-5.114,13.176-10.228L166.25,359.55z M178.877,344.574
			c0-0.73-0.793-1.156-1.708-1.156c-3.172,0-12.383,8.097-12.383,10.349c0,0.975,0.976,1.461,1.525,1.461
			C169.057,355.228,178.877,347.375,178.877,344.574z"/>
		<path d="M201.203,342.018l-0.122-0.122c-2.867,1.888-6.1,4.688-9.211,7.245l-0.366,0.304l-0.366-0.365l0.427-0.365
			c3.172-2.679,8.052-6.879,10.492-7.975c14.457-15.585,19.764-19.785,24.339-19.785c1.037,0,1.952,0.548,1.952,1.826
			c0,3.957-8.846,11.141-22.082,16.681l-9.577,11.019h0.122c5.673-4.87,8.905-7.549,11.834-7.549c1.402,0,2.439,0.974,2.439,2.679
			c0,3.044-6.893,6.818-6.893,9.01c0,0.305,0.305,0.608,0.854,0.608c1.037,0,3.844-1.887,8.846-6.148l0.427-0.365l0.305,0.427
			l-0.366,0.304c-6.1,5.053-7.99,6.271-9.576,6.271c-1.343,0-2.074-0.548-2.074-1.887c0-3.714,6.893-7.123,6.893-9.314
			c0-0.792-0.427-1.096-0.915-1.096c-4.025,0-13.176,9.07-15.921,11.932h-3.599L201.203,342.018z M206.998,338.243l0.122,0.122
			c12.383-5.235,20.74-12.115,20.74-15.646c0-0.73-0.671-1.278-1.525-1.278C222.675,321.441,218.771,325.459,206.998,338.243z"/>
		<path d="M229.934,343.296l-4.941,5.601c-3.66,4.14-4.209,4.87-4.209,5.723c0,0.365,0.428,0.608,0.793,0.608
			c1.221,0,3.722-1.399,9.272-6.148l0.427-0.365l0.305,0.427l-0.365,0.304c-5.43,4.505-7.869,6.271-9.639,6.271
			c-1.158,0-2.013-0.548-2.013-1.704c0-2.192,1.769-4.322,6.283-9.01l-0.122-0.122c-1.586,1.521-3.294,3.044-4.758,4.262
			l-0.366,0.304l-0.366-0.365l0.427-0.365c1.83-1.583,3.966-3.47,6.161-5.418H229.934z M232.739,339.826l-1.646-2.009l2.073-2.131
			l1.708,2.131L232.739,339.826z"/>
		<path d="M248.537,349.141l-0.365,0.304c-4.271,3.531-8.784,5.783-12.871,6.818c-9.211,9.375-13.786,13.393-18.239,13.393
			c-0.854,0-1.952-0.304-1.952-1.399c0-2.983,5.429-6.818,16.409-10.837l11.468-12.175h-0.122c-1.28,0.974-2.867,2.191-4.94,3.896
			l-0.366,0.304l-0.366-0.365l0.427-0.365c2.258-1.948,4.697-3.774,6.894-5.418h3.416l-11.773,11.993h0.122
			c3.416-0.73,8.967-4.019,11.529-6.21l0.427-0.365L248.537,349.141z M217.062,369.169c2.501,0,5.307-2.313,13.603-10.715
			l-0.121-0.061c-10.492,4.079-14.945,7.731-14.945,9.862C215.598,368.864,216.208,369.169,217.062,369.169z M250.551,339.826
			l-1.647-2.009l2.074-2.131l1.708,2.131L250.551,339.826z"/>
		<path d="M264.946,341.835l-0.122-0.122c-2.013,0.975-6.71,4.749-9.942,7.428l-0.366,0.304l-0.366-0.365l0.427-0.365
			c2.074-1.766,9.089-7.67,11.712-8.462c3.111-3.53,17.935-19.298,22.997-19.298c1.281,0,2.074,0.791,2.074,2.009
			c0,1.766-1.037,3.531-4.575,6.575c-2.867,2.496-11.163,7.731-17.202,10.166l-13.725,15.646h-3.172L264.946,341.835z
			 M275.987,344.879c0,0.548-0.609,1.096-1.159,1.096c-0.671,0-1.158-0.548-1.158-1.035c0-0.73,0.427-0.974,0.427-1.218
			c0-0.121-0.122-0.243-0.306-0.243c-1.524,0-1.829,3.835-7.686,4.87v0.122c0.793,0.365,1.22,1.035,1.22,1.948
			c0,1.765-2.745,3.53-2.745,4.14c0,0.486,0.61,0.669,1.159,0.669c1.464,0,4.515-1.826,9.577-6.148l0.427-0.365l0.306,0.427
			l-0.366,0.304c-5.673,4.749-8.235,6.271-10.126,6.271c-0.915,0-2.196-0.487-2.196-1.887c0-2.192,2.379-3.896,2.379-4.627
			c0-0.365-0.305-0.426-0.671-0.426c-0.244,0-1.281,0.121-2.623,0.365v-0.67c1.892-0.183,3.904-0.487,4.88-1.583
			c2.562-2.861,4.393-3.896,5.979-3.896C274.523,342.991,275.987,343.418,275.987,344.879z M270.497,338.426l0.122,0.122
			c11.041-5.357,20.252-11.628,20.252-15.646c0-0.608-0.427-1.461-1.524-1.461C285.198,321.441,273.791,335.26,270.497,338.426z"/>
		<path d="M286.54,345.67l-0.122-0.121c-1.098,1.034-2.257,2.13-4.025,3.592l-0.366,0.304l-0.366-0.365l0.427-0.365
			c2.745-2.374,5.856-5.235,10.31-9.862c4.94-5.053,16.226-17.897,22.691-17.897c1.221,0,1.708,0.853,1.708,1.826
			c0,4.262-10.919,12.663-22.204,17.106c-9.576,10.593-11.284,12.845-11.284,14.245c0,0.487,0.427,1.096,1.464,1.096
			c1.22,0,4.575-2.313,9.027-6.148l0.428-0.365l0.305,0.427l-0.366,0.304c-7.381,6.148-8.356,6.271-9.882,6.271
			c-1.464,0-2.196-1.035-2.196-2.436C282.087,351.21,284.101,348.471,286.54,345.67z M295.446,338.852
			c4.453-1.521,20.862-11.201,20.862-16.314c0-0.548-0.488-1.096-1.281-1.096c-3.965,0-12.139,8.766-19.703,17.289L295.446,338.852z
			"/>
		<path d="M334.18,349.141l-0.366,0.304c-3.232,2.679-7.137,6.271-9.089,6.271c-1.464,0-2.196-0.791-2.196-2.069
			c0-4.262,6.832-7.062,6.832-9.192c0-0.549-0.365-1.035-0.854-1.035c-2.013,0-8.357,4.931-15.616,11.932h-3.354l6.222-6.088
			c2.135-2.069,3.599-3.835,3.599-4.809c0-0.67-0.305-1.035-0.915-1.035c-1.952,0-8.784,5.357-15.921,11.932h-3.354l7.076-6.758
			c2.257-2.191,2.806-3.835,2.806-4.383c0-0.426-0.184-0.791-0.488-0.791c-0.731,0-2.379,1.339-7.686,5.723l-0.366,0.304
			l-0.366-0.365l0.427-0.365c3.478-2.922,6.71-5.783,8.113-5.783c0.976,0,1.586,0.67,1.586,2.009c0,1.34-1.281,3.349-2.074,4.262
			l0.122,0.122c2.257-1.705,7.747-6.393,10.248-6.393c1.403,0,2.013,0.853,2.013,2.009c0,1.157-1.402,3.044-1.891,3.957l0.122,0.122
			c4.271-3.47,7.381-6.088,9.882-6.088c1.342,0,1.892,1.035,1.892,2.253c0,3.592-6.832,7.062-6.832,9.253
			c0,0.487,0.487,0.791,0.915,0.791c1.464,0,5.489-3.287,8.783-6.148l0.428-0.365L334.18,349.141z"/>
	</g>
	<g>
		<path d="M38.335,390.995c1.891-1.887,4.209-4.14,4.209-4.931c0-0.427-0.061-0.73-0.549-0.73c-0.976,0-3.172,1.521-8.174,5.723
			l-0.366,0.304l-0.366-0.365l0.427-0.365c5.124-4.383,7.381-5.783,8.479-5.783c1.098,0,1.769,0.791,1.769,1.705
			c0,1.217-0.793,2.495-2.013,4.078h0.122c2.379-2.069,6.588-5.783,9.272-5.783c1.342,0,2.318,0.853,2.318,2.009
			c0,3.652-7.381,7.184-7.381,9.375c0,0.548,0.427,0.913,0.854,0.913c1.403,0,6.1-3.774,8.906-6.148l0.427-0.365l0.305,0.427
			l-0.366,0.304c-4.148,3.409-7.625,6.271-9.272,6.271c-1.037,0-1.708-0.791-1.708-1.766c0-4.809,7.015-7.731,7.015-9.74
			c0-0.426-0.488-0.791-0.976-0.791c-3.477,0-10.248,7.001-13.115,9.375c-0.793,0.67-1.586,1.4-2.623,2.557h-3.416L38.335,390.995z"
			/>
		<path d="M74.996,386.917c0,1.156-0.61,2.982-2.013,4.565c0.366,0.426,0.549,0.608,0.976,0.608c0.366,0,0.854-0.243,1.83-1.096
			l0.427-0.365l0.305,0.427l-0.366,0.304c-1.281,1.096-1.586,1.218-2.257,1.218c-0.549,0-0.976-0.183-1.464-0.487
			c-2.318,2.436-6.527,5.54-9.089,5.54c-1.83,0-2.684-0.974-2.684-2.739c0-5.357,8.174-10.045,12.383-10.045
			C74.264,384.847,74.996,385.517,74.996,386.917z M61.881,395.865c0,0.975,0.549,1.278,1.525,1.278
			c2.684,0,11.102-5.783,11.102-10.166c0-0.487-0.122-1.278-1.159-1.278C69.994,385.699,61.881,393.856,61.881,395.865z"/>
		<path d="M82.132,390.995l0.427-0.365c3.599-3.104,13.603-10.714,16.897-14.123h2.806L89.94,389.96l0.122,0.122
			c2.562-2.009,6.649-5.235,9.272-5.235c1.403,0,2.562,0.73,2.562,2.253c0,3.713-7.503,7.122-7.503,9.313
			c0,0.487,0.488,0.73,1.281,0.73c1.098,0,4.148-1.826,9.211-6.148l0.427-0.365l0.305,0.427l-0.366,0.304
			c-6.344,5.297-8.113,6.271-9.821,6.271c-1.403,0-2.623-0.608-2.623-2.252c0-3.774,7.503-7.062,7.503-9.132
			c0-0.609-0.488-0.913-0.915-0.913c-5.063,0-17.812,13.453-25.559,21.307l-4.88,4.931h-3.538l29.097-29.586l-0.122-0.122
			c-3.721,2.923-7.442,5.784-11.529,9.193l-0.366,0.304L82.132,390.995z"/>
		<path d="M127.759,385.212h2.806l-15.738,16.315h0.122c6.649-3.714,14.518-9.254,15.982-10.532l0.427-0.365l0.305,0.427
			l-0.366,0.304c-4.148,3.47-13.603,9.68-18.422,12.236l-7.93,7.975h-3.294l16.043-16.071l-0.122-0.061
			c-2.196,1.4-3.843,2.191-5.063,2.191c-1.891,0-2.806-0.73-2.806-2.739c0-5.297,8.967-10.045,13.908-10.045
			c1.403,0,2.135,0.853,2.135,2.374L127.759,385.212z M111.289,395.987c0,1.035,0.671,1.156,1.281,1.156
			c2.867,0,12.688-8.035,12.688-10.288c0-0.73-0.61-1.156-1.525-1.156C121.171,385.699,111.289,392.761,111.289,395.987z"/>
		<path d="M137.275,390.995l0.427-0.365c1.281-1.096,3.172-2.922,4.575-4.322c-0.488-0.548-0.732-1.035-0.732-1.704
			c0-1.035,0.671-1.583,1.403-1.583c0.793,0,1.281,0.548,1.281,1.339c0,0.913-0.915,1.278-1.769,1.34
			c0.427,0.365,1.159,0.608,1.769,0.608c0.976,0,1.83-0.305,2.44-0.608l1.647,1.766l-1.769,1.826
			c-4.941,5.113-6.344,6.514-6.344,7.122c0,0.487,0.305,0.73,1.159,0.73c1.525,0,5.429-2.617,9.516-6.148l0.427-0.365l0.305,0.427
			l-0.366,0.304c-5.673,4.749-8.174,6.271-10.065,6.271c-1.464,0-2.196-0.608-2.196-1.826c0-1.522,0.732-2.801,3.416-5.54
			l3.538-3.592l-0.122-0.121c-0.427,0.121-0.976,0.243-1.586,0.243c-0.488,0-0.854-0.061-1.22-0.183
			c-1.769,1.521-3.66,3.348-5.002,4.444l-0.366,0.304L137.275,390.995z"/>
		<path d="M157.222,390.995l0.427-0.365c3.477-2.982,6.893-6.026,10.37-9.07l0.244,0.67l-0.915,0.852
			c-0.671,0.609-1.037,0.913-1.037,1.522c0,0.608,0.671,2.131,0.671,4.443c0,1.461-0.305,2.801-0.854,3.896
			c1.159-0.183,2.379-1.218,3.233-1.948l0.427-0.365l0.305,0.427l-0.366,0.304c-1.647,1.34-2.928,2.313-4.026,2.436
			c-1.952,2.313-5.002,3.835-7.991,3.835c-1.586,0-3.294-0.365-3.294-2.313c0-0.791,0.671-1.583,1.464-1.583
			c0.732,0,1.281,0.548,1.281,1.461c0,0.67-0.61,1.218-1.281,1.218c-0.244,0-0.488-0.061-0.61-0.183l-0.122,0.122
			c0.366,0.548,1.098,0.791,1.83,0.791c2.379,0,5.612-3.044,6.71-5.053c1.342-2.496,1.708-5.174,1.769-7.427
			c-2.501,2.191-5.002,4.322-7.503,6.393l-0.366,0.304L157.222,390.995z"/>
		<path d="M184,381.377h3.599l5.185-5.418h3.172l-5.063,5.418h4.27l-0.305,0.486h-4.514l-7.076,7.549
			c-5.307,5.662-5.917,6.271-5.917,7.001c0,0.609,0.549,0.73,1.159,0.73c1.83,0,5.856-3.165,9.333-6.148l0.427-0.365l0.305,0.427
			l-0.366,0.304c-6.161,5.114-8.052,6.271-9.821,6.271c-1.342,0-2.257-0.487-2.257-2.069c0-2.375,2.135-4.81,11.407-13.332
			l-0.122-0.122c-3.66,3.044-7.381,5.966-10.98,8.949l-0.366,0.304l-0.366-0.365l0.427-0.365c3.477-2.982,7.137-5.723,10.675-8.645
			v-0.122h-3.111L184,381.377z"/>
		<path d="M214.012,385.212l-6.466,7.062c-2.623,2.861-3.233,3.531-3.233,4.079s0.244,0.791,0.854,0.791
			c1.22,0,4.818-2.8,8.723-6.148l0.427-0.365l0.305,0.427l-0.365,0.304c-5.917,4.932-7.747,6.271-9.272,6.271
			c-1.098,0-1.891-0.67-1.891-1.766c0-1.035,0.854-2.617,2.196-4.383h-0.122l-4.637,4.018c-1.28,1.096-3.172,2.131-4.575,2.131
			c-1.342,0-2.318-0.913-2.318-2.252c0-1.888,1.342-3.471,5.734-7.61l-0.122-0.121c-1.464,1.096-2.989,2.312-4.332,3.409
			l-0.366,0.304l-0.366-0.365l0.427-0.365c2.135-1.826,4.575-3.592,6.893-5.418h3.232l-8.113,8.279
			c-1.403,1.4-1.769,2.07-1.769,2.739c0,0.548,0.671,0.913,1.159,0.913c1.708,0,4.514-1.765,11.834-9.07l2.867-2.861H214.012z"/>
		<path d="M220.233,390.995l0.427-0.365c6.101-5.175,6.954-5.783,8.235-5.783c0.854,0,1.586,0.791,1.586,1.888
			c0,3.773-6.649,7.975-6.649,9.679c0,0.548,0.428,0.73,1.099,0.73c2.317,0,5.795-2.009,10.309-5.783
			c-0.061-1.278,2.501-6.514,4.453-6.514c0.305,0,0.549,0.183,0.549,0.67c0,1.521-3.05,4.931-4.514,6.088
			c0.183,0.791,0.61,1.278,1.159,1.278c0.671,0,2.074-1.096,3.05-1.888l0.427-0.365l0.305,0.427l-0.365,0.304
			c-1.525,1.278-2.623,2.009-3.478,2.009c-0.854,0-1.342-0.548-1.586-1.278c-4.147,3.288-7.563,5.54-10.309,5.54
			c-1.342,0-2.318-0.548-2.318-2.191c0-3.166,6.649-7.184,6.649-8.888c0-0.427-0.306-0.853-0.732-0.853
			c-0.793,0-1.464,0.304-7.563,5.357l-0.366,0.304L220.233,390.995z"/>
		<path d="M246.28,390.995l0.427-0.365c5.674-4.81,7.076-5.783,8.175-5.783c1.036,0,1.769,0.913,1.769,2.253
			c0,3.713-6.893,7.244-6.893,9.131c0,0.67,0.731,0.913,1.28,0.913c2.257,0,7.747-4.443,12.811-9.801l2.195-2.313h3.355
			l-7.869,8.888c-1.037,1.157-1.464,1.766-1.464,2.253c0,0.67,0.854,0.974,1.525,0.974c2.317,0,5.795-2.009,10.309-5.783
			c-0.062-1.278,2.501-6.514,4.453-6.514c0.305,0,0.549,0.183,0.549,0.67c0,1.521-3.05,4.931-4.514,6.088
			c0.183,0.791,0.609,1.278,1.158,1.278c0.672,0,2.074-1.096,3.051-1.888l0.427-0.365l0.305,0.427l-0.366,0.304
			c-1.524,1.278-2.623,2.009-3.477,2.009s-1.342-0.548-1.586-1.278c-4.148,3.288-7.564,5.54-10.309,5.54
			c-1.281,0-2.745-0.548-2.745-2.252c0-1.462,2.135-4.14,4.025-6.21h-0.122c-5.855,5.844-9.455,8.462-11.712,8.462
			c-1.28,0-2.501-0.608-2.501-2.191c0-3.409,6.527-7.062,6.527-8.949c0-0.487-0.244-0.791-0.732-0.791
			c-0.731,0-1.83,0.791-7.319,5.357l-0.366,0.304L246.28,390.995z"/>
		<path d="M282.94,390.995l0.427-0.365c4.515-3.835,7.26-5.783,8.724-5.783c1.342,0,2.135,0.853,2.135,1.826
			c0,0.853-0.122,1.278-0.305,2.009h0.122c1.708-1.644,4.087-3.835,5.673-3.835c1.158,0,1.769,0.67,1.769,1.948
			c0,0.853-0.793,1.948-1.891,1.948c-0.793,0-1.159-0.548-1.159-1.157c0-0.974,0.731-1.521,1.281-1.521
			c0.244,0,0.549,0.121,0.671,0.121c0.061,0,0.244-0.121,0.244-0.243c0-0.061-0.184-0.608-0.854-0.608
			c-1.342,0-4.819,3.47-7.808,7.427c-1.342,1.826-1.586,2.496-1.586,3.409c0,0.608,0.549,0.974,1.098,0.974
			c1.464,0,3.294-0.791,9.577-6.148l0.427-0.365l0.305,0.427l-0.365,0.304c-6.71,5.601-8.053,6.271-10.004,6.271
			c-1.343,0-2.258-0.548-2.258-1.948c0-0.73,0.244-1.583,0.428-2.069h-0.122c-2.867,2.922-4.575,4.018-6.527,4.018
			c-1.037,0-2.013-0.487-2.013-1.704c0-1.035,0.915-2.375,2.013-2.375c0.854,0,1.342,0.73,1.342,1.34
			c0,0.853-0.854,1.704-1.586,1.704c-0.366,0-0.609-0.061-0.793-0.061c-0.061,0-0.122,0-0.122,0.061
			c0,0.122,0.366,0.548,1.221,0.548c1.586,0,3.477-1.096,6.588-5.053c2.623-3.348,3.416-4.626,3.416-5.601
			c0-0.548-0.184-1.156-0.915-1.156c-0.977,0-2.929,1.156-8.418,5.723l-0.366,0.304L282.94,390.995z"/>
		<path d="M307.401,390.995l0.427-0.365c3.355-2.861,6.894-5.783,9.028-5.783c1.403,0,2.135,0.791,2.135,2.07
			c0,2.8-7.686,7.365-7.686,9.313c0,0.67,0.487,0.913,0.976,0.913c2.623,0,10.432-6.452,15.982-11.992h3.11l-12.932,13.758h0.122
			c4.636-1.704,10.492-5.723,13.054-7.914l0.428-0.365l0.305,0.427l-0.366,0.304c-6.771,5.601-12.993,8.097-14.396,8.523
			c-6.405,7.427-12.384,12.418-16.471,12.418c-1.037,0-2.013-0.608-2.013-2.069c0-4.14,9.943-8.462,15.433-10.045l8.113-8.705
			l-0.122-0.122c-5.185,4.14-8.601,6.271-10.309,6.271c-1.342,0-2.135-0.853-2.135-2.009c0-4.322,7.319-7.609,7.319-9.497
			c0-0.426-0.244-0.791-0.731-0.791c-1.221,0-3.782,1.766-8.54,5.723l-0.366,0.304L307.401,390.995z M313.867,400.979
			c-3.416,0.974-14.273,5.235-14.273,9.313c0,1.096,0.731,1.522,1.586,1.522c2.745,0,6.161-3.044,12.81-10.715L313.867,400.979z"/>
		<path d="M337.962,390.995l0.427-0.365c3.844-3.287,6.894-5.783,8.175-5.783c1.098,0,1.829,0.67,1.829,1.644
			c0,1.705-2.195,2.436-2.195,2.679s0.305,0.487,0.671,0.487c2.439,0,5.185-4.81,7.319-4.81c0.306,0,0.732,0.061,0.732,0.608
			c0,1.279-4.819,3.653-5.673,4.019l-3.599,3.47h0.121c0.854-0.487,2.38-1.218,3.478-1.218c0.976,0,1.83,0.427,1.83,1.644
			c0,2.192-2.685,2.375-2.685,3.166c0,0.365,0.488,0.608,0.977,0.608c0.731,0,4.331-2.739,8.296-6.148l0.427-0.365l0.305,0.427
			l-0.365,0.304c-6.894,5.723-7.625,6.271-8.784,6.271c-1.037,0-2.074-0.487-2.074-1.826c0-2.253,2.318-2.313,2.318-3.044
			c0-0.305-0.306-0.548-0.671-0.548c-0.793,0-3.111,1.096-4.271,2.009c-2.317,2.557-3.843,3.714-4.758,3.714
			c-0.427,0-0.61-0.244-0.61-0.67c0-0.791,2.44-2.374,5.002-3.531l3.844-3.896h-0.122c-0.306,0.121-0.793,0.304-1.281,0.304
			c-0.854,0-1.647-0.669-1.647-1.521c0-1.644,1.83-2.131,1.83-2.496c0-0.305-0.243-0.426-0.609-0.426
			c-0.793,0-3.233,1.766-7.503,5.357l-0.366,0.304L337.962,390.995z"/>
	</g>
	<g>
		<path fill="#FFFFFF" d="M140.675,417.509c2.196,0,3.538,1.521,3.538,3.348c0,5.357-15.067,18.689-20.862,18.689
			c-2.196,0-3.538-1.644-3.538-3.714C119.813,428.102,134.454,417.509,140.675,417.509z M140.98,417.995
			c-1.83,0-3.111,0.975-5.49,2.74c-6.039,4.505-14.457,13.21-14.457,16.314c0,1.096,0.915,2.009,2.318,2.009
			c1.342,0,4.026-1.096,6.466-2.739c8.54-5.723,13.908-12.784,13.908-15.523C143.726,419.03,142.2,417.995,140.98,417.995z"/>
		<path fill="#FFFFFF" d="M148.544,427.066l19.886-9.862l0.122,0.061l-20.862,21.916h-4.026l20.313-18.933l-0.122-0.122
			l-15.067,7.427L148.544,427.066z"/>
	</g>
	<g>
		<path fill="#FFFFFF" d="M162.449,438.938c4.331-2.313,23.485-14.367,23.485-19.177c0-1.096-0.854-1.766-1.952-1.766
			c-3.843,0-11.041,5.967-11.041,8.279c0,0.73,0.488,1.157,1.159,1.157c1.891,0,6.893-3.592,10.065-6.94l0.366,0.365
			c-3.233,3.592-8.052,7.062-10.492,7.062c-1.525,0-2.318-0.974-2.318-2.069c0-4.322,6.71-8.34,12.017-8.34
			c2.257,0,3.782,1.096,3.782,2.982c0,6.393-13.969,12.236-18.544,15.098l0.122,0.122c1.098-0.487,2.684-0.975,4.148-0.975
			c0.854,0,2.074,0.365,2.074,1.278c0,0.792-0.854,1.4-0.854,2.07c0,0.365,0.305,0.608,0.671,0.608c1.22,0,6.405-3.104,7.442-4.261
			l0.244,0.486c-2.684,2.436-6.71,4.627-9.028,4.627c-1.22,0-1.647-0.426-1.647-0.913c0-0.791,0.854-2.009,0.854-2.801
			c0-0.426-0.305-0.608-0.854-0.608c-1.769,0-7.686,3.104-9.394,4.322L162.449,438.938z"/>
		<path fill="#FFFFFF" d="M199.779,428.284c3.538-0.914,12.993-4.322,12.993-8.219c0-1.218-0.854-2.07-2.196-2.07
			c-2.195,0-8.418,3.288-8.418,5.479c0,0.73,0.55,1.156,1.159,1.156c0.671,0,2.44-0.304,6.71-4.443l0.366,0.304
			c-3.477,3.409-5.49,4.627-7.32,4.627c-1.28,0-2.135-0.73-2.135-2.009c0-2.739,4.453-5.601,8.906-5.601
			c3.172,0,4.88,1.948,4.88,3.348c0,2.739-3.416,4.627-9.577,6.148v0.122c2.685,0.305,3.538,1.461,3.538,2.922
			c0,5.783-10.309,9.497-15.86,9.497c-2.928,0-5.002-1.644-5.002-3.652c0-1.583,1.281-2.739,2.562-2.739
			c1.098,0,1.83,0.852,1.83,1.826c0,0.974-0.793,1.582-1.525,1.582c-0.854,0-1.281-0.791-1.708-0.791
			c-0.183,0-0.305,0.243-0.305,0.487c0,1.948,2.623,2.8,4.087,2.8c4.026,0,10.248-4.383,13.481-7.975
			c0.549-0.608,0.854-1.218,0.854-1.887c0-0.913-0.732-1.583-2.135-1.583c-1.159,0-3.416,0.548-4.941,1.035L199.779,428.284z"/>
		<path fill="#FFFFFF" d="M227.229,433.154c-1.586-0.549-3.11-0.975-4.758-0.975c-1.586,0-4.575,0.913-5.856,1.948l-0.305-0.487
			c5.551-4.078,13.542-10.896,18.3-15.767h4.026c-5.49,4.809-12.749,9.861-19.825,14.366l0.122,0.122
			c1.342-0.548,2.928-1.035,4.514-1.035s3.051,0.427,4.637,0.975l5.733-5.357h2.196l-5.49,5.783
			c0.488,0.122,1.099,0.244,1.586,0.244c1.586,0,3.05-0.731,4.515-1.34l0.243,0.548c-1.646,0.853-3.537,1.644-5.367,1.644
			c-0.61,0-1.221-0.061-1.77-0.183l-5.307,5.54h-3.66L227.229,433.154z"/>
		<path fill="#FFFFFF" d="M248.883,428.649c3.782-3.592,7.564-7.245,11.103-11.141c1.037,1.034,2.745,1.704,4.209,1.704
			c0.915,0,3.05-0.67,4.758-1.704l0.305,0.426c-2.013,1.826-4.392,2.861-5.917,2.861c-1.464,0-3.05-0.365-4.392-1.035l-7.076,6.818
			l0.122,0.122c2.379-1.583,4.453-2.253,6.222-2.253c2.318,0,3.966,1.766,3.966,3.653c0,4.931-8.479,11.444-15.678,11.444
			c-2.317,0-4.514-1.4-4.514-3.714c0-1.278,0.671-2.617,2.135-2.617c1.037,0,1.77,0.853,1.77,1.826c0,0.913-0.732,1.583-1.586,1.583
			c-0.488,0-0.977-0.183-1.465-0.73c-0.243,0.061-0.365,0.304-0.365,0.426c0,0.608,1.098,2.739,3.903,2.739
			c4.148,0,13.848-8.279,13.848-12.236c0-1.156-0.671-1.887-2.257-1.887c-2.44,0-6.161,2.374-8.724,4.2L248.883,428.649z"/>
		<path fill="#FFFFFF" d="M277.856,430.536c2.867-2.374,5.43-4.2,7.687-4.2c1.769,0,2.806,1.217,2.806,3.044
			c0,3.53-6.771,10.166-13.725,10.166c-2.136,0-3.478-1.521-3.478-3.774c0-7.122,15.312-18.263,21.899-18.263
			c1.342,0,2.317,0.913,2.317,2.313c0,1.217-0.731,2.374-1.83,2.374c-1.036,0-1.769-0.73-1.769-1.705
			c0-0.73,0.549-1.339,1.525-1.339c0.243,0,0.731,0.121,0.915,0.121c0.183,0,0.305-0.061,0.305-0.304
			c0-0.427-0.488-0.975-1.586-0.975c-6.283,0-20.191,15.22-20.191,19.542c0,0.853,0.671,1.521,1.586,1.521
			c3.478,0,12.444-7.731,12.444-11.079c0-0.67-0.488-1.157-1.159-1.157c-1.952,0-4.88,2.01-7.381,4.079L277.856,430.536z"/>
		<path fill="#FFFFFF" d="M302.134,423.353l5.856-5.479l0.61,0.365l-2.44,2.069l0.122,0.122c1.769-1.278,3.965-2.557,6.039-2.557
			c2.379,0,4.087,2.496,5.673,2.496c1.037,0,2.989-1.279,4.27-2.496l0.366,0.365c-4.636,4.078-18.238,15.341-22.143,20.941h-4.331
			c5.124-5.661,10.309-9.618,23.302-18.628l-0.122-0.122c-1.342,0.73-2.439,1.156-3.232,1.156c-0.977,0-1.952-0.548-2.867-1.096
			s-1.83-1.034-2.745-1.034c-2.501,0-6.039,2.8-7.93,4.322L302.134,423.353z"/>
		<path fill="#FFFFFF" d="M340.93,417.509c2.745,0,4.393,1.521,4.393,3.409c0,3.47-5.979,5.539-9.15,6.331
			c0.488,1.096,1.037,2.557,1.037,3.713c0,4.201-6.039,8.584-10.37,8.584c-3.721,0-5.551-1.948-5.551-4.444
			c0-4.383,6.344-6.514,11.772-7.792c-0.487-0.974-0.976-2.009-0.976-3.104C332.085,420.431,337.453,417.509,340.93,417.509z
			 M326.656,439.059c1.829,0,7.868-1.521,7.868-6.696c0-1.278-0.427-2.861-1.158-4.383c-7.625,1.826-11.225,3.957-11.225,7.487
			C322.142,437.537,323.85,439.059,326.656,439.059z M335.867,426.579c3.843-1.096,8.601-2.739,8.601-5.783
			c0-2.009-2.013-2.801-3.599-2.801c-2.623,0-6.101,1.766-6.101,4.87C334.769,423.962,335.379,425.544,335.867,426.579z"/>
		<path fill="#FFFFFF" d="M345.688,438.633c0.609,0.243,1.342,0.426,1.769,0.426c6.405,0,16.958-11.871,20.496-17.41
			c0.427-0.67,0.549-1.278,0.549-1.705c0-1.096-0.731-1.948-1.952-1.948c-3.843,0-12.077,7.549-12.077,10.532
			c0,0.791,0.609,1.339,1.342,1.339c1.891,0,6.466-3.348,9.699-6.879l0.365,0.365c-3.477,3.47-7.747,7.366-10.553,7.366
			c-1.769,0-2.806-1.218-2.806-3.044c0-3.53,6.771-10.166,13.725-10.166c2.135,0,3.478,1.521,3.478,3.774
			c0,7.853-15.494,18.263-21.351,18.263c-0.915,0-1.83-0.061-2.867-0.426L345.688,438.633z"/>
	</g>
	<g>
		<path fill="#FFFFFF" d="M371.137,141.632c-4.68,4.67-40.04,39.959-40.04,48.003c0,1.816,1.04,2.595,2.6,2.595
			c4.16,0,19.24-12.455,35.101-25.948l1.82-1.557l1.3,1.816l-1.561,1.297c-30.68,25.428-32.5,26.726-37.18,26.726
			c-5.72,0-7.28-2.854-7.28-7.006c0-4.67,2.08-9.341,4.16-12.714h-0.521c-13.779,12.455-24.18,19.72-34.06,19.72
			c-7.801,0-10.4-4.67-10.4-12.195c0-21.796,36.4-42.294,54.601-42.294c8.58,0,9.88,4.152,9.88,11.158h0.521l7.8-9.601H371.137z
			 M290.276,187.559c0,3.114,1.82,4.93,6.24,4.93c7.279,0,20.8-8.822,34.32-21.537c11.7-11.157,16.64-17.125,16.64-23.093
			c0-3.892-2.86-5.708-6.76-5.708C325.637,142.151,290.276,177.699,290.276,187.559z"/>
	</g>
	<g>
		<path d="M57.811,133.71l1.15-1.653c-2.806-0.459-5.566-1.423-7.774-3.351c-4.324,3.489-8.464,5.279-12.972,5.279
			c-3.22,0-7.82-1.377-7.82-5.555c0-1.286,1.104-2.617,2.53-2.617c0.92,0,1.748,0.78,1.748,1.882c0,1.01-0.736,1.79-1.61,1.79
			c-0.92,0-1.518-0.643-1.518-1.331c0-0.229,0.046-0.413,0.092-0.597l-0.092-0.092c-0.368,0.367-0.506,0.826-0.506,1.423
			c0,2.25,3.22,4.453,7.13,4.453c4.554,0,9.108-2.295,12.466-5.096c-2.76-2.8-4.922-6.197-4.922-10.696
			c0-4.407,2.898-8.217,6.762-8.217c4.692,0,8.188,4.315,9.384,9.089c9.89-8.952,17.434-16.48,28.704-17.123
			c-9.798,7.528-21.114,20.658-28.474,30.344c2.024-0.092,4.232-0.78,6.44-2.663l0.322-0.275l0.23,0.321l-0.276,0.229
			c-2.392,1.974-4.6,2.846-7.13,3.03l-1.058,1.423H57.811z M46.357,117.734c0,3.672,1.886,7.253,4.876,10.054
			c2.53-1.882,7.038-5.692,10.12-8.86c-1.012-4.544-4.048-8.401-8.464-8.401C49.715,110.527,46.357,113.603,46.357,117.734z
			 M61.491,119.617c-2.898,3.03-7.406,6.794-9.798,8.63c1.886,1.745,4.83,2.708,7.636,3.167c1.84-3.076,2.346-5.876,2.346-8.034
			C61.675,121.682,61.675,120.489,61.491,119.617z M61.077,128.981l0.092,0.092c7.912-10.1,16.744-19.877,27.508-27.039
			l-0.092-0.092c-10.028,1.331-18.676,10.1-26.588,17.215c0.138,1.01,0.322,2.112,0.322,3.765
			C62.319,124.528,62.089,126.961,61.077,128.981z"/>
		<path d="M82.604,124.62c-0.828,0.827-7.084,7.07-7.084,8.493c0,0.321,0.184,0.459,0.46,0.459c0.736,0,3.404-2.204,6.21-4.591
			l0.322-0.275l0.23,0.321l-0.276,0.229c-5.428,4.499-5.75,4.729-6.578,4.729c-1.012,0-1.288-0.505-1.288-1.239
			c0-0.827,0.368-1.653,0.736-2.25h-0.092c-2.438,2.204-4.278,3.489-6.026,3.489c-1.38,0-1.84-0.826-1.84-2.158
			c0-3.856,6.44-7.483,9.66-7.483c1.518,0,1.748,0.735,1.748,1.974h0.092l1.38-1.699H82.604z M68.298,132.746
			c0,0.551,0.322,0.872,1.104,0.872c1.288,0,3.68-1.561,6.072-3.811c2.07-1.974,2.944-3.03,2.944-4.085
			c0-0.688-0.506-1.01-1.196-1.01C74.554,124.712,68.298,131.001,68.298,132.746z"/>
	</g>
	<g>
		<path d="M47.185,176.523c2.3,0,4.692,0.092,6.992,0.092c6.992-8.263,14.996-17.445,19.872-17.445c2.668,0,3.404,1.377,3.404,3.765
			c0,3.122-1.426,5.555-8.74,13.68c1.38,0,2.852-0.184,4.232-0.184l-0.368,0.918c-1.472,0-3.036-0.184-4.508-0.184
			c-4.968,5.417-7.452,8.447-7.452,11.293c0,2.847,1.472,4.132,4.692,4.132c4.922,0,13.432-7.804,13.432-11.936
			c0-1.836-1.564-2.754-2.668-2.754c-3.496,0-6.762,4.224-8.096,6.978h-0.276c0.874-3.626,4.508-7.529,8.234-7.529
			c2.3,0,3.358,1.653,3.358,3.351c0,7.437-8.74,12.441-13.708,12.441c-4.508,0-8.28-3.122-8.28-7.069c0-3.489,2.576-6.06,5.06-8.906
			h-8.004c-9.292,10.559-15.64,15.976-22.771,15.976c-4.83,0-7.59-2.479-7.59-5.509c0-1.469,1.196-2.754,2.76-2.754
			c1.38,0,2.76,1.01,2.76,2.479c0,1.102-1.104,2.663-2.852,2.663c-0.184,0-0.368,0.184-0.368,0.367c0,0.918,2.3,2.204,5.244,2.204
			c6.854,0,12.466-4.729,22.081-15.425c-2.392,0-4.6,0.184-6.9,0.184L47.185,176.523z M62.825,176.615
			c1.84-2.663,12.42-12.67,12.42-15.792c0-0.734-0.644-1.102-1.242-1.102c-3.588,0-9.614,5.876-19.09,16.894H62.825z"/>
		<path d="M98.336,178.452h5.796L92.816,191.03c-0.506,0.551-0.644,0.781-0.644,1.102c0,0.275,0.276,0.459,0.644,0.459
			c4.14,0,8.464-4.04,12.19-8.08l0.506,0.275c-3.864,4.224-8.372,8.355-12.512,8.355c-2.668,0-3.036-1.836-3.036-2.846
			c0-0.459,0.092-1.102,0.276-1.561h-0.092c-2.668,2.984-4.922,4.407-6.67,4.407c-1.794,0-2.806-1.377-2.806-3.489
			c0-7.621,8.648-11.752,13.34-11.752c1.702,0,2.714,1.01,2.714,1.791c0,0.229,0,0.459-0.046,0.597h0.092L98.336,178.452z
			 M94.702,178.727c-1.426,0-1.932,0.459-9.752,9.457c-1.426,1.607-2.346,2.708-2.346,3.443c0,0.643,0.506,0.964,1.058,0.964
			c1.426,0,3.588-1.515,6.44-4.683c6.026-6.702,6.072-7.575,6.072-8.125C96.174,179.094,95.53,178.727,94.702,178.727z"/>
	</g>
	<g>
		<path d="M146.681,100.519h-2.024c-6.164,0-13.478,3.902-13.478,8.217c0,3.214,3.634,5.233,8.878,5.233
			c1.104,0,2.438-0.138,3.91-0.413c-0.046-0.413-0.092-0.78-0.092-1.239c0-6.427,10.672-11.018,16.146-11.018
			c1.702,0,3.588,0.597,3.588,2.433c0,3.994-8.648,8.585-18.584,10.237c0,0.368,0.138,0.873,0.414,1.332
			c0.966,0,4.416,0.138,4.416,1.745c0,0.688-0.46,1.147-1.38,1.147c-1.38-0.046-2.484-1.147-3.404-2.25
			c-8.602,0.275-16.1,8.447-16.1,12.625c0,3.122,3.082,4.774,6.394,4.774c4.508,0,14.306-2.938,14.306-8.447
			c0-1.515-1.288-2.8-3.726-2.8c-5.152,0-10.764,4.453-13.984,8.171l-0.184-0.321c3.082-3.811,9.292-8.493,14.123-8.493
			c2.162,0,4.416,1.01,4.416,3.627c0,4.82-8.418,8.906-14.95,8.906c-4.094,0-7.866-2.295-7.866-6.61
			c0-7.942,10.718-11.89,17.204-12.074c-0.322-0.413-0.506-0.872-0.598-1.148c-1.748,0.322-3.22,0.459-4.186,0.459
			c-5.198,0-9.66-1.791-9.66-6.335c0-4.591,5.934-8.125,14.582-8.125h1.84V100.519z M145.071,113.373
			c4.37-0.643,17.894-4.453,17.894-9.641c0-1.377-1.61-1.79-2.99-1.79C154.869,101.942,146.129,108.461,145.071,113.373z
			 M149.211,117.092c0-1.01-2.806-1.24-3.496-1.24c0.644,0.78,1.794,1.699,2.898,1.699
			C149.027,117.551,149.211,117.413,149.211,117.092z"/>
		<path d="M160.526,129.027l-0.276,0.229c-3.726,3.076-6.394,4.729-8.602,4.729c-1.334,0-1.978-0.964-1.978-2.204
			c0-3.443,6.118-7.437,9.154-7.437c0.782,0,1.058,0.505,1.058,1.01c0,1.469-2.116,3.305-7.544,4.269
			c-0.69,0.505-1.748,1.836-1.748,2.938c0,0.551,0.46,1.056,1.104,1.056c1.794,0,5.014-1.836,8.28-4.637l0.322-0.275
			L160.526,129.027z M152.844,128.936l0.092,0.092c2.668-0.413,6.578-1.882,6.578-3.626c0-0.413-0.368-0.688-0.69-0.688
			C157.767,124.712,156.294,125.952,152.844,128.936z"/>
	</g>
	<g>
		<path d="M136.469,184.603c1.84-2.479,5.52-6.427,11.132-6.427c2.484,0,3.956,1.469,3.956,3.856
			c0,4.499-7.176,11.109-16.652,11.109c-6.164,0-10.212-3.305-10.212-8.171c0-7.162,9.2-11.063,14.904-11.936
			c-0.322-0.459-0.506-0.872-0.598-1.331c-5.014,0-10.258-1.699-10.258-6.197c0-3.535,4.094-5.785,8.05-5.785
			c2.53,0,3.956,0.23,7.084,1.148l-0.23,0.505c-1.886-0.551-3.956-1.102-6.302-1.102c-3.864,0-6.394,2.617-6.394,5.05
			c0,4.499,3.864,5.738,8.004,5.83c0.092-8.309,11.132-11.982,18.952-11.982c3.312,0,4.462,0.964,4.462,2.708
			c0,3.902-10.35,8.952-21.528,9.687c-0.138,0.184-0.23,0.367-0.23,0.597s0.046,0.505,0.184,0.78
			c0.368-0.046,1.15-0.092,1.702-0.092c1.196,0,4.554,0.276,4.554,2.204c0,0.827-1.012,1.286-1.978,1.286
			c-1.794,0-3.818-0.643-4.83-2.295c-4.324,2.433-12.788,10.467-12.788,14.231c0,1.653,2.024,4.315,6.348,4.315
			c9.752,0,16.652-7.988,16.652-11.201c0-1.836-1.104-2.663-2.944-2.663c-5.152,0-8.648,3.581-10.58,6.151L136.469,184.603z
			 M143.093,173.402c-0.552,0-1.426,0.092-2.024,0.367c0.552,1.102,2.576,2.02,3.956,2.02c0.644,0,1.472-0.184,1.472-0.827
			C146.497,173.861,143.967,173.402,143.093,173.402z M141.161,171.015c7.636-0.459,20.654-4.866,20.654-9.182
			c0-1.744-1.61-2.112-3.174-2.112C153.029,159.721,144.841,166.791,141.161,171.015z"/>
		<path d="M169.588,184.511c-3.726,4.729-9.568,8.63-13.938,8.63c-2.346,0-3.634-1.423-3.634-3.581
			c0-6.703,8.648-11.661,13.249-11.661c1.84,0,3.036,1.056,3.036,2.571c0,3.856-5.336,5.509-10.12,5.693
			c-3.634,3.856-3.956,5.049-3.956,5.646c0,0.597,0.69,0.78,1.61,0.78c4.37,0,10.074-4.224,13.11-8.08H169.588z M158.64,185.613
			c3.956,0,8.004-3.03,8.004-6.105c0-0.643-0.368-1.056-0.782-1.056c-0.736,0-1.518,0.78-3.128,2.571L158.64,185.613z"/>
	</g>
	<g>
		<path d="M241.735,102.355c-1.701,0.78-3.449,1.836-4.922,2.8c1.84,1.515,3.358,3.81,3.358,6.335c0,5.968-7.637,8.814-11.5,9.228
			c0.368,0.688,0.552,1.469,0.552,2.158c0,4.545-6.578,7.437-6.578,9.87c0,0.229,0.506,0.597,1.426,0.597
			c2.208,0,5.475-2.066,8.143-4.361l0.321-0.275l0.23,0.321l-0.276,0.229c-2.575,2.158-5.657,4.729-8.464,4.729
			c-1.288,0-2.576-0.872-2.576-2.204c0-3.351,7.131-7.115,7.131-9.548c0-0.459-0.23-1.056-0.507-1.423
			c-0.229,0.046-0.689,0.184-1.195,0.184c-1.288,0-2.208-0.551-2.208-1.469c0-0.505,0.506-1.01,1.149-1.01
			c1.059,0,1.979,0.918,2.622,1.836c4.462-0.597,10.258-5.692,10.258-10.742c0-1.836-1.149-3.03-2.346-4.178
			c-7.176,5.142-11.27,13.221-17.066,19.74c-4.462,5.05-11.086,8.814-17.479,8.814c-4.462,0-7.913-1.791-7.913-4.407
			c0-1.147,0.782-2.111,1.886-2.111c1.012,0,1.656,0.688,1.656,1.698c0,0.688-0.46,1.423-1.38,1.423
			c-0.736,0-1.058-0.459-1.196-0.918c-0.184,0.092-0.322,0.322-0.322,0.597c0,0.551,1.886,3.076,6.992,3.076
			c7.038,0,12.42-4.912,16.561-10.054c5.244-6.519,10.764-13.497,17.802-18.179c-3.266-2.204-8.556-3.167-12.558-3.167
			c-15.917,0-24.013,9.457-24.013,14.644c0,3.719,3.726,5.279,6.854,5.279c4.737,0,15.456-4.499,15.456-10.237
			c0-1.653-2.438-2.938-4.324-2.938c-5.198,0-11.086,4.683-13.433,8.677l-0.321-0.275c2.668-4.361,8.464-9.044,13.983-9.044
			c2.347,0,4.738,1.469,4.738,3.811c0,6.381-10.626,10.926-15.778,10.926c-4.508,0-7.82-2.341-7.82-6.381
			c0-5.646,8.74-15.103,24.38-15.103c4.278,0,9.384,0.826,13.294,3.489c1.564-1.148,3.358-1.974,5.061-2.892L241.735,102.355z
			 M225.313,119.663c0,0.413,0.645,0.688,1.519,0.688h0.92c-0.507-0.643-1.196-1.194-1.933-1.194
			C225.451,119.157,225.313,119.433,225.313,119.663z"/>
		<path d="M232.214,128.981l0.321-0.275c0.966-0.826,2.393-2.204,3.45-3.259c-0.368-0.413-0.552-0.78-0.552-1.286
			c0-0.78,0.506-1.193,1.058-1.193c0.599,0,0.966,0.413,0.966,1.01c0,0.689-0.689,0.964-1.334,1.01
			c0.322,0.275,0.874,0.459,1.334,0.459c0.736,0,1.381-0.229,1.841-0.459l1.241,1.331l-1.334,1.377
			c-3.726,3.856-4.783,4.912-4.783,5.371c0,0.367,0.229,0.551,0.874,0.551c1.149,0,4.094-1.974,7.176-4.637l0.322-0.275l0.229,0.321
			l-0.276,0.229c-4.277,3.581-6.164,4.729-7.59,4.729c-1.104,0-1.656-0.459-1.656-1.377c0-1.148,0.553-2.112,2.576-4.178
			l2.668-2.708l-0.092-0.092c-0.322,0.092-0.735,0.184-1.196,0.184c-0.367,0-0.644-0.046-0.92-0.138
			c-1.334,1.147-2.76,2.525-3.771,3.351l-0.276,0.229L232.214,128.981z"/>
	</g>
	<g>
		<path d="M215.331,164.496v0.459c0,8.172-6.808,13.681-11.315,13.681c-3.128,0-4.784-1.745-4.784-4.866
			c0-5.692,8.924-14.599,24.564-14.599c4.14,0,7.912,0.827,10.027,1.561c1.288-0.643,2.576-1.194,3.956-1.561l0.185,0.459
			c-1.38,0.459-2.3,0.918-3.404,1.377c3.588,1.331,5.612,3.351,5.612,7.162c0,5.05-5.98,7.621-10.948,7.621
			c0.644,0.918,1.104,1.928,1.104,2.846c0,4.223-5.796,7.345-5.796,11.201c0,2.112,1.473,2.754,3.036,2.754
			c4.508,0,11.96-8.171,11.96-10.972c0-1.102-0.689-1.791-1.932-1.791c-2.208,0-4.048,2.112-5.428,3.672l-0.276-0.184
			c1.564-2.111,3.404-4.04,5.658-4.04c1.518,0,2.53,0.78,2.53,2.708c0,5.463-6.44,11.155-12.236,11.155
			c-4.784,0-6.624-3.076-6.624-6.105c0-4.774,6.348-7.483,6.532-11.247c-3.036,0-5.429-0.551-5.429-2.204h-0.092
			c-6.9,9.089-13.616,19.556-26.956,19.556c-5.428,0-8.74-2.754-8.74-5.876c0-1.515,1.242-2.938,2.852-2.938
			c1.564,0,2.668,1.102,2.668,2.846c0,2.846-2.852,2.25-2.852,2.938c0,0.734,1.886,2.479,5.98,2.479
			c3.772,0,6.256-1.745,8.648-3.948c5.061-4.682,13.524-20.382,28.704-27.269v-0.092c-3.035-1.285-7.359-1.561-10.027-1.561
			c-14.444,0-22.725,9.09-22.725,13.864c0,2.479,1.012,3.948,3.68,3.948c3.681,0,11.316-6.335,11.316-12.579v-0.459H215.331z
			 M222.876,173.494c0,0.734,1.38,1.744,4.876,1.744c-0.553-1.469-2.484-2.295-3.956-2.295
			C223.289,172.942,222.876,173.218,222.876,173.494z M228.764,175.054c3.588-0.918,7.544-4.407,7.544-8.401
			c0-1.836-0.782-3.764-3.128-5.05c-2.853,1.515-8.924,8.584-10.212,10.788c0.275-0.046,0.552-0.092,0.828-0.092
			C225.682,172.3,227.706,173.54,228.764,175.054z"/>
		<path d="M249.831,178.452h5.244l-6.303,6.702l0.093,0.092c1.334-0.826,2.897-1.377,4.37-1.652c0.92-2.02,3.588-5.693,6.071-5.693
			c0.553,0,1.381,0.275,1.381,1.102c0,3.03-4.509,4.315-6.9,5.05c-0.185,0.184-0.185,0.551-0.185,1.01
			c0,0.643,0.553,1.469,1.564,1.469c1.932,0,3.45-1.377,4.508-2.846l0.46,0.275c-1.288,1.606-2.622,3.122-4.876,3.122
			c-1.656,0-2.208-1.102-2.208-1.745c0-0.367,0-0.734,0.092-1.193c-2.989,0.872-4.83,1.928-6.854,4.131l-3.91,4.315h-5.244
			L249.831,178.452z"/>
	</g>
	<g>
		<path fill="#929497" d="M122.624,272.927c3.969-6.225,11.907-13.203,19.719-13.203c2.268,0,4.473,1.571,4.473,3.961
			c0,7.733-14.175,14.021-20.664,14.021c-4.599,0-8.379-2.074-8.379-7.419c0-4.275,3.906-9.809,7.119-13.832
			c-0.504,0.062-1.197,0.126-1.953,0.126c-5.544,0-11.907-2.83-11.907-9.18c0-5.533,5.733-14.838,26.586-14.838v0.503
			c-18.585,0-25.326,9.934-25.326,14.964c0,5.47,6.174,7.67,11.088,7.67c0.819,0,1.512-0.062,2.268-0.188
			c9.261-10.374,24.885-22.572,35.028-22.572c2.583,0,4.536,1.195,4.536,3.773c0,5.91-14.553,15.844-35.406,19.302
			c-5.859,6.225-10.395,12.387-10.395,15.53c0,3.521,3.087,5.281,6.93,5.281c5.67,0,19.593-6.539,19.593-12.89
			c0-2.012-1.701-3.332-3.717-3.332c-8.19,0-15.246,6.979-19.152,12.512L122.624,272.927z M160.424,233.819
			c-8.946,0-24.255,14.524-29.862,21l0.126,0.126c20.223-3.898,33.642-12.826,33.642-18.548
			C164.33,234.763,162.881,233.819,160.424,233.819z"/>
		<path fill="#929497" d="M158.723,263.559l-0.126-0.126c-2.961,1.949-6.3,4.842-9.513,7.482l-0.378,0.314l-0.378-0.377l0.441-0.378
			c3.276-2.767,8.316-7.104,10.836-8.236c14.931-16.096,20.412-20.434,25.137-20.434c1.071,0,2.016,0.565,2.016,1.886
			c0,4.087-9.135,11.506-22.806,17.228l-9.891,11.38h0.126c5.859-5.029,9.198-7.796,12.222-7.796c1.449,0,2.52,1.006,2.52,2.767
			c0,3.144-7.119,7.042-7.119,9.305c0,0.314,0.315,0.629,0.882,0.629c1.071,0,3.969-1.949,9.135-6.35l0.441-0.378l0.315,0.44
			l-0.378,0.314c-6.3,5.219-8.253,6.476-9.891,6.476c-1.386,0-2.142-0.565-2.142-1.949c0-3.835,7.119-7.355,7.119-9.619
			c0-0.817-0.441-1.132-0.945-1.132c-4.158,0-13.608,9.368-16.443,12.323h-3.717L158.723,263.559z M164.708,259.66l0.126,0.126
			c12.789-5.407,21.42-12.512,21.42-16.158c0-0.755-0.693-1.32-1.575-1.32C180.899,242.308,176.867,246.457,164.708,259.66z"/>
		<path fill="#929497" d="M191.986,264.879c-1.134,1.132-9.702,9.683-9.702,11.632c0,0.44,0.252,0.629,0.63,0.629
			c1.008,0,4.662-3.019,8.505-6.287l0.441-0.378l0.315,0.44l-0.378,0.314c-7.434,6.161-7.875,6.476-9.009,6.476
			c-1.386,0-1.764-0.691-1.764-1.697c0-1.132,0.504-2.264,1.008-3.081h-0.126c-3.339,3.019-5.859,4.778-8.253,4.778
			c-1.89,0-2.52-1.132-2.52-2.955c0-5.281,8.82-10.248,13.23-10.248c2.079,0,2.394,1.006,2.394,2.703h0.126l1.89-2.326H191.986z
			 M172.393,276.008c0,0.755,0.441,1.194,1.512,1.194c1.764,0,5.04-2.138,8.316-5.219c2.835-2.703,4.032-4.149,4.032-5.596
			c0-0.942-0.693-1.383-1.638-1.383C180.961,265.005,172.393,273.618,172.393,276.008z"/>
		<path fill="#929497" d="M192.3,270.853l0.441-0.378c1.323-1.132,3.276-3.018,4.725-4.464c-0.504-0.565-0.756-1.068-0.756-1.761
			c0-1.068,0.693-1.635,1.449-1.635c0.819,0,1.323,0.566,1.323,1.384c0,0.943-0.945,1.32-1.827,1.383
			c0.441,0.378,1.197,0.629,1.827,0.629c1.008,0,1.89-0.314,2.521-0.629l1.7,1.823l-1.826,1.887
			c-5.104,5.281-6.552,6.728-6.552,7.356c0,0.503,0.315,0.754,1.197,0.754c1.575,0,5.607-2.703,9.828-6.35l0.44-0.378l0.315,0.44
			l-0.378,0.314c-5.859,4.904-8.442,6.476-10.395,6.476c-1.512,0-2.268-0.629-2.268-1.886c0-1.572,0.756-2.893,3.528-5.722
			l3.654-3.71l-0.126-0.125c-0.44,0.125-1.008,0.251-1.638,0.251c-0.504,0-0.882-0.062-1.26-0.188
			c-1.827,1.572-3.78,3.458-5.166,4.59l-0.378,0.314L192.3,270.853z"/>
		<path fill="#929497" d="M212.271,267.331l-0.126-0.126c-1.135,1.069-2.331,2.201-4.158,3.71l-0.378,0.314l-0.378-0.377l0.44-0.378
			c2.835-2.452,6.048-5.407,10.647-10.186c5.103-5.219,16.758-18.484,23.436-18.484c1.26,0,1.764,0.88,1.764,1.886
			c0,4.401-11.276,13.078-22.932,17.668c-9.891,10.939-11.654,13.267-11.654,14.712c0,0.503,0.44,1.132,1.512,1.132
			c1.26,0,4.725-2.389,9.324-6.35l0.44-0.378l0.315,0.44l-0.378,0.314c-7.623,6.351-8.631,6.476-10.206,6.476
			c-1.513,0-2.269-1.068-2.269-2.515C207.672,273.053,209.751,270.224,212.271,267.331z M221.469,260.289
			c4.6-1.571,21.546-11.568,21.546-16.85c0-0.566-0.504-1.132-1.322-1.132c-4.096,0-12.537,9.054-20.35,17.855L221.469,260.289z"/>
		<path fill="#929497" d="M233.88,266.64c0,1.194-0.63,3.081-2.079,4.716c0.378,0.439,0.566,0.628,1.008,0.628
			c0.378,0,0.882-0.251,1.89-1.131l0.441-0.378l0.315,0.44l-0.379,0.314c-1.322,1.132-1.638,1.258-2.331,1.258
			c-0.566,0-1.008-0.189-1.512-0.504c-2.394,2.516-6.741,5.722-9.387,5.722c-1.89,0-2.772-1.006-2.772-2.829
			c0-5.533,8.442-10.374,12.789-10.374C233.124,264.502,233.88,265.193,233.88,266.64z M220.335,275.882
			c0,1.006,0.566,1.32,1.574,1.32c2.772,0,11.467-5.973,11.467-10.5c0-0.503-0.126-1.32-1.197-1.32
			C228.714,265.382,220.335,273.808,220.335,275.882z"/>
		<path fill="#929497" d="M244.148,260.918h3.717l5.355-5.596h3.275l-5.229,5.596h4.409l-0.314,0.503H250.7l-7.308,7.797
			c-5.481,5.847-6.111,6.476-6.111,7.23c0,0.628,0.567,0.754,1.197,0.754c1.89,0,6.048-3.27,9.639-6.35l0.441-0.378l0.314,0.44
			l-0.378,0.314c-6.363,5.281-8.315,6.476-10.143,6.476c-1.386,0-2.331-0.503-2.331-2.138c0-2.452,2.205-4.967,11.781-13.77
			l-0.127-0.125c-3.779,3.144-7.622,6.161-11.34,9.242l-0.378,0.314l-0.378-0.377l0.441-0.378c3.591-3.08,7.371-5.91,11.024-8.928
			v-0.126h-3.213L244.148,260.918z"/>
		<path fill="#929497" d="M257.566,260.918h3.717l5.355-5.596h3.275l-5.229,5.596h4.409l-0.314,0.503h-4.662l-7.308,7.797
			c-5.481,5.847-6.111,6.476-6.111,7.23c0,0.628,0.567,0.754,1.197,0.754c1.89,0,6.048-3.27,9.639-6.35l0.441-0.378l0.314,0.44
			l-0.378,0.314c-6.363,5.281-8.315,6.476-10.143,6.476c-1.386,0-2.331-0.503-2.331-2.138c0-2.452,2.205-4.967,11.781-13.77
			l-0.127-0.125c-3.779,3.144-7.622,6.161-11.34,9.242l-0.378,0.314l-0.378-0.377l0.441-0.378c3.591-3.08,7.371-5.91,11.024-8.928
			v-0.126h-3.213L257.566,260.918z"/>
		<path fill="#929497" d="M275.709,270.915l-0.378,0.314c-5.103,4.213-8.757,6.476-11.781,6.476c-1.826,0-2.709-1.32-2.709-3.018
			c0-4.716,8.38-10.186,12.537-10.186c1.071,0,1.449,0.691,1.449,1.383c0,2.013-2.897,4.527-10.332,5.848
			c-0.945,0.691-2.394,2.515-2.394,4.023c0,0.755,0.63,1.446,1.512,1.446c2.457,0,6.867-2.515,11.34-6.35l0.441-0.378
			L275.709,270.915z M265.188,270.789l0.126,0.126c3.653-0.565,9.009-2.578,9.009-4.967c0-0.566-0.504-0.943-0.945-0.943
			C271.93,265.005,269.913,266.702,265.188,270.789z"/>
		<path fill="#929497" d="M281.253,270.853c1.953-1.949,4.348-4.275,4.348-5.093c0-0.44-0.063-0.755-0.567-0.755
			c-1.008,0-3.276,1.572-8.442,5.91l-0.378,0.314l-0.378-0.377l0.441-0.378c5.292-4.526,7.623-5.973,8.757-5.973
			s1.827,0.817,1.827,1.761c0,1.257-0.819,2.577-2.079,4.212h0.126c2.457-2.138,6.804-5.973,9.576-5.973
			c1.386,0,2.394,0.88,2.394,2.075c0,3.772-7.623,7.419-7.623,9.682c0,0.566,0.441,0.943,0.882,0.943
			c1.449,0,6.301-3.897,9.198-6.35l0.441-0.378l0.314,0.44l-0.378,0.314c-4.284,3.521-7.875,6.476-9.576,6.476
			c-1.07,0-1.764-0.817-1.764-1.823c0-4.967,7.245-7.984,7.245-10.06c0-0.44-0.504-0.817-1.008-0.817
			c-3.591,0-10.584,7.23-13.545,9.683c-0.819,0.691-1.639,1.446-2.709,2.641h-3.528L281.253,270.853z"/>
		<path fill="#929497" d="M310.61,263.559l-0.126-0.126c-2.961,1.949-6.301,4.842-9.514,7.482l-0.378,0.314l-0.378-0.377
			l0.441-0.378c3.275-2.767,8.315-7.104,10.836-8.236c14.931-16.096,20.412-20.434,25.137-20.434c1.071,0,2.016,0.565,2.016,1.886
			c0,4.087-9.135,11.506-22.806,17.228l-9.891,11.38h0.126c5.858-5.029,9.198-7.796,12.222-7.796c1.449,0,2.521,1.006,2.521,2.767
			c0,3.144-7.119,7.042-7.119,9.305c0,0.314,0.314,0.629,0.882,0.629c1.071,0,3.969-1.949,9.135-6.35l0.441-0.378l0.314,0.44
			l-0.378,0.314c-6.3,5.219-8.253,6.476-9.891,6.476c-1.386,0-2.143-0.565-2.143-1.949c0-3.835,7.119-7.355,7.119-9.619
			c0-0.817-0.44-1.132-0.944-1.132c-4.158,0-13.608,9.368-16.443,12.323h-3.717L310.61,263.559z M316.595,259.66l0.126,0.126
			c12.789-5.407,21.42-12.512,21.42-16.158c0-0.755-0.692-1.32-1.574-1.32C332.786,242.308,328.754,246.457,316.595,259.66z"/>
		<path fill="#929497" d="M337.825,266.64c0,1.194-0.63,3.081-2.079,4.716c0.378,0.439,0.566,0.628,1.008,0.628
			c0.378,0,0.882-0.251,1.89-1.131l0.441-0.378l0.315,0.44l-0.379,0.314c-1.322,1.132-1.638,1.258-2.331,1.258
			c-0.566,0-1.008-0.189-1.512-0.504c-2.394,2.516-6.741,5.722-9.387,5.722c-1.89,0-2.772-1.006-2.772-2.829
			c0-5.533,8.442-10.374,12.789-10.374C337.069,264.502,337.825,265.193,337.825,266.64z M324.28,275.882
			c0,1.006,0.566,1.32,1.574,1.32c2.772,0,11.467-5.973,11.467-10.5c0-0.503-0.126-1.32-1.197-1.32
			C332.659,265.382,324.28,273.808,324.28,275.882z"/>
		<path fill="#929497" d="M346.015,271.858c0.315,0.439,1.449,0.817,2.205,0.817c0.882,0,2.583-0.692,3.843-1.823l0.441-0.378
			l0.314,0.44l-0.378,0.314c-1.386,1.194-2.835,1.949-4.347,1.949c-0.882,0-1.764-0.252-2.583-0.817l-17.892,19.742h-3.844
			l8.379-8.677c5.418-5.596,7.119-8.174,11.025-14.649l-0.126-0.126c-0.945,0.755-1.827,1.509-2.772,2.264l-0.378,0.314
			l-0.378-0.377l0.441-0.378c1.197-1.006,2.331-1.949,3.527-2.955c0.819-1.886,2.205-4.59,3.402-4.59
			c0.378,0,0.693,0.126,0.693,0.566c0,0.439-0.252,1.006-0.63,1.446l0.126,0.125l5.229-3.332
			c17.01-17.039,22.05-19.931,24.822-19.931c0.882,0,1.449,0.503,1.449,1.571c0,5.156-9.64,11.694-22.933,17.856L346.015,271.858z
			 M343.873,270.915c-0.189-0.44-0.379-1.006-0.379-1.509h-0.126c-1.134,2.012-2.394,4.149-3.843,5.973l0.126,0.126L343.873,270.915
			z M351.181,263.244l-0.126-0.126c-2.269,1.51-4.662,3.019-6.867,4.653c-0.062,0.314-0.126,0.691-0.126,1.132
			c0,0.503,0.126,1.006,0.378,1.446L351.181,263.244z M356.409,260.038l0.126,0.125c15.12-6.916,21.546-13.077,21.546-16.912
			c0-0.504-0.44-0.943-1.07-0.943c-3.78,0-12.223,8.739-20.602,17.855V260.038z"/>
	</g>
</g>
</svg>
