<?xml version="1.0" encoding="utf-8"?>
<!-- Generator: Adobe Illustrator 13.0.1, SVG Export Plug-In . SVG Version: 6.00 Build 14948)  -->
<!DOCTYPE svg PUBLIC "-//W3C//DTD SVG 1.1//EN" "http://www.w3.org/Graphics/SVG/1.1/DTD/svg11.dtd">
<svg version="1.1" id="Layer_1" xmlns="http://www.w3.org/2000/svg" xmlns:xlink="http://www.w3.org/1999/xlink" x="0px" y="0px"
	 width="396px" height="468px" viewBox="0 0 396 468" enable-background="new 0 0 396 468" xml:space="preserve">
<g>
	<g>
		<g>
			<defs>
				<rect id="SVGID_1_" width="396" height="468"/>
			</defs>
			<clipPath id="SVGID_2_">
				<use xlink:href="#SVGID_1_"  overflow="visible"/>
			</clipPath>
			<rect clip-path="url(#SVGID_2_)" fill="#FFFFFF" width="396" height="468"/>
		</g>
		<g>
			<defs>
				<rect id="SVGID_3_" width="396" height="468"/>
			</defs>
			<clipPath id="SVGID_4_">
				<use xlink:href="#SVGID_3_"  overflow="visible"/>
			</clipPath>
			<path clip-path="url(#SVGID_4_)" fill="#F6E0B4" d="M0,0h396v312H0V0z"/>
		</g>
	</g>
	<rect y="312" fill="#C46B45" width="396" height="156"/>
	<g>
		<path d="M38.312,28.693v3.036c-1.088,0.299-1.918,0.76-2.488,1.385c-0.57,0.623-0.855,1.393-0.855,2.307
			c0,0.879,0.237,1.648,0.711,2.308c0.474,0.66,1.247,1.288,2.318,1.886c0.737,0.404,2.406,1.178,5.005,2.32
			c1.581,0.686,2.806,1.307,3.675,1.859c0.869,0.555,1.69,1.244,2.463,2.07c2.072,2.18,3.108,4.773,3.108,7.779
			c0,2.269-0.562,4.344-1.687,6.225c-1.125,1.881-2.671,3.357-4.64,4.43c-1.055,0.562-2.21,1.007-3.467,1.332
			c-1.257,0.325-2.43,0.488-3.519,0.488v-3.006c1.525-0.369,2.625-0.884,3.3-1.543c0.675-0.659,1.013-1.552,1.013-2.678
			c0-1.178-0.527-2.215-1.581-3.111c-0.703-0.58-2.038-1.302-4.004-2.163c-2.16-0.949-3.64-1.626-4.439-2.03
			c-0.799-0.404-1.567-0.88-2.305-1.425c-3.302-2.356-4.953-5.495-4.953-9.415c0-2.005,0.413-3.855,1.24-5.553
			c0.826-1.696,1.978-3.063,3.455-4.102C32.721,29.651,35.271,28.852,38.312,28.693z M36.938,63.112v3.006
			c-1.441,0-3.032-0.41-4.772-1.227c-0.65-0.297-1.099-0.488-1.345-0.574c-0.246-0.088-0.483-0.131-0.712-0.131
			c-0.352,0-0.615,0.057-0.791,0.17c-0.176,0.113-0.457,0.396-0.844,0.85c-0.316,0.383-0.659,0.574-1.028,0.574
			c-0.984,0-1.477-0.758-1.477-2.273v-9.596c0-0.49,0.141-0.906,0.422-1.248c0.281-0.342,0.633-0.521,1.055-0.539
			c0.387-0.018,0.69,0.092,0.91,0.33c0.22,0.236,0.409,0.654,0.567,1.251c0.404,1.511,0.989,2.925,1.753,4.242
			c0.764,1.317,1.657,2.433,2.676,3.347C34.389,62.243,35.584,62.849,36.938,63.112z M40.406,31.729v-2.904
			c1.055,0.072,1.968,0.211,2.742,0.418s1.872,0.616,3.296,1.228c0.352,0.144,0.642,0.216,0.87,0.216c0.334,0,0.58-0.116,0.738-0.35
			l0.58-0.778c0.281-0.394,0.624-0.591,1.028-0.591c0.475,0,0.822,0.171,1.042,0.512c0.22,0.342,0.33,0.881,0.33,1.615v8.714
			c0,0.514-0.145,0.935-0.435,1.262c-0.29,0.327-0.664,0.491-1.121,0.491c-0.352,0-0.677-0.114-0.976-0.344
			c-0.158-0.141-0.285-0.312-0.382-0.516c-0.097-0.202-0.189-0.541-0.277-1.018c-0.193-0.863-0.527-1.753-1.002-2.67
			c-0.475-0.916-1.028-1.734-1.661-2.457C43.913,33.13,42.322,32.187,40.406,31.729z"/>
		<path d="M57.497,29.405h6.938V32.6c-0.827,0.475-1.469,1.081-1.926,1.818c-0.756,1.195-1.266,2.61-1.53,4.244l-0.264,1.607
			c-0.088,0.51-0.277,0.91-0.567,1.2c-0.29,0.29-0.655,0.435-1.095,0.435c-0.457,0-0.831-0.157-1.121-0.473
			c-0.29-0.314-0.435-0.727-0.435-1.234V29.405z M78.278,29.405v30.991c0,0.686,0.132,1.178,0.397,1.476
			c0.141,0.176,0.273,0.286,0.396,0.33c0.123,0.044,0.529,0.154,1.218,0.33c0.847,0.193,1.27,0.676,1.27,1.449
			c0,0.457-0.229,0.826-0.688,1.107c-0.335,0.211-0.9,0.316-1.694,0.316h-0.873H66.533h-0.872c-0.775,0-1.361-0.119-1.757-0.355
			c-0.396-0.238-0.594-0.594-0.594-1.068c0-0.773,0.422-1.256,1.268-1.449c0.687-0.176,1.092-0.286,1.215-0.33
			s0.247-0.154,0.37-0.33c0.264-0.298,0.396-0.79,0.396-1.476V29.405H78.278z M87.372,29.405v10.793c0,0.508-0.146,0.92-0.436,1.234
			c-0.29,0.315-0.664,0.473-1.121,0.473c-0.44,0-0.805-0.146-1.095-0.436c-0.29-0.29-0.479-0.689-0.567-1.2l-0.264-1.607
			c-0.264-1.634-0.774-3.049-1.53-4.244c-0.475-0.737-1.117-1.344-1.926-1.818v-3.195L87.372,29.405L87.372,29.405z"/>
		<path d="M107.188,29.405v36H95.443h-0.686c-0.632,0-1.12-0.119-1.462-0.355c-0.343-0.238-0.514-0.576-0.514-1.016
			c0-0.721,0.351-1.195,1.054-1.424c0.58-0.193,0.918-0.312,1.015-0.355c0.097-0.043,0.197-0.145,0.303-0.303
			c0.211-0.281,0.316-0.729,0.316-1.345V34.212c0-0.617-0.105-1.065-0.316-1.348c-0.105-0.158-0.206-0.26-0.303-0.303
			c-0.097-0.045-0.435-0.163-1.015-0.357c-0.703-0.229-1.054-0.703-1.054-1.426c0-0.439,0.171-0.779,0.514-1.017
			c0.342-0.237,0.83-0.355,1.462-0.355h0.686H107.188z M109.407,48.613v-3.058c1.019-0.494,1.774-1.031,2.266-1.613
			c0.492-0.582,0.852-1.357,1.081-2.328c0.14-0.67,0.325-1.132,0.553-1.388c0.228-0.256,0.553-0.384,0.975-0.384
			c0.562,0,0.948,0.222,1.159,0.664c0.123,0.23,0.185,0.754,0.185,1.568v10.044c0,0.828-0.092,1.4-0.277,1.718
			c-0.185,0.316-0.522,0.475-1.014,0.475c-0.404,0-0.721-0.123-0.949-0.369c-0.228-0.246-0.413-0.66-0.553-1.24
			c-0.299-1.213-0.725-2.146-1.278-2.797C111,49.255,110.285,48.824,109.407,48.613z M109.532,29.405h10.625v9.349
			c0,0.534-0.105,0.923-0.316,1.164s-0.545,0.362-1.002,0.362c-0.387,0-0.668-0.078-0.844-0.236c-0.176-0.158-0.343-0.482-0.5-0.974
			c-0.668-2.034-1.648-3.585-2.94-4.655c-1.292-1.069-2.966-1.709-5.022-1.92L109.532,29.405L109.532,29.405z M109.563,65.405V62.56
			c1.143-0.176,2.087-0.421,2.834-0.737c0.747-0.315,1.499-0.799,2.254-1.449c0.756-0.649,1.358-1.321,1.806-2.015
			c0.448-0.694,0.875-1.612,1.279-2.754c0.193-0.562,0.396-0.943,0.606-1.146c0.211-0.201,0.501-0.303,0.87-0.303
			c0.492,0,0.835,0.145,1.028,0.436c0.193,0.289,0.29,0.795,0.29,1.514v9.301h-10.967V65.405z"/>
		<path d="M130.51,38.675l2.781,4.64v14.13c0,1.23,0.207,2.24,0.62,3.031s1.068,1.441,1.966,1.951l0.791,0.447
			c0.457,0.264,0.686,0.66,0.686,1.188c0,0.404-0.167,0.737-0.501,1.001c-0.282,0.229-0.862,0.343-1.742,0.343h-6.077
			c-1.599,0-2.398-0.457-2.398-1.371c0-0.316,0.083-0.566,0.25-0.751c0.167-0.185,0.531-0.435,1.094-0.751
			c1.687-0.932,2.531-2.627,2.531-5.088v-18.77H130.51z M141.577,29.405l14.027,24.375v11.625h-7.198L130.5,34.548
			c-0.387-0.668-0.703-1.134-0.949-1.397c-0.246-0.263-0.562-0.457-0.949-0.58l-1.002-0.37c-0.264-0.088-0.475-0.246-0.633-0.475
			c-0.158-0.229-0.237-0.482-0.237-0.764c0-0.299,0.079-0.576,0.237-0.831c0.158-0.255,0.37-0.436,0.634-0.541
			c0.299-0.123,1.108-0.185,2.428-0.185H141.577z M155.604,49.562l-2.781-4.719v-7.304c0-1.479-0.216-2.61-0.647-3.394
			c-0.431-0.784-1.192-1.457-2.283-2.02c-0.37-0.176-0.625-0.365-0.766-0.568c-0.141-0.202-0.211-0.462-0.211-0.779
			c0-0.475,0.154-0.822,0.462-1.043c0.308-0.22,0.806-0.33,1.493-0.33h6.578c0.897,0,1.486,0.141,1.768,0.422
			c0.299,0.283,0.449,0.617,0.449,1.004c0,0.37-0.083,0.647-0.25,0.832c-0.167,0.186-0.567,0.436-1.2,0.753
			c-0.933,0.476-1.636,1.206-2.111,2.192c-0.334,0.721-0.501,1.698-0.501,2.931V49.562z"/>
		<path d="M179.55,28.693v3.194c-1.03,0.158-1.798,0.617-2.304,1.373c-0.506,0.758-0.759,1.84-0.759,3.248v21.779v1.133
			c0,0.404,0.083,0.831,0.249,1.279c0.166,0.448,0.38,0.83,0.642,1.146c0.279,0.353,0.575,0.603,0.89,0.751
			c0.314,0.149,0.742,0.251,1.283,0.304v3.217c-3.406,0-6.364-0.888-8.874-2.663c-2.212-1.563-3.88-3.668-5.003-6.313
			c-1.124-2.645-1.685-5.777-1.685-9.396c0-2.654,0.364-5.127,1.093-7.42c0.729-2.294,1.786-4.284,3.173-5.971
			c1.404-1.705,3.085-3.076,5.043-4.113c1.957-1.036,3.84-1.555,5.648-1.555L179.55,28.693z M181.644,31.914V28.72
			c0.861,0.142,1.56,0.291,2.096,0.451c0.536,0.158,1.507,0.494,2.914,1.008c0.896,0.318,1.494,0.477,1.793,0.477
			c0.51,0,0.896-0.23,1.16-0.691l0.343-0.639c0.211-0.426,0.606-0.639,1.187-0.639c0.475,0,0.839,0.142,1.094,0.424
			c0.255,0.283,0.382,0.698,0.382,1.246v10.98c0,0.705-0.158,1.215-0.475,1.531c-0.317,0.316-0.677,0.475-1.081,0.475
			c-0.422,0-0.76-0.137-1.015-0.409s-0.461-0.717-0.62-1.333c-0.369-1.39-0.729-2.48-1.081-3.273
			c-0.756-1.671-1.617-3.025-2.584-4.064c-0.65-0.703-1.301-1.244-1.951-1.623S182.435,32.02,181.644,31.914z M181.707,66.118
			v-3.217c1.37-0.105,2.811-0.625,4.322-1.557c0.808-0.51,1.528-1.191,2.161-2.043c0.632-0.854,1.107-1.789,1.423-2.809
			c0.176-0.562,0.382-0.963,0.619-1.201c0.237-0.236,0.549-0.355,0.936-0.355c0.422,0,0.773,0.158,1.054,0.475
			c0.281,0.317,0.422,0.712,0.422,1.187c0,0.792-0.303,1.75-0.909,2.875s-1.384,2.162-2.333,3.111
			c-1.16,1.161-2.35,2.022-3.571,2.585S183.235,66.048,181.707,66.118z"/>
		<path d="M213.204,65.405h-11.771h-0.687c-0.632,0-1.12-0.119-1.462-0.355c-0.344-0.238-0.514-0.576-0.514-1.016
			c0-0.721,0.352-1.195,1.054-1.424c0.579-0.193,0.918-0.312,1.015-0.355c0.098-0.043,0.197-0.145,0.303-0.303
			c0.211-0.281,0.316-0.729,0.316-1.345V34.212c0-0.617-0.105-1.065-0.316-1.348c-0.104-0.158-0.205-0.26-0.303-0.303
			c-0.097-0.045-0.436-0.163-1.015-0.357c-0.702-0.229-1.054-0.703-1.054-1.426c0-0.439,0.17-0.779,0.514-1.017
			c0.342-0.237,0.83-0.355,1.462-0.355h0.687h11.771h0.687c0.631,0,1.118,0.119,1.461,0.355c0.342,0.237,0.515,0.577,0.515,1.017
			c0,0.723-0.353,1.197-1.054,1.426c-0.58,0.194-0.918,0.312-1.016,0.357c-0.097,0.043-0.197,0.145-0.303,0.303
			c-0.211,0.282-0.316,0.729-0.316,1.348v26.396c0,0.615,0.105,1.063,0.316,1.345c0.105,0.158,0.206,0.259,0.303,0.303
			c0.098,0.044,0.436,0.162,1.016,0.355c0.701,0.229,1.054,0.703,1.054,1.424c0,0.439-0.173,0.777-0.515,1.016
			c-0.343,0.236-0.83,0.355-1.461,0.355L213.204,65.405L213.204,65.405z"/>
		<path d="M236.748,65.405h-11.745h-0.687c-0.631,0-1.119-0.119-1.461-0.355c-0.344-0.238-0.515-0.576-0.515-1.016
			c0-0.721,0.353-1.195,1.054-1.424c0.58-0.193,0.918-0.312,1.016-0.355c0.097-0.043,0.197-0.145,0.303-0.303
			c0.211-0.281,0.316-0.729,0.316-1.345V34.212c0-0.617-0.105-1.065-0.316-1.348c-0.105-0.158-0.206-0.26-0.303-0.303
			c-0.098-0.045-0.436-0.163-1.016-0.357c-0.701-0.229-1.054-0.703-1.054-1.426c0-0.439,0.171-0.779,0.515-1.017
			c0.342-0.237,0.83-0.355,1.461-0.355h0.687h11.771h0.899c0.776,0,1.332,0.104,1.668,0.316c0.458,0.282,0.688,0.652,0.688,1.109
			c0,0.775-0.424,1.26-1.271,1.453c-0.688,0.158-1.095,0.264-1.219,0.316c-0.123,0.053-0.256,0.158-0.396,0.316
			c-0.265,0.318-0.396,0.811-0.396,1.479V65.405L236.748,65.405z M238.904,65.405v-2.953c0.859-0.158,1.541-0.334,2.041-0.527
			c0.5-0.193,0.979-0.475,1.436-0.844c0.738-0.58,1.414-1.381,2.029-2.4c0.613-1.02,1.113-2.154,1.501-3.402
			c0.28-0.967,0.54-1.604,0.776-1.912c0.237-0.307,0.584-0.461,1.041-0.461c0.492,0,0.852,0.202,1.08,0.606
			c0.104,0.194,0.157,0.581,0.157,1.161v10.732H238.904z"/>
	</g>
	<g>
		<path d="M31.277,335.163l0.896,3.642l-3.096,11.354c-0.094,0.328-0.14,0.633-0.14,0.914c0,0.738,0.343,1.265,1.031,1.58
			l0.611,0.281c0.384,0.176,0.577,0.469,0.577,0.879c0,0.586-0.429,0.879-1.285,0.879h-4.465c-0.434,0-0.776-0.09-1.028-0.271
			S24,353.988,24,353.672c0-0.34,0.258-0.621,0.773-0.844c0.48-0.211,0.835-0.401,1.063-0.571s0.448-0.401,0.659-0.694
			c0.328-0.479,0.598-1.119,0.809-1.916L31.277,335.163z M32.49,330.691h7.084l4.881,20.658c0.094,0.364,0.199,0.688,0.316,0.969
			c0.105,0.223,0.339,0.404,0.702,0.545c0.304,0.129,0.515,0.258,0.632,0.387s0.176,0.305,0.176,0.527
			c0,0.609-0.455,0.914-1.363,0.914h-8.771c-0.348,0-0.625-0.084-0.834-0.254S35,354.043,35,353.762
			c0-0.232,0.047-0.408,0.141-0.525c0.094-0.116,0.305-0.264,0.633-0.438c0.234-0.116,0.398-0.243,0.492-0.385
			c0.094-0.142,0.141-0.315,0.141-0.527c0-0.196-0.018-0.372-0.054-0.524l-0.575-2.543h-4.904l0.475-2.094h3.938l-3.234-14.307
			L32.49,330.691z"/>
		<path d="M61.708,330.691v24h-7.83H53.42c-0.418,0-0.74-0.08-0.967-0.237c-0.227-0.158-0.34-0.384-0.34-0.677
			c0-0.48,0.233-0.797,0.699-0.949c0.384-0.129,0.608-0.207,0.672-0.236s0.131-0.098,0.201-0.203
			c0.14-0.188,0.209-0.486,0.209-0.896v-17.597c0-0.412-0.07-0.711-0.209-0.897c-0.07-0.104-0.137-0.174-0.201-0.203
			c-0.064-0.028-0.288-0.108-0.672-0.237c-0.466-0.151-0.699-0.47-0.699-0.949c0-0.295,0.113-0.521,0.34-0.678
			c0.227-0.158,0.549-0.238,0.967-0.238h0.457h7.831V330.691z M67.155,342.268c1.054,0.211,1.865,0.416,2.434,0.614
			c0.568,0.199,1.081,0.451,1.538,0.755c0.785,0.504,1.385,1.17,1.801,1.996s0.624,1.748,0.624,2.768
			c0,2.004-0.738,3.567-2.214,4.691c-0.762,0.586-1.602,0.999-2.521,1.239c-0.92,0.239-2.124,0.36-3.611,0.36h-2.093v-1.846
			c0.469-0.035,0.838-0.104,1.107-0.203c0.269-0.099,0.51-0.267,0.721-0.5c0.387-0.435,0.58-1.107,0.58-2.021v-3.988
			c0-0.586-0.05-1.043-0.149-1.371s-0.283-0.627-0.551-0.896c-0.198-0.212-0.414-0.363-0.647-0.457
			c-0.233-0.095-0.565-0.171-0.997-0.229v-1.826c0.431-0.035,0.766-0.095,1.005-0.177c0.239-0.081,0.458-0.217,0.656-0.403
			c0.187-0.176,0.344-0.403,0.472-0.686c0.128-0.281,0.198-0.539,0.21-0.773v-0.967v-3.051c0-0.316-0.053-0.646-0.158-0.992
			c-0.105-0.347-0.234-0.619-0.387-0.818c-0.223-0.27-0.472-0.469-0.747-0.598s-0.647-0.217-1.116-0.264v-1.934h2.023
			c2.672,0,4.711,0.551,6.117,1.654c0.645,0.504,1.137,1.112,1.477,1.828c0.34,0.717,0.51,1.489,0.51,2.321
			c0,0.821-0.173,1.596-0.519,2.321c-0.346,0.729-0.829,1.332-1.45,1.813c-0.457,0.375-0.985,0.68-1.583,0.914
			S68.245,342.021,67.155,342.268z"/>
		<path d="M90.226,330.217v2.129c-0.693,0.106-1.21,0.412-1.551,0.916c-0.341,0.506-0.511,1.227-0.511,2.166v14.52v0.756
			c0,0.27,0.056,0.554,0.167,0.854c0.111,0.299,0.255,0.553,0.432,0.764c0.188,0.234,0.388,0.402,0.6,0.502
			c0.211,0.1,0.5,0.166,0.864,0.201v2.145c-2.277,0-4.255-0.592-5.934-1.775c-1.479-1.045-2.594-2.449-3.345-4.213
			c-0.751-1.766-1.127-3.854-1.127-6.271c0-1.771,0.243-3.421,0.73-4.95c0.487-1.531,1.194-2.857,2.122-3.984
			c0.939-1.137,2.063-2.052,3.372-2.744c1.309-0.69,2.568-1.037,3.777-1.037L90.226,330.217z M91.601,332.363v-2.129
			c0.574,0.093,1.04,0.19,1.397,0.295c0.357,0.105,1.005,0.326,1.942,0.662c0.598,0.209,0.996,0.312,1.195,0.312
			c0.34,0,0.598-0.149,0.773-0.45l0.229-0.414c0.141-0.277,0.404-0.416,0.791-0.416c0.316,0,0.56,0.094,0.729,0.279
			c0.169,0.186,0.255,0.461,0.255,0.822v7.32c0,0.465-0.105,0.804-0.316,1.013c-0.211,0.21-0.451,0.313-0.721,0.313
			c-0.281,0-0.507-0.091-0.677-0.271c-0.17-0.182-0.308-0.479-0.413-0.889c-0.246-0.924-0.486-1.65-0.721-2.179
			c-0.504-1.112-1.078-2.015-1.723-2.706c-0.434-0.469-0.867-0.828-1.301-1.08S92.128,332.434,91.601,332.363z M91.663,355.166
			v-2.145c0.912-0.07,1.872-0.414,2.877-1.035c0.538-0.338,1.018-0.793,1.438-1.359s0.737-1.189,0.948-1.869
			c0.117-0.374,0.254-0.641,0.412-0.799c0.158-0.157,0.365-0.236,0.623-0.236c0.28,0,0.514,0.105,0.702,0.316
			c0.187,0.211,0.281,0.475,0.281,0.789c0,0.527-0.202,1.165-0.605,1.914c-0.403,0.749-0.921,1.439-1.553,2.07
			c-0.772,0.772-1.564,1.348-2.377,1.722S92.681,355.119,91.663,355.166z"/>
		<path d="M115.56,330.691v24h-7.83h-0.457c-0.418,0-0.74-0.08-0.967-0.237c-0.227-0.158-0.34-0.384-0.34-0.677
			c0-0.48,0.233-0.797,0.699-0.949c0.384-0.129,0.608-0.207,0.672-0.236s0.131-0.098,0.201-0.203
			c0.14-0.188,0.209-0.486,0.209-0.896v-17.597c0-0.412-0.07-0.711-0.209-0.897c-0.07-0.104-0.137-0.174-0.201-0.203
			c-0.064-0.028-0.288-0.108-0.672-0.237c-0.466-0.151-0.699-0.47-0.699-0.949c0-0.295,0.113-0.521,0.34-0.678
			c0.227-0.158,0.549-0.238,0.967-0.238h0.457h7.83V330.691z M119.091,349.664v-13.875c0-0.855-0.123-1.535-0.369-2.039
			c-0.152-0.328-0.34-0.568-0.562-0.721c-0.222-0.153-0.574-0.281-1.055-0.387v-1.951c0.621,0,1.148,0.022,1.582,0.07
			c1.488,0.163,2.929,0.797,4.324,1.897c1.382,1.067,2.407,2.457,3.075,4.168c0.691,1.733,1.037,3.655,1.037,5.767
			c0,2.393-0.439,4.518-1.318,6.374c-0.879,1.857-2.138,3.32-3.778,4.388c-0.797,0.516-1.538,0.867-2.223,1.055
			c-0.685,0.188-1.585,0.281-2.698,0.281v-1.898c0.492-0.129,0.835-0.246,1.028-0.352c0.193-0.106,0.36-0.271,0.501-0.492
			c0.176-0.258,0.296-0.549,0.36-0.87C119.059,350.757,119.091,350.285,119.091,349.664z"/>
		<path d="M143.26,330.691v24h-7.83h-0.457c-0.418,0-0.74-0.08-0.967-0.237c-0.227-0.158-0.34-0.384-0.34-0.677
			c0-0.48,0.233-0.797,0.699-0.949c0.384-0.129,0.608-0.207,0.672-0.236s0.131-0.098,0.201-0.203
			c0.14-0.188,0.209-0.486,0.209-0.896v-17.597c0-0.412-0.07-0.711-0.209-0.897c-0.07-0.104-0.137-0.174-0.201-0.203
			c-0.064-0.028-0.288-0.108-0.672-0.237c-0.466-0.151-0.699-0.47-0.699-0.949c0-0.295,0.113-0.521,0.34-0.678
			c0.227-0.158,0.549-0.238,0.967-0.238h0.457h7.83V330.691z M144.697,343.496v-2.038c0.681-0.328,1.186-0.687,1.515-1.071
			c0.329-0.388,0.569-0.904,0.722-1.549c0.094-0.445,0.217-0.753,0.37-0.923c0.152-0.17,0.37-0.255,0.652-0.255
			c0.375,0,0.634,0.146,0.775,0.439c0.082,0.151,0.123,0.498,0.123,1.039v6.694c0,0.548-0.062,0.927-0.185,1.138
			c-0.123,0.209-0.349,0.313-0.678,0.313c-0.271,0-0.482-0.082-0.634-0.246c-0.153-0.163-0.276-0.438-0.37-0.824
			c-0.2-0.807-0.484-1.426-0.854-1.858C145.762,343.924,145.284,343.637,144.697,343.496z M144.791,330.691h7.094v6.231
			c0,0.356-0.071,0.615-0.211,0.776c-0.14,0.16-0.364,0.24-0.668,0.24c-0.259,0-0.447-0.053-0.564-0.157
			c-0.117-0.104-0.229-0.32-0.334-0.648c-0.446-1.354-1.101-2.391-1.963-3.104c-0.862-0.713-1.98-1.139-3.353-1.278L144.791,330.691
			L144.791,330.691z M144.822,354.691v-1.896c0.762-0.117,1.392-0.281,1.89-0.492s0.999-0.533,1.503-0.967
			c0.504-0.434,0.905-0.881,1.204-1.343s0.583-1.074,0.853-1.836c0.129-0.374,0.264-0.63,0.404-0.765
			c0.14-0.135,0.334-0.201,0.58-0.201c0.328,0,0.557,0.097,0.686,0.289c0.129,0.193,0.193,0.531,0.193,1.011v6.2H144.822
			L144.822,354.691z"/>
		<path d="M168.745,330.691v20.66c0,0.457,0.088,0.785,0.265,0.983c0.094,0.117,0.182,0.19,0.265,0.222
			c0.082,0.028,0.353,0.102,0.812,0.219c0.564,0.129,0.847,0.451,0.847,0.967c0,0.305-0.153,0.551-0.458,0.738
			c-0.224,0.141-0.594,0.211-1.112,0.211h-0.6h-7.848h-0.457c-0.418,0-0.74-0.08-0.967-0.237c-0.227-0.158-0.34-0.384-0.34-0.677
			c0-0.48,0.233-0.797,0.699-0.949c0.384-0.129,0.608-0.207,0.672-0.236s0.131-0.098,0.201-0.203
			c0.14-0.188,0.209-0.486,0.209-0.896v-17.597c0-0.412-0.07-0.711-0.209-0.897c-0.07-0.104-0.137-0.174-0.201-0.203
			c-0.064-0.028-0.288-0.108-0.672-0.237c-0.466-0.151-0.699-0.47-0.699-0.949c0-0.295,0.113-0.521,0.34-0.678
			c0.227-0.158,0.549-0.238,0.967-0.238h0.457h7.829V330.691z M170.182,343.496v-2.038c0.692-0.328,1.2-0.683,1.523-1.063
			c0.323-0.381,0.561-0.899,0.713-1.557c0.094-0.445,0.217-0.753,0.37-0.923c0.152-0.17,0.37-0.255,0.652-0.255
			c0.375,0,0.634,0.146,0.775,0.439c0.082,0.151,0.123,0.498,0.123,1.039v6.694c0,0.548-0.062,0.927-0.185,1.138
			c-0.123,0.209-0.349,0.313-0.678,0.313c-0.271,0-0.482-0.082-0.634-0.246c-0.153-0.163-0.276-0.438-0.37-0.824
			c-0.211-0.807-0.499-1.426-0.863-1.858C171.244,343.924,170.769,343.637,170.182,343.496z M170.245,330.691h7.094v6.145
			c0,0.393-0.071,0.674-0.211,0.848c-0.14,0.172-0.37,0.258-0.687,0.258c-0.235,0-0.42-0.061-0.555-0.184
			c-0.135-0.123-0.249-0.33-0.343-0.623c-0.176-0.572-0.405-1.098-0.687-1.578c-0.282-0.479-0.599-0.889-0.951-1.227
			c-0.481-0.469-1.009-0.824-1.584-1.07c-0.575-0.244-1.267-0.414-2.077-0.508L170.245,330.691L170.245,330.691z"/>
		<path d="M193.022,330.217v1.953c-1.021,0.247-1.531,1.068-1.531,2.465v16.366c0,0.633,0.087,1.119,0.261,1.458
			c0.15,0.281,0.47,0.521,0.958,0.721v1.986c-0.375,0-0.718-0.029-1.028-0.088s-0.724-0.176-1.239-0.352
			c-1.23-0.422-2.344-1.066-3.34-1.935s-1.816-1.905-2.461-3.112c-0.996-1.888-1.494-4.119-1.494-6.699
			c0-2.496,0.445-4.711,1.335-6.646s2.167-3.452,3.831-4.555c0.96-0.646,1.991-1.107,3.092-1.39
			C191.863,330.275,192.401,330.217,193.022,330.217z M202.43,351.758c-0.471,0.469-1.095,0.945-1.873,1.432
			c-0.781,0.486-1.517,0.869-2.208,1.15c-0.633,0.246-1.334,0.445-2.102,0.598s-1.445,0.229-2.031,0.229v-1.985
			c0.34-0.082,0.595-0.183,0.765-0.3c0.17-0.116,0.313-0.28,0.431-0.491c0.199-0.363,0.299-0.826,0.299-1.39v-5.127
			c0-0.457-0.088-0.785-0.263-0.983c-0.082-0.117-0.164-0.189-0.245-0.22c-0.082-0.028-0.351-0.097-0.807-0.202
			c-0.561-0.141-0.841-0.468-0.841-0.982c0-0.305,0.131-0.539,0.395-0.703c0.263-0.164,0.651-0.246,1.166-0.246h0.579h6.438
			c0.532,0,0.907,0.072,1.126,0.22c0.22,0.147,0.329,0.401,0.329,0.765c0,0.224-0.044,0.406-0.134,0.554
			c-0.088,0.146-0.252,0.302-0.488,0.466c-0.237,0.164-0.387,0.314-0.444,0.456c-0.061,0.142-0.09,0.397-0.09,0.772v5.988H202.43z
			 M194.46,332.135v-1.9c1.91,0.177,3.481,0.527,4.712,1.056c0.363,0.164,0.645,0.246,0.844,0.246c0.188,0,0.332-0.043,0.433-0.132
			c0.1-0.088,0.301-0.336,0.604-0.743c0.211-0.291,0.475-0.438,0.793-0.438c0.327,0,0.559,0.092,0.693,0.271
			c0.134,0.18,0.202,0.48,0.202,0.9v6.848c0,0.883-0.328,1.324-0.984,1.324c-0.329,0-0.571-0.088-0.729-0.265
			c-0.157-0.176-0.309-0.521-0.448-1.036c-0.177-0.654-0.492-1.42-0.949-2.291c-0.457-0.873-0.896-1.562-1.318-2.064
			c-0.48-0.586-1.02-1.016-1.618-1.291C196.096,332.344,195.351,332.182,194.46,332.135z"/>
		<path d="M220.533,354.691h-7.848h-0.457c-0.418,0-0.74-0.08-0.967-0.237c-0.228-0.158-0.341-0.384-0.341-0.677
			c0-0.48,0.231-0.797,0.699-0.949c0.383-0.129,0.606-0.207,0.672-0.236c0.063-0.029,0.131-0.098,0.201-0.203
			c0.139-0.188,0.209-0.486,0.209-0.896v-17.597c0-0.412-0.07-0.711-0.209-0.897c-0.07-0.104-0.138-0.174-0.201-0.203
			c-0.063-0.028-0.289-0.108-0.672-0.237c-0.468-0.151-0.699-0.47-0.699-0.949c0-0.295,0.113-0.521,0.341-0.678
			c0.227-0.158,0.549-0.238,0.967-0.238h0.457h7.848h0.457c0.828,0,1.244,0.305,1.244,0.916c0,0.492-0.223,0.81-0.666,0.949
			l-0.545,0.176c-0.338,0.119-0.508,0.506-0.508,1.162v17.598c0,0.656,0.17,1.043,0.508,1.16l0.545,0.176
			c0.443,0.141,0.666,0.457,0.666,0.949c0,0.609-0.416,0.914-1.244,0.914h-0.457V354.691z M222.016,341.566h2.844v-7.672
			c0-0.656-0.168-1.043-0.504-1.162l-0.555-0.176c-0.439-0.141-0.66-0.457-0.66-0.949c0-0.611,0.416-0.916,1.248-0.916h0.453h7.83
			h0.475c0.871,0,1.308,0.305,1.308,0.916c0,0.479-0.231,0.798-0.699,0.949c-0.384,0.129-0.606,0.209-0.672,0.237
			c-0.065,0.029-0.131,0.099-0.201,0.203c-0.139,0.188-0.209,0.485-0.209,0.897v17.529c0,0.645,0.177,1.037,0.527,1.178l0.557,0.191
			c0.466,0.152,0.697,0.475,0.697,0.967c0,0.619-0.437,0.93-1.308,0.93h-0.475h-7.83h-0.488c-0.809,0-1.213-0.311-1.213-0.93
			c0-0.492,0.221-0.813,0.66-0.967l0.555-0.191c0.336-0.105,0.504-0.498,0.504-1.178v-8.109h-2.844V341.566z"/>
		<path d="M251.721,354.691h-7.848h-0.457c-0.418,0-0.74-0.08-0.967-0.237c-0.227-0.158-0.34-0.384-0.34-0.677
			c0-0.48,0.232-0.797,0.699-0.949c0.383-0.129,0.606-0.207,0.672-0.236c0.064-0.029,0.131-0.098,0.201-0.203
			c0.139-0.188,0.209-0.486,0.209-0.896v-17.597c0-0.412-0.07-0.711-0.209-0.897c-0.07-0.104-0.138-0.174-0.201-0.203
			c-0.064-0.028-0.289-0.108-0.672-0.237c-0.467-0.151-0.699-0.47-0.699-0.949c0-0.295,0.113-0.521,0.34-0.678
			c0.227-0.158,0.549-0.238,0.967-0.238h0.457h7.848h0.457c0.418,0,0.74,0.08,0.967,0.238c0.228,0.157,0.34,0.383,0.34,0.678
			c0,0.479-0.231,0.798-0.697,0.949c-0.385,0.129-0.607,0.209-0.674,0.237c-0.063,0.029-0.131,0.099-0.199,0.203
			c-0.141,0.188-0.21,0.485-0.21,0.897v17.597c0,0.409,0.069,0.709,0.21,0.896c0.068,0.105,0.137,0.174,0.199,0.203
			c0.064,0.029,0.289,0.107,0.674,0.236c0.466,0.152,0.697,0.469,0.697,0.949c0,0.293-0.112,0.519-0.34,0.677
			c-0.227,0.157-0.549,0.237-0.967,0.237H251.721L251.721,354.691z"/>
		<path d="M265.302,353.109v1.934c-1.466-0.234-2.638-0.639-3.517-1.213c-0.797-0.527-1.416-1.174-1.855-1.941
			c-0.438-0.767-0.658-1.591-0.658-2.47c0-1.065,0.365-1.979,1.1-2.741s1.609-1.143,2.631-1.143c0.975,0,1.805,0.343,2.489,1.027
			c0.688,0.687,1.03,1.51,1.03,2.471c0,0.75-0.252,1.445-0.756,2.091c-0.34,0.435-0.83,0.791-1.475,1.071
			c-0.211,0.104-0.32,0.188-0.333,0.246c-0.013,0.058,0.038,0.133,0.147,0.221c0.11,0.088,0.248,0.166,0.41,0.236
			C264.691,352.969,264.953,353.039,265.302,353.109z M268.021,350.666v-16.619c0-0.727-0.211-1.137-0.633-1.23l-0.687-0.174
			c-0.562-0.142-0.845-0.463-0.845-0.967c0-0.316,0.133-0.554,0.396-0.712c0.264-0.157,0.653-0.237,1.169-0.237l0.58-0.018h7.822
			l0.475-0.018l0.634,0.069c0.457,0.13,0.686,0.416,0.686,0.861c0,0.469-0.234,0.785-0.703,0.948l-0.563,0.177
			c-0.352,0.116-0.526,0.504-0.526,1.16V348.6c0,2.145-0.703,3.777-2.109,4.902c-0.668,0.527-1.518,0.939-2.549,1.239
			c-1.031,0.299-2.121,0.448-3.271,0.448c-0.198,0-0.539-0.016-1.02-0.043v-2.039c0.082-0.06,0.141-0.101,0.176-0.123
			c0.234-0.176,0.401-0.318,0.502-0.43c0.1-0.113,0.185-0.25,0.254-0.414C267.95,351.756,268.021,351.264,268.021,350.666z"/>
		<path d="M294.352,354.691h-7.848h-0.457c-0.418,0-0.74-0.08-0.967-0.237c-0.227-0.158-0.34-0.384-0.34-0.677
			c0-0.48,0.232-0.797,0.697-0.949c0.385-0.129,0.608-0.207,0.672-0.236c0.064-0.029,0.132-0.098,0.201-0.203
			c0.141-0.188,0.211-0.486,0.211-0.896v-17.597c0-0.412-0.07-0.711-0.211-0.897c-0.069-0.104-0.138-0.174-0.201-0.203
			c-0.063-0.028-0.287-0.108-0.672-0.237c-0.465-0.151-0.697-0.47-0.697-0.949c0-0.295,0.113-0.521,0.34-0.678
			c0.227-0.158,0.549-0.238,0.967-0.238h0.457h7.848h0.457c0.418,0,0.74,0.08,0.967,0.238c0.228,0.157,0.341,0.383,0.341,0.678
			c0,0.479-0.233,0.798-0.699,0.949c-0.385,0.129-0.608,0.209-0.672,0.237c-0.063,0.029-0.132,0.099-0.201,0.203
			c-0.14,0.188-0.209,0.485-0.209,0.897v17.597c0,0.655,0.169,1.043,0.508,1.159l0.544,0.177c0.444,0.141,0.668,0.457,0.668,0.948
			c0,0.609-0.416,0.914-1.244,0.914H294.352L294.352,354.691z M301.314,337.662l5.319,13.883c0.142,0.375,0.287,0.66,0.439,0.854
			c0.151,0.194,0.353,0.343,0.6,0.447c0.246,0.117,0.404,0.205,0.477,0.264c0.164,0.164,0.247,0.382,0.247,0.65
			c0,0.621-0.445,0.932-1.334,0.932h-8.842c-0.425,0-0.752-0.088-0.98-0.264c-0.229-0.176-0.344-0.428-0.344-0.756
			c0-0.375,0.22-0.668,0.66-0.879c0.272-0.129,0.457-0.238,0.553-0.326s0.148-0.207,0.162-0.359c0-0.082-0.049-0.27-0.143-0.563
			l-2.26-6.716c-0.212-0.621-0.317-1.147-0.317-1.583c0-0.41,0.171-0.855,0.511-1.336l4.203-5.926c0.398-0.551,0.6-1.125,0.6-1.724
			c0-0.327-0.09-0.633-0.268-0.913c-0.179-0.281-0.414-0.481-0.709-0.6l-0.64-0.264c-0.401-0.164-0.604-0.439-0.604-0.826
			c0-0.316,0.125-0.574,0.373-0.773c0.166-0.129,0.438-0.193,0.818-0.193h6.258c0.41,0,0.729,0.093,0.957,0.273
			c0.229,0.182,0.344,0.438,0.344,0.766c0,0.492-0.27,0.846-0.809,1.057l-0.932,0.37c-0.387,0.141-0.879,0.456-1.478,0.95
			c-0.444,0.375-0.995,1.002-1.651,1.884L301.314,337.662z"/>
		<path d="M324.766,354.691h-7.83h-0.457c-0.418,0-0.739-0.08-0.967-0.237c-0.227-0.158-0.34-0.384-0.34-0.677
			c0-0.48,0.232-0.797,0.699-0.949c0.383-0.129,0.606-0.207,0.672-0.236c0.063-0.029,0.131-0.098,0.201-0.203
			c0.139-0.188,0.209-0.486,0.209-0.896v-17.597c0-0.412-0.07-0.711-0.209-0.897c-0.07-0.104-0.138-0.174-0.201-0.203
			c-0.064-0.028-0.289-0.108-0.672-0.237c-0.467-0.151-0.699-0.47-0.699-0.949c0-0.295,0.113-0.521,0.34-0.678
			c0.228-0.158,0.549-0.238,0.967-0.238h0.457h7.849h0.6c0.519,0,0.89,0.07,1.111,0.211c0.307,0.188,0.459,0.436,0.459,0.74
			c0,0.516-0.282,0.838-0.847,0.967c-0.459,0.106-0.729,0.178-0.813,0.213s-0.171,0.104-0.265,0.211
			c-0.178,0.211-0.266,0.54-0.266,0.986L324.766,354.691L324.766,354.691z M326.172,354.691v-1.973
			c0.574-0.104,1.029-0.223,1.363-0.353s0.653-0.316,0.959-0.562c0.492-0.388,0.943-0.923,1.354-1.603
			c0.41-0.683,0.744-1.438,1.003-2.271c0.188-0.646,0.36-1.07,0.52-1.275s0.39-0.309,0.695-0.309c0.327,0,0.567,0.135,0.721,0.403
			c0.07,0.13,0.104,0.39,0.104,0.774v7.164h-6.719V354.691z"/>
		<path d="M347.932,330.691l3.463,9.869l1.529-5.326v5.836l-4.061,13.621h-0.933l-6.832-20.237
			c-0.233-0.681-0.479-1.138-0.737-1.372c-0.153-0.152-0.418-0.264-0.793-0.334c-0.765-0.164-1.146-0.527-1.146-1.09
			c0-0.305,0.109-0.542,0.329-0.713c0.22-0.17,0.536-0.254,0.952-0.254H347.932L347.932,330.691z M341.111,338.787l1.875,5.307v5.29
			c0,0.539,0.021,0.927,0.062,1.16s0.133,0.491,0.274,0.772c0.247,0.516,0.589,0.901,1.024,1.16l0.654,0.422
			c0.447,0.27,0.672,0.567,0.672,0.896c0,0.599-0.445,0.896-1.334,0.896h-4.424c-0.87,0-1.305-0.293-1.305-0.879
			c0-0.188,0.036-0.33,0.112-0.43s0.226-0.215,0.446-0.344c1.294-0.703,1.94-1.921,1.94-3.655v-10.595H341.111z M354.393,330.691
			h7.813h0.475c0.871,0,1.308,0.305,1.308,0.916c0,0.479-0.232,0.797-0.699,0.949c-0.384,0.129-0.607,0.209-0.672,0.237
			c-0.065,0.029-0.131,0.099-0.201,0.203c-0.139,0.188-0.209,0.485-0.209,0.897v17.597c0,0.409,0.07,0.709,0.209,0.896
			c0.07,0.105,0.137,0.174,0.201,0.203c0.063,0.029,0.288,0.107,0.672,0.236c0.467,0.152,0.699,0.469,0.699,0.949
			c0,0.608-0.437,0.914-1.308,0.914h-0.475h-7.83h-0.578c-0.515,0-0.903-0.08-1.166-0.237c-0.264-0.158-0.395-0.396-0.395-0.712
			c0-0.516,0.279-0.838,0.842-0.967c0.455-0.117,0.725-0.189,0.807-0.219c0.081-0.029,0.162-0.099,0.244-0.203
			c0.176-0.211,0.264-0.545,0.264-1.002V330.691L354.393,330.691z"/>
	</g>
	<g>
		<path d="M28.031,379.871l1.875,3.094v9.419c0,0.82,0.138,1.494,0.415,2.021c0.277,0.527,0.715,0.961,1.315,1.301l0.53,0.299
			c0.306,0.176,0.459,0.439,0.459,0.791c0,0.271-0.112,0.492-0.336,0.668c-0.189,0.152-0.579,0.229-1.169,0.229h-4.072
			c-1.073,0-1.609-0.306-1.609-0.915c0-0.211,0.056-0.377,0.167-0.5s0.356-0.291,0.732-0.502c1.129-0.621,1.694-1.75,1.694-3.392
			v-12.513H28.031z M35.398,373.691l9.352,16.25v7.75h-4.799L28.014,377.12c-0.258-0.445-0.469-0.757-0.633-0.933
			c-0.164-0.177-0.375-0.306-0.633-0.388l-0.668-0.245c-0.176-0.06-0.316-0.164-0.422-0.316c-0.106-0.152-0.158-0.322-0.158-0.51
			c0-0.199,0.053-0.385,0.158-0.555s0.247-0.29,0.422-0.359c0.199-0.082,0.739-0.123,1.619-0.123H35.398z M44.75,387.129
			l-1.875-3.146v-4.869c0-0.985-0.144-1.739-0.43-2.262c-0.286-0.523-0.792-0.972-1.516-1.348c-0.246-0.117-0.415-0.242-0.508-0.378
			c-0.094-0.135-0.14-0.31-0.14-0.521c0-0.316,0.102-0.549,0.306-0.694s0.533-0.222,0.987-0.222h4.406
			c0.603,0,0.998,0.095,1.187,0.281c0.201,0.188,0.301,0.412,0.301,0.67c0,0.246-0.056,0.433-0.168,0.556
			c-0.112,0.122-0.379,0.29-0.803,0.501c-0.624,0.316-1.095,0.804-1.412,1.462c-0.224,0.479-0.335,1.133-0.335,1.953V387.129z"/>
		<path d="M63.213,375.117c-0.594,0.212-1.014,0.5-1.258,0.863c-0.244,0.362-0.367,0.896-0.367,1.602v15.716
			c0,1.031,0.14,1.757,0.419,2.179c0.221,0.353,0.623,0.604,1.206,0.756v1.935c-2.603-0.211-4.783-1.188-6.541-2.937
			c-2.286-2.273-3.428-5.444-3.428-9.513c0-2.038,0.302-3.882,0.905-5.528c0.603-1.647,1.498-3.045,2.681-4.194
			c0.902-0.879,1.875-1.547,2.918-2.004s2.198-0.716,3.464-0.773L63.213,375.117L63.213,375.117z M64.651,375.117v-1.9
			c1.268,0.059,2.426,0.316,3.477,0.773c1.05,0.457,2.027,1.125,2.932,2.004c2.394,2.334,3.591,5.574,3.591,9.724
			c0,4.067-1.145,7.238-3.433,9.513c-1.761,1.759-3.95,2.736-6.567,2.937v-1.935c0.305-0.069,0.543-0.159,0.713-0.271
			c0.17-0.11,0.326-0.272,0.467-0.483c0.317-0.479,0.476-1.207,0.476-2.18v-15.716c0-0.622-0.106-1.114-0.317-1.479
			c-0.141-0.246-0.309-0.438-0.502-0.58C65.294,375.383,65.015,375.247,64.651,375.117z"/>
		<path d="M90.778,373.691v20.66c0,0.457,0.088,0.785,0.265,0.983c0.094,0.117,0.182,0.19,0.265,0.222
			c0.082,0.028,0.353,0.102,0.812,0.219c0.564,0.129,0.847,0.451,0.847,0.967c0,0.305-0.153,0.551-0.458,0.738
			c-0.224,0.141-0.594,0.211-1.112,0.211h-0.6h-7.848h-0.457c-0.418,0-0.74-0.079-0.967-0.237s-0.34-0.384-0.34-0.677
			c0-0.48,0.233-0.797,0.699-0.949c0.384-0.129,0.608-0.207,0.672-0.236s0.131-0.098,0.201-0.203
			c0.14-0.188,0.209-0.486,0.209-0.896v-17.597c0-0.412-0.07-0.711-0.209-0.897c-0.07-0.104-0.137-0.174-0.201-0.203
			c-0.064-0.028-0.288-0.108-0.672-0.237c-0.466-0.151-0.699-0.47-0.699-0.949c0-0.295,0.113-0.521,0.34-0.678
			c0.227-0.158,0.549-0.238,0.967-0.238h0.457h7.829V373.691z M92.247,388.5v-1.881c0.504-0.117,0.858-0.24,1.063-0.369
			s0.384-0.328,0.536-0.598c0.246-0.457,0.369-1.071,0.369-1.846v-5.634c0-0.551-0.041-0.961-0.123-1.229
			c-0.082-0.27-0.246-0.517-0.492-0.738c-0.34-0.328-0.797-0.533-1.371-0.615v-1.898c2.415,0,4.198,0.229,5.347,0.687
			c1.325,0.528,2.374,1.338,3.148,2.429c0.785,1.112,1.178,2.479,1.178,4.098c0,1.806-0.399,3.283-1.196,4.432
			c-0.798,1.139-1.912,1.977-3.342,2.516C96.181,388.283,94.475,388.5,92.247,388.5z"/>
		<path d="M117.757,375.117c-0.594,0.212-1.014,0.5-1.258,0.863c-0.244,0.362-0.367,0.896-0.367,1.602v15.716
			c0,1.031,0.14,1.757,0.419,2.179c0.221,0.353,0.623,0.604,1.206,0.756v1.935c-2.603-0.211-4.783-1.188-6.541-2.937
			c-2.286-2.273-3.428-5.444-3.428-9.513c0-2.038,0.302-3.882,0.905-5.528c0.603-1.647,1.498-3.045,2.681-4.194
			c0.902-0.879,1.875-1.547,2.918-2.004s2.198-0.716,3.464-0.773L117.757,375.117L117.757,375.117z M125.27,395.688
			c0.433,0.42,1.006,0.629,1.72,0.629c0.409,0,0.778-0.072,1.106-0.221c0.292-0.123,0.497-0.186,0.614-0.186
			c0.14,0,0.271,0.078,0.395,0.236c0.123,0.157,0.185,0.33,0.185,0.518c0,0.375-0.281,0.767-0.844,1.176
			c-1.008,0.713-2.044,1.07-3.11,1.07c-1.406,0-2.525-0.43-3.357-1.289c-0.778,0.281-1.695,0.469-2.751,0.562v-1.95
			c0.253-0.06,0.441-0.119,0.562-0.185s0.256-0.174,0.406-0.325l-0.14-0.142c-0.315-0.388-0.572-0.653-0.771-0.801
			c-0.199-0.146-0.438-0.244-0.718-0.291c-0.362-0.07-0.592-0.126-0.691-0.167c-0.1-0.041-0.184-0.114-0.254-0.221
			c-0.117-0.142-0.175-0.312-0.175-0.512c0-0.328,0.14-0.587,0.419-0.775c0.279-0.188,0.658-0.28,1.136-0.28
			c0.384,0,0.713,0.034,0.987,0.106c0.273,0.07,0.562,0.195,0.865,0.375V377.58c0-0.622-0.104-1.115-0.311-1.479
			c-0.139-0.246-0.303-0.439-0.493-0.58c-0.19-0.142-0.464-0.276-0.821-0.406v-1.9c1.264,0.059,2.419,0.316,3.466,0.773
			c1.047,0.457,2.021,1.126,2.922,2.005c2.387,2.345,3.581,5.591,3.581,9.741C129.195,390.016,127.886,393.332,125.27,395.688z"/>
		<path d="M145.439,373.691v20.66c0,0.457,0.088,0.785,0.265,0.983c0.094,0.117,0.182,0.19,0.265,0.222
			c0.082,0.028,0.353,0.102,0.812,0.219c0.564,0.129,0.847,0.451,0.847,0.967c0,0.305-0.153,0.551-0.458,0.738
			c-0.224,0.141-0.594,0.211-1.112,0.211h-0.6h-7.848h-0.457c-0.418,0-0.74-0.079-0.967-0.237s-0.34-0.384-0.34-0.677
			c0-0.48,0.233-0.797,0.699-0.949c0.384-0.129,0.608-0.207,0.672-0.236s0.131-0.098,0.201-0.203
			c0.14-0.188,0.209-0.486,0.209-0.896v-17.597c0-0.412-0.07-0.711-0.209-0.897c-0.07-0.104-0.137-0.174-0.201-0.203
			c-0.064-0.028-0.288-0.108-0.672-0.237c-0.466-0.151-0.699-0.47-0.699-0.949c0-0.295,0.113-0.521,0.34-0.678
			c0.227-0.158,0.549-0.238,0.967-0.238h0.457h7.829V373.691z M150.808,385.934c1.08,0.164,1.911,0.346,2.492,0.545
			s1.106,0.47,1.576,0.81c0.493,0.362,0.872,0.797,1.136,1.301c0.264,0.504,0.396,1.037,0.396,1.601v3.638
			c0,0.368,0.124,0.554,0.371,0.554c0.094,0,0.174-0.025,0.239-0.078c0.064-0.051,0.156-0.152,0.274-0.303
			c0.294-0.393,0.595-0.588,0.901-0.588c0.2,0,0.401,0.105,0.601,0.314c0.2,0.211,0.301,0.422,0.301,0.631
			c0,0.362-0.173,0.805-0.52,1.324c-0.347,0.521-0.779,0.983-1.296,1.394c-0.482,0.386-1.005,0.663-1.569,0.833
			c-0.564,0.169-1.228,0.254-1.992,0.254c-1.552,0-2.762-0.441-3.632-1.325s-1.304-2.114-1.304-3.694v-2.953
			c0-0.655-0.006-1.037-0.018-1.143c-0.059-0.469-0.223-0.873-0.492-1.213c-0.34-0.41-0.826-0.65-1.459-0.721v-1.881
			c0.633-0.094,1.084-0.258,1.354-0.492c0.234-0.211,0.396-0.449,0.483-0.719c0.087-0.271,0.132-0.668,0.132-1.195v-4.668
			c0-0.738-0.144-1.289-0.431-1.652s-0.806-0.65-1.556-0.861v-1.951h0.458c1.303,0,2.412,0.047,3.327,0.142
			c1.361,0.129,2.576,0.574,3.645,1.337c1.538,1.091,2.307,2.645,2.307,4.661c0,1.653-0.517,3.008-1.55,4.063
			c-0.435,0.445-0.943,0.81-1.524,1.09C152.877,385.268,151.994,385.582,150.808,385.934z"/>
		<path d="M173.436,373.217v2.023c-0.722,0.199-1.272,0.508-1.651,0.924s-0.568,0.929-0.568,1.538c0,0.586,0.158,1.099,0.475,1.538
			s0.832,0.859,1.547,1.258c0.492,0.27,1.605,0.785,3.34,1.547c1.055,0.457,1.872,0.87,2.452,1.239
			c0.58,0.368,1.128,0.829,1.644,1.38c1.383,1.453,2.074,3.182,2.074,5.186c0,1.514-0.375,2.896-1.125,4.15
			s-1.781,2.238-3.093,2.953c-0.703,0.375-1.474,0.671-2.311,0.888c-0.838,0.217-1.62,0.325-2.346,0.325v-2.004
			c1.017-0.246,1.75-0.588,2.2-1.027c0.45-0.438,0.675-1.035,0.675-1.785c0-0.785-0.352-1.477-1.055-2.074
			c-0.469-0.387-1.359-0.867-2.672-1.442c-1.441-0.633-2.429-1.084-2.962-1.354c-0.533-0.27-1.046-0.586-1.538-0.948
			c-2.203-1.57-3.305-3.662-3.305-6.277c0-1.336,0.275-2.569,0.825-3.7c0.55-1.132,1.317-2.044,2.301-2.734
			C169.713,373.855,171.411,373.322,173.436,373.217z M172.53,396.162v2.004c-0.961,0-2.021-0.272-3.182-0.817
			c-0.434-0.196-0.732-0.324-0.896-0.383c-0.164-0.058-0.322-0.087-0.475-0.087c-0.234,0-0.41,0.038-0.527,0.113
			c-0.117,0.076-0.305,0.264-0.562,0.565c-0.211,0.256-0.439,0.384-0.686,0.384c-0.656,0-0.984-0.506-0.984-1.517v-6.396
			c0-0.324,0.094-0.6,0.281-0.825s0.422-0.345,0.703-0.356c0.258-0.012,0.46,0.063,0.606,0.219c0.146,0.158,0.272,0.438,0.378,0.834
			c0.27,1.007,0.659,1.947,1.169,2.824c0.51,0.877,1.104,1.619,1.784,2.229C170.831,395.584,171.627,395.986,172.53,396.162z
			 M174.842,375.24v-1.936c0.704,0.047,1.314,0.139,1.831,0.275c0.516,0.137,1.25,0.406,2.2,0.813
			c0.234,0.096,0.428,0.143,0.581,0.143c0.223,0,0.387-0.076,0.493-0.229l0.387-0.511c0.188-0.258,0.417-0.387,0.687-0.387
			c0.317,0,0.549,0.112,0.695,0.34c0.146,0.226,0.22,0.582,0.22,1.067v5.81c0,0.34-0.097,0.617-0.291,0.834
			s-0.443,0.324-0.748,0.324c-0.235,0-0.452-0.076-0.651-0.229c-0.105-0.094-0.191-0.209-0.255-0.344
			c-0.064-0.135-0.126-0.359-0.185-0.677c-0.129-0.575-0.353-1.167-0.669-1.776c-0.317-0.609-0.687-1.156-1.109-1.637
			C177.183,376.174,176.121,375.546,174.842,375.24z"/>
		<path d="M189.142,373.691h4.625v2.131c-0.551,0.316-0.979,0.721-1.284,1.214c-0.504,0.798-0.844,1.743-1.02,2.834l-0.176,1.073
			c-0.059,0.341-0.185,0.606-0.378,0.801c-0.193,0.193-0.437,0.291-0.729,0.291c-0.305,0-0.554-0.105-0.748-0.316
			c-0.194-0.211-0.29-0.486-0.29-0.826V373.691z M203.018,373.691v20.66c0,0.457,0.088,0.785,0.265,0.983
			c0.094,0.117,0.182,0.19,0.265,0.222c0.082,0.028,0.354,0.102,0.813,0.219c0.563,0.129,0.847,0.451,0.847,0.967
			c0,0.305-0.153,0.551-0.458,0.738c-0.225,0.141-0.602,0.211-1.13,0.211h-0.582h-7.848h-0.579c-0.514,0-0.903-0.079-1.166-0.237
			c-0.263-0.158-0.395-0.396-0.395-0.712c0-0.516,0.28-0.838,0.841-0.967c0.456-0.117,0.725-0.189,0.807-0.219
			s0.163-0.104,0.245-0.222c0.175-0.198,0.263-0.526,0.263-0.983v-20.66H203.018z M209.079,373.691v7.199
			c0,0.342-0.097,0.616-0.29,0.827c-0.193,0.212-0.443,0.316-0.748,0.316c-0.293,0-0.536-0.097-0.729-0.291
			c-0.193-0.193-0.319-0.46-0.379-0.802l-0.176-1.072c-0.176-1.092-0.516-2.036-1.02-2.834c-0.316-0.493-0.745-0.896-1.284-1.214
			v-2.132h4.625V373.691z"/>
		<path d="M217.092,390.68v-13.783c0-0.412-0.07-0.711-0.209-0.897c-0.07-0.104-0.138-0.174-0.201-0.203
			c-0.063-0.028-0.289-0.108-0.672-0.237c-0.467-0.151-0.699-0.463-0.699-0.933c0-0.306,0.113-0.537,0.34-0.694
			c0.229-0.158,0.552-0.238,0.971-0.238h0.454h7.848h0.457l0.634,0.07c0.194,0.059,0.356,0.163,0.483,0.315
			c0.126,0.153,0.188,0.336,0.188,0.547c0,0.469-0.231,0.78-0.699,0.933c-0.383,0.129-0.606,0.209-0.672,0.237
			c-0.064,0.029-0.131,0.099-0.201,0.203c-0.139,0.188-0.209,0.485-0.209,0.897v14.748c0,0.996,0.027,1.69,0.08,2.084
			c0.053,0.393,0.16,0.746,0.324,1.063c0.152,0.293,0.322,0.504,0.51,0.633c0.188,0.129,0.545,0.275,1.072,0.439v2.303h-0.387
			c-1.525,0-2.791-0.135-3.8-0.404c-1.185-0.315-2.224-0.785-3.114-1.406s-1.525-1.316-1.9-2.09
			C217.291,393.443,217.092,392.25,217.092,390.68z M228.498,398.166v-2.303c1.166-0.152,2.141-0.633,2.921-1.44
			c0.886-0.926,1.329-2.255,1.329-3.989v-11.461c0-1.606-0.614-2.729-1.842-3.361c-0.362-0.188-0.6-0.35-0.711-0.483
			s-0.166-0.332-0.166-0.59c0-0.306,0.111-0.522,0.334-0.652c0.223-0.129,0.586-0.192,1.09-0.192h4.313
			c0.362,0,0.604,0.009,0.729,0.025c0.124,0.018,0.242,0.063,0.359,0.133c0.305,0.176,0.457,0.416,0.457,0.723
			c0,0.258-0.095,0.475-0.281,0.65c-0.059,0.059-0.312,0.217-0.756,0.476c-0.516,0.282-0.918,0.714-1.211,1.294
			c-0.293,0.582-0.439,1.242-0.439,1.98v11.479c0,1.969-0.434,3.585-1.299,4.85c-0.633,0.938-1.539,1.688-2.721,2.25
			C230.02,397.832,229.316,398.037,228.498,398.166z"/>
		<path d="M257.463,391.541l-1.67,6.15h-4.623l-6.262-21.012c-0.094-0.316-0.182-0.529-0.264-0.642s-0.213-0.209-0.389-0.291
			c-0.375-0.151-0.622-0.293-0.738-0.422c-0.117-0.13-0.177-0.322-0.177-0.58c0-0.353,0.159-0.627,0.478-0.826
			c0.246-0.151,0.652-0.229,1.217-0.229h7.822c0.494,0,0.834,0.013,1.017,0.035c0.183,0.023,0.333,0.07,0.45,0.142
			c0.117,0.082,0.218,0.198,0.301,0.352c0.082,0.152,0.123,0.3,0.123,0.439c0,0.434-0.205,0.745-0.615,0.933
			c-0.305,0.152-0.512,0.309-0.623,0.467c-0.111,0.157-0.168,0.385-0.168,0.678c0,0.188,0.018,0.352,0.053,0.492L257.463,391.541z
			 M258.131,389.027l-0.932-3.305l1.996-7.404c0.128-0.469,0.197-0.758,0.209-0.863c0.023-0.258-0.033-0.545-0.172-0.861
			c-0.187-0.41-0.474-0.68-0.865-0.809l-0.57-0.211c-0.449-0.152-0.674-0.452-0.674-0.898c0-0.316,0.128-0.559,0.384-0.729
			c0.257-0.17,0.61-0.256,1.063-0.256h4.307c0.535,0,0.885,0.053,1.047,0.158c0.279,0.176,0.418,0.428,0.418,0.756
			c0,0.223-0.043,0.398-0.131,0.527s-0.249,0.246-0.482,0.352l-0.895,0.423c-0.375,0.177-0.734,0.524-1.08,1.047
			c-0.345,0.521-0.611,1.116-0.798,1.784L258.131,389.027z"/>
		<path d="M282.648,389.186l-2.127,8.507h-3.797l-5.664-20.659c-0.129-0.469-0.25-0.786-0.36-0.95
			c-0.111-0.164-0.302-0.299-0.571-0.403c-0.47-0.188-0.704-0.498-0.704-0.933c0-0.34,0.147-0.601,0.44-0.782
			c0.295-0.182,0.705-0.271,1.234-0.271h8.228c0.511,0,0.858,0.07,1.044,0.211c0.244,0.176,0.365,0.416,0.365,0.721
			c0,0.364-0.201,0.669-0.606,0.915c-0.336,0.199-0.554,0.366-0.651,0.501c-0.099,0.135-0.146,0.338-0.146,0.607
			c0,0.129,0.018,0.258,0.053,0.387L282.648,389.186z M284.318,373.691h3.621l4.22,16.004l-2.005,7.996h-3.831l-4.097-15.447
			L284.318,373.691z M292.827,386.883l-0.914-3.566l1.263-5.209c0.104-0.409,0.155-0.727,0.155-0.949
			c0-0.352-0.097-0.653-0.287-0.905s-0.507-0.489-0.948-0.713c-0.289-0.151-0.488-0.299-0.6-0.438
			c-0.111-0.141-0.165-0.324-0.165-0.547c0-0.305,0.097-0.523,0.29-0.658c0.193-0.136,0.502-0.203,0.925-0.203h4.185
			c0.476,0,0.81,0.067,1,0.203c0.191,0.135,0.289,0.358,0.289,0.676c0,0.188-0.051,0.344-0.149,0.467s-0.267,0.236-0.5,0.343
			c-0.524,0.235-0.912,0.481-1.157,0.739c-0.538,0.539-0.941,1.318-1.21,2.339L292.827,386.883z"/>
		<path d="M313.895,376.77l8.846,17.986c0.211,0.41,0.498,0.709,0.86,0.896c0.316,0.164,0.53,0.315,0.643,0.457
			c0.112,0.141,0.168,0.334,0.168,0.58c0,0.315-0.117,0.567-0.353,0.756c-0.198,0.164-0.621,0.246-1.264,0.246h-8.244
			c-0.639,0-1.051-0.041-1.24-0.123c-0.412-0.177-0.618-0.476-0.618-0.896c0-0.152,0.041-0.285,0.125-0.396
			c0.084-0.11,0.239-0.248,0.469-0.411c0.406-0.293,0.604-0.562,0.594-0.81c-0.012-0.199-0.118-0.498-0.316-0.896l-8.646-17.389
			c-0.142-0.293-0.293-0.524-0.457-0.694c-0.165-0.17-0.383-0.326-0.651-0.468c-0.234-0.116-0.396-0.246-0.484-0.387
			s-0.131-0.334-0.131-0.58c0-0.352,0.125-0.598,0.379-0.738c0.252-0.141,0.701-0.211,1.348-0.211h8.191
			c0.593,0,1.021,0.076,1.281,0.229c0.262,0.153,0.395,0.397,0.395,0.738c0,0.34-0.193,0.639-0.577,0.896
			c-0.175,0.129-0.294,0.238-0.358,0.326c-0.063,0.088-0.096,0.207-0.096,0.359C313.754,376.404,313.801,376.581,313.895,376.77z
			 M309.559,389.115l0.968,2.004l-1.084,1.773c-0.396,0.656-0.595,1.178-0.595,1.563c0,0.562,0.313,0.973,0.939,1.229
			c0.348,0.142,0.584,0.281,0.713,0.422c0.127,0.142,0.191,0.334,0.191,0.58c0,0.328-0.142,0.599-0.42,0.81
			c-0.104,0.082-0.222,0.135-0.351,0.158c-0.127,0.022-0.372,0.034-0.731,0.034h-4.535c-0.375,0-0.672-0.078-0.889-0.236
			c-0.218-0.158-0.324-0.378-0.324-0.659c0-0.224,0.065-0.406,0.201-0.554c0.135-0.146,0.373-0.284,0.713-0.413
			c0.879-0.341,1.559-0.896,2.039-1.669L309.559,389.115z M317.855,381.646l-0.984-1.951l0.985-1.674
			c0.223-0.388,0.335-0.722,0.335-1.002c0-0.26-0.08-0.513-0.236-0.758c-0.158-0.246-0.365-0.429-0.621-0.547l-0.612-0.281
			c-0.115-0.059-0.219-0.17-0.306-0.334c-0.088-0.164-0.131-0.328-0.131-0.492c0-0.281,0.098-0.506,0.295-0.67
			s0.458-0.246,0.783-0.246h5.08c0.33,0,0.604,0.074,0.824,0.221s0.329,0.337,0.329,0.57c0,0.283-0.105,0.529-0.316,0.74
			c-0.083,0.069-0.329,0.217-0.739,0.438c-0.834,0.458-1.527,1.121-2.079,1.987L317.855,381.646z"/>
		<path d="M343.574,386.689v7.662c0,0.457,0.088,0.785,0.265,0.983c0.094,0.117,0.184,0.19,0.266,0.222
			c0.081,0.029,0.353,0.102,0.812,0.219c0.564,0.129,0.847,0.451,0.847,0.967c0,0.34-0.158,0.598-0.477,0.772
			c-0.188,0.117-0.553,0.177-1.094,0.177h-0.601h-7.848h-0.578c-0.526,0-0.895-0.07-1.105-0.211
			c-0.303-0.188-0.454-0.435-0.454-0.738c0-0.516,0.279-0.838,0.842-0.967c0.455-0.117,0.725-0.189,0.807-0.219
			c0.081-0.029,0.162-0.104,0.244-0.222c0.176-0.198,0.264-0.526,0.264-0.983v-5.939l-4.972-11.871
			c-0.188-0.445-0.451-0.77-0.79-0.968c-0.315-0.199-0.519-0.357-0.605-0.476c-0.087-0.117-0.133-0.281-0.133-0.492
			c0-0.609,0.443-0.914,1.332-0.914h8.617c0.459,0,0.776,0.053,0.953,0.158c0.294,0.188,0.441,0.434,0.441,0.737
			c0,0.376-0.17,0.669-0.509,0.88l-0.508,0.317c-0.196,0.129-0.297,0.321-0.297,0.579c0,0.293,0.064,0.58,0.193,0.861
			L343.574,386.689z M344.254,385.021l-0.984-2.303l1.855-4.136c0.154-0.353,0.23-0.833,0.23-1.442c0-0.681-0.379-1.168-1.134-1.461
			c-0.414-0.164-0.682-0.308-0.807-0.431c-0.123-0.123-0.187-0.313-0.187-0.571c0-0.316,0.105-0.559,0.316-0.723
			c0.141-0.105,0.3-0.176,0.478-0.211c0.176-0.035,0.48-0.053,0.915-0.053h4.343c0.819,0,1.229,0.328,1.229,0.984
			c0,0.234-0.056,0.417-0.167,0.547c-0.11,0.129-0.325,0.264-0.642,0.403c-0.574,0.258-0.984,0.517-1.23,0.772
			c-0.352,0.375-0.645,0.805-0.879,1.285l-0.403,0.896L344.254,385.021z"/>
		<path d="M373.115,373.691v2.023l-9.724,21.977h-7.684v-1.74l9.758-22.26H373.115z M356.303,373.691h7.629l-0.879,2.007
			c-0.996,0.129-1.91,0.491-2.742,1.087c-1.055,0.748-1.774,1.813-2.161,3.191c-0.095,0.362-0.211,0.613-0.353,0.754
			c-0.141,0.141-0.34,0.211-0.598,0.211c-0.599,0-0.896-0.34-0.896-1.019V373.691L356.303,373.691z M373.115,397.691h-8.228
			l0.791-1.756c1.441-0.34,2.484-0.732,3.129-1.179c0.552-0.386,0.996-0.83,1.336-1.334c0.341-0.504,0.697-1.26,1.072-2.267
			c0.142-0.374,0.278-0.629,0.413-0.764c0.135-0.136,0.319-0.203,0.554-0.203c0.306,0,0.536,0.105,0.694,0.316
			s0.237,0.516,0.237,0.913L373.115,397.691L373.115,397.691z"/>
	</g>
	<g>
		<path fill="#FFFFFF" d="M112.694,441.99c-1.229-0.152-2.32-0.501-3.273-1.046s-1.84-1.333-2.659-2.365
			c-0.901-1.125-1.586-2.443-2.054-3.956c-0.468-1.512-0.702-3.158-0.702-4.94c0-1.77,0.234-3.41,0.702-4.923
			c0.468-1.512,1.152-2.831,2.054-3.956c0.819-1.03,1.705-1.818,2.659-2.363c0.954-0.546,2.045-0.896,3.273-1.048v1.83
			c-0.328,0.106-0.556,0.197-0.685,0.273c-0.129,0.076-0.251,0.191-0.368,0.344c-0.34,0.435-0.509,1.063-0.509,1.883v15.944
			c0,0.82,0.169,1.447,0.509,1.88c0.117,0.152,0.239,0.269,0.368,0.344c0.129,0.076,0.357,0.166,0.685,0.271V441.99z
			 M114.069,441.99v-1.828c0.328-0.105,0.556-0.195,0.685-0.271c0.129-0.075,0.251-0.19,0.369-0.344
			c0.339-0.433,0.509-1.06,0.509-1.88v-15.944c0-0.819-0.17-1.448-0.509-1.883c-0.117-0.152-0.24-0.268-0.369-0.344
			s-0.357-0.167-0.685-0.273v-1.83c1.229,0.152,2.319,0.502,3.273,1.048c0.954,0.545,1.84,1.333,2.659,2.363
			c0.901,1.125,1.585,2.444,2.053,3.956c0.468,1.513,0.702,3.153,0.702,4.923c0,1.782-0.234,3.43-0.702,4.94
			c-0.468,1.513-1.152,2.831-2.053,3.956c-0.819,1.032-1.706,1.82-2.659,2.365C116.389,441.489,115.298,441.838,114.069,441.99z"/>
		<path fill="#FFFFFF" d="M144.48,417.691v20.66c0,0.457,0.088,0.785,0.265,0.983c0.094,0.117,0.182,0.191,0.265,0.221
			c0.082,0.029,0.353,0.103,0.812,0.22c0.564,0.129,0.847,0.45,0.847,0.967c0,0.305-0.153,0.551-0.458,0.738
			c-0.224,0.141-0.594,0.211-1.112,0.211h-0.6h-6.754h-0.579c-0.526,0-0.894-0.07-1.104-0.211c-0.304-0.188-0.456-0.435-0.456-0.738
			c0-0.517,0.28-0.838,0.841-0.967c0.456-0.117,0.725-0.189,0.807-0.22c0.082-0.028,0.163-0.104,0.245-0.221
			c0.175-0.198,0.263-0.526,0.263-0.983v-16.453c0-0.609-0.062-1.057-0.185-1.339c-0.123-0.28-0.32-0.438-0.59-0.475l-0.616-0.088
			c-0.552-0.082-0.828-0.363-0.828-0.846c0-0.375,0.176-0.668,0.528-0.881c0.176-0.094,0.539-0.158,1.091-0.193L144.48,417.691z"/>
		<path fill="#FFFFFF" d="M176.169,433.879c0.257-0.012,0.471,0.094,0.641,0.317c0.17,0.223,0.255,0.517,0.255,0.881
			c0,0.812-0.214,1.719-0.641,2.724c-0.428,1.004-0.94,1.813-1.537,2.423c-0.515,0.529-1.153,0.958-1.914,1.287
			c-0.761,0.329-1.481,0.493-2.16,0.493c-0.82,0-1.686-0.138-2.599-0.413l-2.318-0.7c-1.3-0.383-2.143-0.573-2.529-0.573
			c-0.516,0-1.06,0.251-1.633,0.753c-0.363,0.311-0.638,0.466-0.826,0.466c-0.27,0-0.477-0.088-0.624-0.265
			c-0.147-0.176-0.219-0.429-0.219-0.758c0-0.633,0.146-1.278,0.439-1.936c0.292-0.658,0.69-1.232,1.194-1.728
			c1.065-1.044,2.517-1.565,4.355-1.565c0.854,0,2.007,0.139,3.459,0.416c2.119,0.41,3.5,0.615,4.145,0.615
			c0.562,0,0.978-0.144,1.247-0.429c0.094-0.104,0.167-0.227,0.22-0.362c0.053-0.137,0.12-0.384,0.202-0.739
			C175.455,434.205,175.735,433.902,176.169,433.879z M166.189,417.445v1.864c-0.32,0.07-0.58,0.171-0.78,0.3
			c-0.2,0.129-0.294,0.259-0.282,0.388c0.023,0.164,0.179,0.34,0.467,0.527c0.519,0.363,0.894,0.757,1.124,1.179
			s0.346,0.932,0.346,1.529c0,0.892-0.336,1.659-1.009,2.305c-0.673,0.645-1.464,0.967-2.376,0.967
			c-0.994,0-1.824-0.343-2.491-1.029c-0.667-0.686-1-1.539-1-2.559c0-0.962,0.289-1.859,0.868-2.691
			c0.579-0.832,1.366-1.488,2.36-1.971C164.049,417.949,164.973,417.68,166.189,417.445z M167.721,419.311v-1.918l0.475,0.019
			c1.218,0,2.381,0.202,3.488,0.604c1.107,0.404,2.03,0.965,2.768,1.679c1.242,1.207,1.863,2.729,1.863,4.567
			c0,1.58-0.466,2.983-1.397,4.207c-0.932,1.226-2.252,2.183-3.963,2.872l-2.302,0.913c-0.668,0.271-1.611,0.738-2.83,1.406
			l-0.527,0.299c-0.469,0-0.92,0.062-1.354,0.184c-0.434,0.123-1.061,0.361-1.881,0.714c0.421-0.563,0.845-1.051,1.272-1.46
			c0.427-0.41,1.067-0.949,1.921-1.618c1.1-0.855,1.84-1.475,2.22-1.854c0.38-0.381,0.705-0.823,0.974-1.327
			c0.269-0.516,0.464-1.123,0.587-1.819c0.123-0.697,0.185-1.58,0.185-2.646c0-1.875-0.163-3.142-0.488-3.798
			c-0.128-0.258-0.265-0.458-0.41-0.599C168.177,419.593,167.977,419.451,167.721,419.311z"/>
		<path fill="#FFFFFF" d="M194.336,440.127v1.846c-1.3-0.164-2.412-0.45-3.337-0.86c-1.054-0.47-1.871-1.095-2.45-1.873
			c-0.58-0.78-0.869-1.65-0.869-2.613c0-0.984,0.316-1.809,0.949-2.471c0.633-0.662,1.418-0.994,2.356-0.994
			c1.031,0,1.887,0.41,2.567,1.23c0.48,0.588,0.721,1.215,0.721,1.884c0,0.48-0.123,0.949-0.367,1.406
			c-0.245,0.458-0.571,0.834-0.979,1.127c-0.373,0.271-0.56,0.476-0.56,0.615c0,0.188,0.197,0.353,0.592,0.492
			C193.354,440.057,193.813,440.127,194.336,440.127z M194.336,417.48v1.776c-0.456,0.105-0.783,0.217-0.982,0.334
			c-0.128,0.07-0.236,0.164-0.324,0.281c-0.088,0.117-0.131,0.217-0.131,0.299c0.012,0.188,0.134,0.375,0.368,0.563l0.805,0.648
			c0.385,0.316,0.578,0.873,0.578,1.669c0,0.854-0.307,1.587-0.92,2.195s-1.353,0.913-2.217,0.913c-0.864,0-1.589-0.313-2.173-0.939
			s-0.876-1.401-0.876-2.328c0-0.797,0.208-1.555,0.623-2.274s0.997-1.332,1.745-1.836
			C191.694,418.195,192.863,417.762,194.336,417.48z M199.633,429.425c1.018,0.307,1.777,0.578,2.28,0.818s0.946,0.536,1.333,0.888
			c0.515,0.481,0.924,1.092,1.229,1.83c0.303,0.739,0.455,1.508,0.455,2.305c0,1.818-0.619,3.319-1.859,4.504
			c-0.762,0.729-1.688,1.281-2.782,1.662c-1.095,0.381-2.297,0.572-3.608,0.572l-0.772-0.031v-1.846
			c0.656-0.188,1.131-0.463,1.424-0.826c0.176-0.211,0.299-0.437,0.369-0.677c0.07-0.24,0.105-0.561,0.105-0.958v-5.043
			c0-0.492-0.023-0.851-0.07-1.072c-0.047-0.222-0.152-0.438-0.316-0.649c-0.328-0.435-0.843-0.668-1.546-0.703
			c-0.469-0.023-0.779-0.082-0.931-0.177c-0.258-0.163-0.387-0.409-0.387-0.737c0-0.327,0.09-0.557,0.272-0.686
			c0.182-0.129,0.524-0.217,1.028-0.264c1.312-0.117,1.968-0.778,1.968-1.985l-0.018-0.686v-3.982c0-0.737-0.141-1.286-0.422-1.644
			c-0.281-0.358-0.773-0.618-1.477-0.782v-1.863l0.492,0.019c1.125,0,2.208,0.158,3.251,0.475s1.934,0.756,2.672,1.316
			c0.727,0.551,1.281,1.204,1.662,1.959c0.381,0.756,0.57,1.565,0.57,2.434c0,1.558-0.498,2.863-1.494,3.916
			c-0.435,0.457-0.894,0.82-1.379,1.09C201.195,428.871,200.512,429.145,199.633,429.425z"/>
		<path fill="#FFFFFF" d="M222.107,424.117v2.596l-5.521,7.666h5.521v1.75h-6.135c-0.506,0-0.849-0.076-1.029-0.229
			c-0.182-0.153-0.272-0.434-0.272-0.844c0-0.503,0.199-1.029,0.599-1.581l0.264-0.367L222.107,424.117z M223.516,422.216
			l2.76-3.819c0.224-0.316,0.424-0.514,0.6-0.59c0.176-0.075,0.498-0.114,0.968-0.114h1.529c0.422,0,0.675,0.075,0.757,0.229
			c0.07,0.152,0.105,0.399,0.105,0.74v15.719h2.197c0.576,0,0.864,0.283,0.864,0.849c0,0.602-0.323,0.901-0.971,0.901h-2.093v2.235
			c0,0.445,0.088,0.773,0.266,0.984c0.094,0.105,0.182,0.175,0.266,0.203c0.082,0.029,0.353,0.104,0.812,0.221
			c0.563,0.13,0.847,0.451,0.847,0.968c0,0.307-0.152,0.553-0.458,0.739c-0.225,0.142-0.601,0.212-1.13,0.212h-0.582h-6.754h-0.579
			c-0.524,0-0.894-0.07-1.104-0.212c-0.305-0.188-0.455-0.434-0.455-0.739c0-0.517,0.279-0.838,0.841-0.968
			c0.444-0.117,0.711-0.19,0.799-0.221c0.087-0.028,0.172-0.098,0.254-0.203c0.175-0.211,0.263-0.539,0.263-0.984V422.216
			L223.516,422.216z"/>
		<path fill="#FFFFFF" d="M249.922,440.004v1.934c-1.232-0.081-2.377-0.397-3.434-0.948c-0.998-0.517-1.764-1.146-2.297-1.89
			c-0.535-0.743-0.801-1.556-0.801-2.435c0-1.02,0.325-1.868,0.979-2.548c0.652-0.681,1.473-1.021,2.461-1.021
			c0.847,0,1.578,0.306,2.195,0.914c0.617,0.609,0.928,1.33,0.928,2.162c0,0.469-0.119,0.945-0.354,1.433
			c-0.236,0.485-0.524,0.857-0.865,1.115c-0.271,0.199-0.406,0.362-0.406,0.491c0,0.188,0.14,0.353,0.42,0.492
			C249.027,439.844,249.42,439.945,249.922,440.004z M244.965,424.557l1.617,0.177l-0.299,3.654c0.691-0.573,1.307-1.007,1.846-1.3
			s1.137-0.521,1.793-0.686v2.478c-1.252,0.295-2.306,0.701-3.16,1.22c-0.562,0.354-0.971,0.529-1.229,0.529
			c-0.316,0-0.564-0.085-0.746-0.255s-0.271-0.401-0.271-0.696c0-0.141,0.006-0.305,0.018-0.492L244.965,424.557z M245.084,423.22
			l0.492-5.827c0.387,0.048,0.615,0.076,0.686,0.089l3.551,0.477c1.254,0.178,2.754,0.266,4.5,0.266
			c1.172,0,2.121-0.059,2.849-0.176c0.728-0.118,1.487-0.336,2.284-0.654c-0.245,0.811-0.516,1.474-0.809,1.988
			c-0.293,0.516-0.703,1.037-1.229,1.564c-0.562,0.563-1.188,1.045-1.873,1.442c-0.685,0.398-1.367,0.675-2.048,0.826
			c-1.03,0.234-2.366,0.353-4.008,0.353C247.99,423.566,246.525,423.451,245.084,423.22z M251.391,428.88v-2.548
			c1.207,0,2.223,0.094,3.043,0.281c0.821,0.187,1.607,0.504,2.357,0.949c2.357,1.385,3.537,3.528,3.537,6.438
			c0,1.396-0.27,2.65-0.809,3.766c-0.539,1.113-1.306,2.018-2.299,2.708c-0.703,0.471-1.517,0.843-2.441,1.117
			c-0.924,0.274-1.848,0.413-2.772,0.413l-0.544-0.014v-1.986c0.363-0.117,0.652-0.267,0.869-0.448
			c0.217-0.181,0.396-0.437,0.537-0.765c0.094-0.188,0.172-0.492,0.236-0.914c0.063-0.422,0.098-0.826,0.098-1.213v-4.498
			c0-1.031-0.125-1.771-0.373-2.223C252.58,429.492,252.102,429.138,251.391,428.88z"/>
		<path fill="#FFFFFF" d="M279.617,417.393v1.777c-0.652,0.2-1.117,0.496-1.395,0.89c-0.279,0.395-0.418,0.948-0.418,1.663v16.104
			c0,0.562,0.018,0.952,0.053,1.169s0.119,0.406,0.25,0.57c0.188,0.245,0.558,0.438,1.104,0.579v1.847
			c-1.126-0.129-2.182-0.466-3.166-1.011c-0.986-0.546-1.865-1.28-2.639-2.207c-0.868-1.043-1.539-2.37-2.014-3.981
			c-0.477-1.612-0.713-3.361-0.713-5.249c0-4.021,1.154-7.208,3.465-9.564c0.811-0.82,1.692-1.455,2.647-1.906
			C277.75,417.619,278.689,417.393,279.617,417.393z M279.211,430.707v-2.021c1.275-0.704,2.512-1.058,3.707-1.058
			c0.727,0,1.455,0.141,2.188,0.422c0.73,0.282,1.373,0.67,1.924,1.162c0.607,0.563,1.082,1.246,1.423,2.049
			c0.34,0.806,0.51,1.657,0.51,2.562c0,1.196-0.258,2.373-0.772,3.526c-0.517,1.156-1.195,2.086-2.039,2.789
			c-0.691,0.563-1.506,1.017-2.443,1.355s-1.852,0.51-2.742,0.51l-0.439-0.014v-1.847c0.474-0.116,0.811-0.305,1.012-0.562
			s0.302-0.633,0.302-1.125v-6.572c0-0.523-0.11-0.938-0.335-1.242c-0.224-0.303-0.518-0.442-0.881-0.42
			C280.256,430.234,279.786,430.396,279.211,430.707z M280.93,419.17v-1.777c1.16,0,2.338,0.281,3.533,0.846
			c1.008,0.48,1.796,1.105,2.364,1.875c0.567,0.769,0.853,1.599,0.853,2.489c0,0.976-0.328,1.79-0.981,2.447
			c-0.656,0.657-1.476,0.985-2.457,0.985c-0.865,0-1.603-0.281-2.212-0.845c-0.607-0.564-0.911-1.238-0.911-2.024
			c0-0.622,0.264-1.244,0.791-1.865c0.245-0.281,0.409-0.496,0.491-0.643c0.082-0.147,0.123-0.303,0.123-0.467
			C282.523,419.641,281.992,419.3,280.93,419.17z"/>
		<path fill="#FFFFFF" d="M299.342,425.348l1.107-7.469h1.301l-0.264,2.039c0.914-0.889,1.769-1.529,2.564-1.92
			c0.797-0.393,1.657-0.588,2.583-0.588c0.421,0,0.795,0.029,1.123,0.089s0.803,0.188,1.424,0.391
			c0.96,0.296,1.604,0.51,1.934,0.641c0.702,0.271,1.271,0.42,1.704,0.442c0.27,0.013,0.539-0.139,0.809-0.452l0.192-0.253
			c0.188-0.217,0.375-0.325,0.562-0.325c0.163,0,0.311,0.067,0.438,0.202c0.128,0.136,0.192,0.291,0.192,0.468
			c0,0.329-0.104,0.784-0.315,1.364c-0.211,0.582-0.462,1.125-0.755,1.632c-0.48,0.834-1.075,1.44-1.783,1.823
			c-0.709,0.382-1.579,0.572-2.608,0.572c-0.444,0-0.835-0.029-1.169-0.088s-1.262-0.27-2.783-0.634
			c-1.488-0.354-2.555-0.528-3.197-0.528c-0.586,0-1.018,0.18-1.293,0.539c-0.274,0.36-0.412,0.918-0.412,1.672v0.383H299.342
			L299.342,425.348z M312.332,424.75c-0.756,1.489-1.285,2.744-1.588,3.764c-0.467,1.561-0.699,2.949-0.699,4.168
			c0,0.481,0.035,0.939,0.105,1.373l0.332,1.951c0.104,0.622,0.155,1.232,0.155,1.83c0,1.336-0.41,2.38-1.229,3.131
			c-0.752,0.691-1.619,1.037-2.604,1.037c-1.128,0-2.052-0.438-2.771-1.318c-0.721-0.88-1.082-2-1.082-3.359
			c0-1.407,0.416-2.86,1.248-4.362c0.257-0.479,0.582-0.973,0.975-1.477s1.039-1.268,1.94-2.287c0.937-1.056,1.618-1.858,2.046-2.41
			c0.428-0.551,0.733-1.025,0.922-1.424C310.727,425.307,311.477,425.102,312.332,424.75z"/>
		<path fill="#FFFFFF" d="M334.362,419.1c-0.491,0.26-0.807,0.535-0.946,0.828s-0.21,0.833-0.21,1.619v4.855
			c0,0.387,0.069,0.756,0.21,1.105c0.105,0.234,0.225,0.416,0.359,0.545c0.134,0.129,0.33,0.246,0.587,0.353v1.845
			c-0.421,0.164-0.72,0.393-0.895,0.686c-0.176,0.293-0.263,0.709-0.263,1.248v6.011c0,0.469,0.076,0.873,0.229,1.213
			c0.095,0.223,0.205,0.387,0.334,0.492c0.13,0.104,0.322,0.192,0.58,0.264v1.828l-0.351-0.019c-1.031,0-2.086-0.123-3.162-0.368
			c-0.656-0.152-1.198-0.324-1.625-0.519c-0.428-0.193-0.841-0.455-1.238-0.783c-1.323-1.111-1.984-2.604-1.984-4.479
			c0-1.043,0.208-1.998,0.624-2.865c0.415-0.867,1.01-1.588,1.782-2.162c0.434-0.327,0.888-0.597,1.361-0.808
			s1.121-0.439,1.94-0.687c-0.796-0.233-1.426-0.46-1.889-0.677s-0.893-0.49-1.29-0.818c-1.229-1.031-1.844-2.416-1.844-4.151
			c0-1.138,0.28-2.172,0.843-3.104c0.562-0.933,1.34-1.656,2.334-2.174c1.111-0.574,2.615-0.902,4.512-0.984L334.362,419.1
			L334.362,419.1z M335.581,419.1v-1.707c1.91,0.082,3.423,0.41,4.536,0.984c0.996,0.518,1.774,1.241,2.338,2.174
			c0.562,0.933,0.845,1.967,0.845,3.104c0,1.735-0.614,3.12-1.842,4.151c-0.397,0.328-0.827,0.603-1.289,0.818
			s-1.091,0.442-1.886,0.677c0.817,0.246,1.465,0.476,1.938,0.687c0.475,0.211,0.929,0.479,1.36,0.808
			c0.771,0.574,1.366,1.295,1.781,2.162s0.623,1.822,0.623,2.865c0,1.875-0.661,3.368-1.983,4.479
			c-0.397,0.34-0.811,0.607-1.238,0.802c-0.427,0.192-0.968,0.358-1.623,0.5c-0.925,0.198-1.983,0.321-3.178,0.368l-0.245,0.019
			v-1.828c0.258-0.07,0.451-0.158,0.58-0.264c0.129-0.106,0.24-0.271,0.334-0.492c0.152-0.34,0.229-0.744,0.229-1.213v-6.011
			c0-0.104-0.038-0.29-0.116-0.554c-0.076-0.264-0.15-0.478-0.222-0.642c-0.096-0.176-0.208-0.316-0.34-0.422
			c-0.131-0.106-0.331-0.211-0.604-0.316v-1.845c0.284-0.117,0.495-0.237,0.632-0.36s0.246-0.302,0.329-0.536
			c0.048-0.116,0.112-0.321,0.196-0.614c0.082-0.293,0.124-0.457,0.124-0.491v-4.855c0-0.129-0.036-0.34-0.106-0.634l-0.196-0.968
			C336.441,419.652,336.115,419.37,335.581,419.1z"/>
		<path fill="#FFFFFF" d="M363.072,428.688v2.021c-1.277,0.698-2.514,1.047-3.707,1.047c-0.728,0-1.455-0.141-2.188-0.422
			c-0.732-0.281-1.373-0.668-1.924-1.16c-0.609-0.562-1.083-1.245-1.423-2.048s-0.509-1.661-0.509-2.575
			c0-1.312,0.301-2.578,0.903-3.797c0.604-1.219,1.404-2.174,2.4-2.865c1.453-0.996,3.164-1.494,5.133-1.494v1.726
			c-0.462,0.118-0.796,0.307-1.003,0.563c-0.207,0.258-0.31,0.634-0.31,1.126v6.701c0,0.521,0.11,0.932,0.334,1.227
			c0.223,0.296,0.522,0.438,0.897,0.426C362.032,429.148,362.496,428.991,363.072,428.688z M361.354,440.215v1.775
			c-1.159,0-2.338-0.281-3.532-0.846c-1.008-0.48-1.797-1.105-2.365-1.873c-0.568-0.771-0.852-1.601-0.852-2.491
			c0-0.975,0.327-1.79,0.983-2.446c0.656-0.658,1.478-0.986,2.461-0.986c0.867,0,1.609,0.285,2.226,0.854
			c0.614,0.57,0.924,1.26,0.924,2.07c0,0.551-0.135,1.021-0.402,1.407l-0.559,0.812c-0.151,0.211-0.228,0.416-0.228,0.615
			c0,0.342,0.181,0.635,0.541,0.881C360.725,440.104,360.992,440.18,361.354,440.215z M362.666,441.99v-1.775
			c0.379-0.117,0.666-0.24,0.861-0.369c0.194-0.129,0.362-0.315,0.506-0.562c0.297-0.491,0.444-1.03,0.444-1.616v-16.226
			c0-0.539-0.019-0.925-0.055-1.152c-0.035-0.229-0.118-0.426-0.248-0.59c-0.189-0.246-0.559-0.44-1.104-0.582v-1.726
			c1.125,0.117,2.18,0.449,3.166,0.994c0.983,0.545,1.863,1.286,2.639,2.225c0.867,1.03,1.539,2.355,2.014,3.974
			c0.476,1.618,0.714,3.37,0.714,5.257c0,4.032-1.156,7.221-3.468,9.565c-0.809,0.819-1.69,1.456-2.646,1.907
			C364.533,441.764,363.592,441.99,362.666,441.99z"/>
	</g>
	<g>
		<path fill="#FFFFFF" d="M290.652,118.264l3.66,14.863l-12.681,46.371c-0.383,1.34-0.571,2.584-0.571,3.732
			c0,3.016,1.412,5.168,4.237,6.461l2.517,1.148c1.58,0.719,2.371,1.914,2.371,3.588c0,2.396-1.761,3.59-5.275,3.59h-18.232
			c-1.771,0-3.172-0.369-4.199-1.111c-1.028-0.742-1.543-1.76-1.543-3.053c0-1.387,1.054-2.535,3.158-3.445
			c1.961-0.861,3.408-1.639,4.342-2.332c0.935-0.693,1.83-1.639,2.693-2.836c1.34-1.961,2.439-4.57,3.301-7.824L290.652,118.264z
			 M295.604,100.018h28.929l19.942,84.359c0.384,1.484,0.813,2.801,1.291,3.949c0.431,0.91,1.388,1.65,2.869,2.225
			c1.242,0.527,2.104,1.053,2.582,1.58c0.479,0.527,0.719,1.244,0.719,2.154c0,2.488-1.86,3.732-5.584,3.732h-35.817
			c-1.433,0-2.576-0.346-3.437-1.039c-0.859-0.691-1.287-1.611-1.287-2.758c0-0.955,0.191-1.672,0.574-2.148
			c0.383-0.476,1.246-1.074,2.588-1.793c0.957-0.478,1.629-1,2.013-1.574c0.383-0.574,0.575-1.291,0.575-2.15
			c0-0.811-0.071-1.527-0.217-2.148l-2.315-10.389H289l1.939-8.5h16.077l-13.206-58.459L295.604,100.018z"/>
	</g>
	<g>
		<path d="M34.916,108.515l1.345,5.463l-4.674,17.029c-0.141,0.492-0.211,0.949-0.211,1.371c0,1.107,0.518,1.897,1.553,2.371
			l0.922,0.422c0.579,0.264,0.869,0.703,0.869,1.318c0,0.879-0.638,1.318-1.912,1.318h-6.697c-0.65,0-1.165-0.137-1.542-0.408
			c-0.378-0.273-0.567-0.646-0.567-1.121c0-0.51,0.387-0.932,1.16-1.266c0.721-0.316,1.252-0.602,1.595-0.857
			c0.343-0.254,0.672-0.602,0.989-1.041c0.492-0.721,0.896-1.678,1.213-2.873L34.916,108.515z M36.735,101.808h10.626l7.333,30.988
			c0.141,0.546,0.299,1.029,0.475,1.451c0.158,0.334,0.51,0.607,1.055,0.818c0.457,0.193,0.774,0.387,0.95,0.58
			c0.176,0.193,0.264,0.457,0.264,0.791c0,0.914-0.687,1.371-2.061,1.371H42.22c-0.531,0-0.955-0.127-1.273-0.383
			c-0.318-0.255-0.478-0.594-0.478-1.016c0-0.353,0.071-0.617,0.212-0.793c0.141-0.176,0.46-0.396,0.957-0.66
			c0.354-0.176,0.602-0.369,0.744-0.58c0.142-0.211,0.212-0.475,0.212-0.793c0-0.299-0.027-0.562-0.08-0.791l-0.848-3.828H34.31
			l0.712-3.125h5.906l-4.852-21.443L36.735,101.808z"/>
	</g>
	<g>
		<path d="M30.031,170.077l2.781,4.64v14.13c0,1.23,0.207,2.24,0.62,3.031s1.068,1.441,1.966,1.951l0.791,0.447
			c0.457,0.264,0.686,0.66,0.686,1.188c0,0.404-0.167,0.737-0.501,1.001c-0.282,0.229-0.862,0.343-1.742,0.343h-6.077
			c-1.599,0-2.398-0.457-2.398-1.371c0-0.316,0.083-0.566,0.25-0.751s0.531-0.435,1.094-0.751c1.687-0.932,2.531-2.627,2.531-5.088
			v-18.77H30.031z M41.098,160.808l14.027,24.375v11.625h-7.198L30.021,165.95c-0.387-0.668-0.703-1.134-0.949-1.397
			c-0.246-0.263-0.562-0.457-0.949-0.58l-1.002-0.37c-0.264-0.088-0.475-0.246-0.633-0.475c-0.158-0.229-0.237-0.482-0.237-0.764
			c0-0.299,0.079-0.576,0.237-0.831c0.158-0.255,0.37-0.436,0.634-0.541c0.299-0.123,1.108-0.185,2.428-0.185L41.098,160.808
			L41.098,160.808z M55.125,180.964l-2.781-4.719v-7.304c0-1.479-0.216-2.61-0.647-3.394c-0.431-0.784-1.192-1.457-2.283-2.02
			c-0.37-0.176-0.625-0.365-0.766-0.568c-0.141-0.202-0.211-0.462-0.211-0.779c0-0.475,0.154-0.822,0.462-1.043
			c0.308-0.22,0.806-0.33,1.493-0.33h6.578c0.897,0,1.486,0.141,1.768,0.422c0.299,0.283,0.449,0.617,0.449,1.004
			c0,0.37-0.083,0.647-0.25,0.832c-0.167,0.186-0.567,0.436-1.2,0.753c-0.933,0.476-1.636,1.206-2.111,2.192
			c-0.334,0.721-0.501,1.698-0.501,2.931V180.964z"/>
	</g>
	<g>
		<path d="M119.956,101.808v36H108.21h-0.686c-0.632,0-1.12-0.119-1.462-0.355c-0.343-0.238-0.514-0.576-0.514-1.016
			c0-0.721,0.351-1.195,1.054-1.424c0.58-0.193,0.918-0.312,1.015-0.355c0.097-0.043,0.197-0.145,0.303-0.303
			c0.211-0.281,0.316-0.729,0.316-1.345v-26.396c0-0.617-0.105-1.065-0.316-1.348c-0.105-0.158-0.206-0.26-0.303-0.303
			c-0.097-0.045-0.435-0.163-1.015-0.357c-0.703-0.229-1.054-0.703-1.054-1.426c0-0.439,0.171-0.779,0.514-1.017
			c0.342-0.237,0.83-0.356,1.462-0.356h0.686L119.956,101.808L119.956,101.808z M122.174,121.016v-3.058
			c1.019-0.494,1.774-1.031,2.266-1.613c0.492-0.582,0.852-1.357,1.081-2.328c0.14-0.67,0.325-1.132,0.553-1.388
			s0.553-0.384,0.975-0.384c0.562,0,0.948,0.222,1.159,0.664c0.123,0.23,0.185,0.754,0.185,1.568v10.044
			c0,0.828-0.092,1.4-0.277,1.718c-0.185,0.316-0.522,0.475-1.014,0.475c-0.404,0-0.721-0.123-0.949-0.369
			c-0.228-0.246-0.413-0.66-0.553-1.24c-0.299-1.213-0.725-2.146-1.278-2.797C123.768,121.657,123.052,121.227,122.174,121.016z
			 M122.299,101.808h10.625v9.349c0,0.534-0.105,0.923-0.316,1.164c-0.211,0.241-0.545,0.362-1.002,0.362
			c-0.387,0-0.668-0.078-0.844-0.236c-0.176-0.158-0.343-0.482-0.5-0.974c-0.668-2.034-1.648-3.585-2.94-4.655
			c-1.292-1.069-2.966-1.709-5.022-1.92L122.299,101.808L122.299,101.808z M122.331,137.808v-2.846
			c1.143-0.176,2.087-0.421,2.834-0.737c0.747-0.315,1.499-0.799,2.254-1.449c0.756-0.649,1.358-1.321,1.806-2.015
			c0.448-0.694,0.875-1.612,1.279-2.754c0.193-0.562,0.396-0.943,0.606-1.146c0.211-0.201,0.501-0.303,0.87-0.303
			c0.492,0,0.835,0.145,1.028,0.436c0.193,0.289,0.29,0.795,0.29,1.514v9.301L122.331,137.808L122.331,137.808z"/>
	</g>
	<g>
		<path d="M116.923,160.808v30.991c0,0.686,0.132,1.178,0.397,1.476c0.141,0.176,0.273,0.286,0.396,0.33s0.529,0.154,1.218,0.33
			c0.847,0.193,1.27,0.676,1.27,1.449c0,0.457-0.229,0.826-0.688,1.107c-0.335,0.211-0.891,0.316-1.667,0.316h-0.9h-11.771h-0.686
			c-0.632,0-1.12-0.119-1.462-0.355c-0.343-0.238-0.514-0.576-0.514-1.016c0-0.721,0.351-1.195,1.054-1.424
			c0.58-0.193,0.918-0.312,1.015-0.354s0.197-0.146,0.303-0.303c0.211-0.281,0.316-0.729,0.316-1.345v-26.396
			c0-0.617-0.105-1.065-0.316-1.348c-0.105-0.158-0.206-0.26-0.303-0.303c-0.097-0.045-0.435-0.163-1.015-0.357
			c-0.703-0.229-1.054-0.703-1.054-1.426c0-0.439,0.171-0.779,0.514-1.017c0.342-0.237,0.83-0.356,1.462-0.356h0.686h11.745V160.808
			z M125.015,179.172c1.615,0.246,2.858,0.519,3.727,0.817c0.869,0.298,1.655,0.703,2.358,1.213
			c0.737,0.545,1.304,1.195,1.699,1.951c0.395,0.756,0.593,1.555,0.593,2.398v5.457c0,0.574,0.184,0.861,0.553,0.861
			c0.14,0,0.258-0.04,0.355-0.121c0.097-0.08,0.232-0.236,0.408-0.469c0.438-0.606,0.886-0.91,1.342-0.91
			c0.298,0,0.597,0.158,0.895,0.476c0.298,0.317,0.447,0.634,0.447,0.95c0,0.546-0.259,1.211-0.777,1.994
			c-0.518,0.783-1.163,1.482-1.936,2.1c-0.72,0.58-1.501,0.998-2.344,1.254c-0.843,0.255-1.834,0.383-2.976,0.383
			c-2.318,0-4.126-0.664-5.425-1.992c-1.299-1.328-1.949-3.18-1.949-5.555v-4.428c0-0.984-0.009-1.556-0.026-1.714
			c-0.089-0.703-0.336-1.31-0.742-1.819c-0.513-0.615-1.246-0.975-2.2-1.08v-2.821c0.954-0.141,1.634-0.387,2.041-0.738
			c0.354-0.315,0.596-0.677,0.729-1.081c0.132-0.404,0.199-1.001,0.199-1.792v-7.001c0-1.107-0.215-1.934-0.646-2.479
			c-0.431-0.545-1.208-0.976-2.333-1.292v-2.927h0.685c1.95,0,3.61,0.07,4.981,0.211c2.038,0.193,3.856,0.862,5.455,2.006
			c2.301,1.636,3.452,3.967,3.452,6.992c0,2.48-0.773,4.512-2.319,6.095c-0.65,0.669-1.41,1.214-2.28,1.636
			S126.79,178.645,125.015,179.172z"/>
	</g>
	<g>
		<path d="M194.07,137.808h-11.771h-0.686c-0.632,0-1.12-0.119-1.462-0.355c-0.343-0.238-0.514-0.576-0.514-1.016
			c0-0.721,0.351-1.195,1.054-1.424c0.58-0.193,0.918-0.312,1.015-0.355s0.197-0.145,0.303-0.303
			c0.211-0.281,0.316-0.729,0.316-1.345v-26.396c0-0.617-0.105-1.065-0.316-1.348c-0.105-0.158-0.206-0.26-0.303-0.303
			c-0.097-0.045-0.435-0.163-1.015-0.357c-0.703-0.229-1.054-0.703-1.054-1.426c0-0.439,0.171-0.779,0.514-1.017
			c0.342-0.237,0.83-0.356,1.462-0.356h0.686h11.771h0.686c0.632,0,1.119,0.119,1.462,0.356c0.342,0.237,0.514,0.577,0.514,1.017
			c0,0.723-0.352,1.197-1.054,1.426c-0.58,0.194-0.918,0.312-1.015,0.357c-0.097,0.043-0.198,0.145-0.303,0.303
			c-0.211,0.282-0.316,0.73-0.316,1.348v26.396c0,0.984,0.256,1.563,0.768,1.739l0.82,0.264c0.67,0.211,1.006,0.686,1.006,1.424
			c0,0.914-0.627,1.371-1.882,1.371H194.07z M204.499,112.264l7.969,20.825c0.212,0.562,0.431,0.988,0.659,1.279
			c0.229,0.289,0.527,0.514,0.896,0.672c0.369,0.176,0.606,0.307,0.713,0.395c0.246,0.246,0.369,0.572,0.369,0.977
			c0,0.932-0.662,1.396-1.984,1.396h-13.264c-0.631,0-1.116-0.132-1.458-0.396c-0.341-0.264-0.512-0.642-0.512-1.134
			c0-0.562,0.325-1.002,0.975-1.318c0.404-0.193,0.678-0.357,0.818-0.488c0.142-0.133,0.221-0.312,0.237-0.541
			c0-0.123-0.069-0.404-0.211-0.844l-3.377-10.074c-0.316-0.932-0.475-1.724-0.475-2.375c0-0.615,0.255-1.283,0.765-2.004
			l6.306-8.888c0.599-0.826,0.897-1.688,0.897-2.585c0-0.492-0.133-0.949-0.397-1.371c-0.266-0.422-0.618-0.721-1.061-0.896
			l-0.953-0.396c-0.603-0.246-0.901-0.658-0.901-1.238c0-0.475,0.186-0.862,0.557-1.161c0.246-0.193,0.65-0.29,1.216-0.29h9.387
			c0.62,0,1.103,0.137,1.448,0.409c0.345,0.272,0.52,0.655,0.52,1.148c0,0.739-0.406,1.269-1.216,1.585l-1.399,0.555
			c-0.582,0.211-1.32,0.686-2.219,1.426c-0.67,0.562-1.496,1.504-2.482,2.824L204.499,112.264z"/>
	</g>
	<g>
		<path d="M209.789,160.808v3.037l-14.576,32.963h-11.518v-2.609l14.628-33.391H209.789z M184.57,160.808h11.443l-1.318,3.011
			c-1.494,0.193-2.865,0.737-4.113,1.631c-1.582,1.122-2.663,2.718-3.243,4.786c-0.141,0.545-0.316,0.922-0.527,1.132
			s-0.51,0.315-0.896,0.315c-0.896,0-1.345-0.509-1.345-1.526L184.57,160.808L184.57,160.808z M209.789,196.808h-12.34l1.188-2.635
			c2.161-0.51,3.725-1.098,4.692-1.766c0.825-0.579,1.494-1.246,2.004-2.002c0.51-0.755,1.047-1.888,1.608-3.398
			c0.211-0.562,0.418-0.943,0.619-1.146c0.203-0.201,0.479-0.303,0.83-0.303c0.457,0,0.805,0.158,1.043,0.475
			c0.236,0.317,0.355,0.772,0.355,1.369V196.808z"/>
	</g>
	<g>
		<path fill="#C46B45" d="M115.781,235.499v3.088c-1.625,0.392-2.438,1.688-2.438,3.896v25.922c0,1.002,0.138,1.772,0.415,2.311
			c0.24,0.446,0.747,0.826,1.522,1.143v3.146c-0.593,0-1.135-0.047-1.626-0.14c-0.491-0.093-1.145-0.278-1.96-0.558
			c-1.946-0.668-3.708-1.688-5.283-3.062c-1.576-1.373-2.873-3.017-3.893-4.927c-1.576-2.988-2.363-6.523-2.363-10.607
			c0-3.953,0.704-7.46,2.113-10.521c1.409-3.063,3.429-5.467,6.061-7.211c1.52-1.021,3.151-1.754,4.894-2.199
			C113.946,235.593,114.799,235.499,115.781,235.499z M130.656,269.605c-0.742,0.742-1.729,1.498-2.963,2.268
			s-2.397,1.377-3.491,1.82c-1.001,0.392-2.109,0.705-3.324,0.947c-1.215,0.24-2.286,0.361-3.213,0.361v-3.146
			c0.538-0.129,0.941-0.287,1.21-0.474c0.269-0.186,0.497-0.444,0.682-0.778c0.315-0.574,0.473-1.309,0.473-2.198v-8.12
			c0-0.723-0.14-1.242-0.419-1.559c-0.13-0.185-0.261-0.301-0.391-0.347c-0.13-0.047-0.559-0.153-1.286-0.319
			c-0.895-0.224-1.341-0.742-1.341-1.56c0-0.481,0.209-0.853,0.629-1.112c0.419-0.26,1.039-0.39,1.858-0.39h0.922h10.18
			c0.836,0,1.426,0.116,1.77,0.349c0.344,0.231,0.516,0.635,0.516,1.209c0,0.354-0.07,0.646-0.209,0.877
			c-0.14,0.231-0.395,0.479-0.767,0.737c-0.372,0.261-0.604,0.5-0.697,0.724c-0.093,0.223-0.139,0.631-0.139,1.225V269.605z
			 M118.094,238.532v-3.005c3.021,0.279,5.504,0.839,7.45,1.677c0.574,0.26,1.019,0.391,1.334,0.391
			c0.296,0,0.523-0.069,0.681-0.209c0.157-0.141,0.477-0.534,0.959-1.188c0.333-0.466,0.75-0.697,1.251-0.697
			c0.519,0,0.885,0.146,1.098,0.433c0.213,0.286,0.32,0.764,0.32,1.432v10.822c0,1.418-0.519,2.127-1.557,2.127
			c-0.519,0-0.904-0.14-1.154-0.418c-0.25-0.277-0.487-0.826-0.709-1.644c-0.278-1.041-0.779-2.252-1.501-3.635
			c-0.723-1.384-1.417-2.476-2.084-3.272c-0.76-0.929-1.613-1.611-2.558-2.048S119.502,238.605,118.094,238.532z"/>
		<path fill="#C46B45" d="M147.18,243.316l1.419,5.761l-4.938,17.989c-0.149,0.521-0.223,1.002-0.223,1.447
			c0,1.17,0.547,2.006,1.641,2.506l0.973,0.445c0.611,0.279,0.917,0.743,0.917,1.393c0,0.93-0.672,1.394-2.017,1.394h-7.069
			c-0.687,0-1.229-0.144-1.628-0.433c-0.399-0.286-0.598-0.682-0.598-1.184c0-0.537,0.408-0.982,1.225-1.336
			c0.761-0.334,1.322-0.636,1.684-0.904c0.362-0.27,0.71-0.637,1.044-1.101c0.52-0.761,0.946-1.772,1.28-3.035L147.18,243.316z
			 M149.101,236.251h11.216l7.73,32.711c0.148,0.575,0.315,1.086,0.501,1.531c0.167,0.352,0.537,0.641,1.112,0.862
			c0.482,0.203,0.815,0.408,1.001,0.611c0.186,0.205,0.278,0.482,0.278,0.836c0,0.965-0.721,1.447-2.161,1.447H154.89
			c-0.554,0-0.996-0.135-1.328-0.402c-0.332-0.27-0.498-0.625-0.498-1.07c0-0.37,0.074-0.647,0.222-0.834
			c0.148-0.186,0.481-0.418,0.999-0.694c0.37-0.187,0.628-0.39,0.776-0.611s0.222-0.5,0.222-0.834c0-0.315-0.028-0.594-0.084-0.834
			l-0.894-4.03h-7.765l0.751-3.313h6.234l-5.121-22.648L149.101,236.251z"/>
		<path fill="#C46B45" d="M187.385,235.499v3.199c-1.149,0.315-2.025,0.803-2.628,1.462c-0.603,0.658-0.903,1.472-0.903,2.438
			c0,0.928,0.25,1.739,0.751,2.436c0.501,0.695,1.317,1.359,2.448,1.99c0.779,0.428,2.541,1.244,5.286,2.451
			c1.669,0.723,2.962,1.377,3.88,1.961c0.918,0.586,1.785,1.313,2.602,2.187c2.189,2.302,3.283,5.039,3.283,8.213
			c0,2.396-0.594,4.585-1.781,6.57c-1.188,1.985-2.822,3.546-4.901,4.677c-1.114,0.594-2.335,1.063-3.662,1.406
			c-1.327,0.344-2.566,0.516-3.717,0.516v-3.175c1.613-0.39,2.777-0.933,3.491-1.628c0.714-0.696,1.071-1.639,1.071-2.826
			c0-1.243-0.557-2.338-1.669-3.285c-0.742-0.611-2.151-1.373-4.229-2.281c-2.281-1.002-3.844-1.718-4.688-2.145
			c-0.844-0.427-1.655-0.928-2.434-1.504c-3.487-2.486-5.23-5.799-5.23-9.938c0-2.115,0.436-4.068,1.309-5.859
			c0.872-1.791,2.088-3.234,3.648-4.33C181.482,236.511,184.173,235.667,187.385,235.499z M185.947,271.828v3.175
			c-1.523,0-3.205-0.438-5.044-1.312c-0.688-0.315-1.162-0.521-1.421-0.613c-0.26-0.094-0.511-0.141-0.752-0.141
			c-0.372,0-0.65,0.062-0.836,0.181c-0.186,0.12-0.483,0.42-0.892,0.899c-0.334,0.404-0.697,0.607-1.087,0.607
			c-1.041,0-1.561-0.793-1.561-2.38v-10.136c0-0.52,0.148-0.959,0.446-1.319c0.297-0.361,0.668-0.552,1.115-0.57
			c0.409-0.019,0.729,0.099,0.961,0.349s0.432,0.69,0.6,1.322c0.427,1.596,1.044,3.09,1.853,4.481
			c0.808,1.394,1.751,2.569,2.829,3.535C183.253,270.909,184.517,271.55,185.947,271.828z M189.572,238.698v-3.06
			c1.113,0.074,2.079,0.219,2.895,0.432c0.816,0.215,1.977,0.638,3.48,1.271c0.371,0.148,0.677,0.224,0.918,0.224
			c0.353,0,0.612-0.121,0.78-0.361l0.612-0.809c0.298-0.408,0.659-0.611,1.086-0.611c0.5,0,0.867,0.181,1.101,0.541
			c0.23,0.361,0.348,0.931,0.348,1.708v9.181c0,0.543-0.152,0.986-0.459,1.332c-0.307,0.348-0.701,0.52-1.184,0.52
			c-0.371,0-0.714-0.121-1.03-0.361c-0.167-0.148-0.302-0.329-0.404-0.543s-0.2-0.571-0.292-1.073
			c-0.204-0.91-0.557-1.848-1.058-2.813c-0.501-0.965-1.086-1.828-1.754-2.59C193.274,240.176,191.595,239.184,189.572,238.698z"/>
	</g>
	<g>
		<path fill="#C46B45" d="M236.107,236.251l5.481,15.61l2.422-8.435v9.242l-6.43,21.581h-1.476l-10.801-32.043
			c-0.371-1.076-0.762-1.8-1.17-2.171c-0.242-0.241-0.658-0.417-1.253-0.528c-1.206-0.26-1.81-0.836-1.81-1.727
			c0-0.482,0.172-0.858,0.516-1.127c0.344-0.271,0.842-0.404,1.492-0.404L236.107,236.251L236.107,236.251z M225.324,249.05
			l2.938,8.41v8.381c0,0.854,0.032,1.468,0.098,1.839c0.064,0.371,0.207,0.779,0.431,1.226c0.39,0.817,0.926,1.43,1.608,1.838
			l1.027,0.669c0.703,0.427,1.055,0.9,1.055,1.42c0,0.947-0.69,1.42-2.076,1.42h-6.973c-1.385,0-2.076-0.464-2.076-1.393
			c0-0.297,0.062-0.523,0.181-0.682c0.12-0.158,0.356-0.34,0.709-0.544c2.053-1.114,3.08-3.045,3.08-5.793L225.324,249.05
			L225.324,249.05z M246.387,236.251h12.344h0.752c1.396,0,2.093,0.481,2.093,1.446c0,0.761-0.372,1.261-1.115,1.503
			c-0.612,0.202-0.971,0.327-1.073,0.375c-0.102,0.047-0.209,0.151-0.32,0.319c-0.224,0.297-0.334,0.771-0.334,1.418v27.869
			c0,0.65,0.11,1.123,0.334,1.42c0.11,0.168,0.219,0.275,0.32,0.321c0.103,0.046,0.461,0.171,1.073,0.376
			c0.743,0.24,1.115,0.742,1.115,1.504c0,0.965-0.697,1.447-2.093,1.447h-0.752h-12.371h-0.922c-0.819,0-1.439-0.125-1.858-0.376
			c-0.42-0.251-0.629-0.626-0.629-1.128c0-0.816,0.446-1.327,1.342-1.531c0.728-0.186,1.153-0.302,1.285-0.348
			c0.131-0.047,0.261-0.154,0.391-0.32c0.279-0.334,0.421-0.863,0.421-1.588v-32.708H246.387z"/>
		<path fill="#C46B45" d="M276.676,243.316l1.42,5.761l-4.938,17.989c-0.149,0.521-0.224,1.002-0.224,1.447
			c0,1.17,0.547,2.006,1.641,2.506l0.974,0.445c0.611,0.279,0.917,0.743,0.917,1.393c0,0.93-0.672,1.394-2.016,1.394h-7.07
			c-0.686,0-1.229-0.144-1.628-0.433c-0.399-0.286-0.599-0.682-0.599-1.184c0-0.537,0.408-0.982,1.225-1.336
			c0.762-0.334,1.322-0.636,1.684-0.904c0.362-0.27,0.711-0.637,1.045-1.101c0.521-0.761,0.945-1.772,1.279-3.035L276.676,243.316z
			 M278.596,236.251h11.217l7.729,32.711c0.147,0.575,0.315,1.086,0.501,1.531c0.166,0.352,0.537,0.641,1.111,0.862
			c0.482,0.203,0.816,0.408,1.002,0.611c0.186,0.205,0.277,0.482,0.277,0.836c0,0.965-0.722,1.447-2.16,1.447h-13.89
			c-0.554,0-0.995-0.135-1.327-0.402c-0.332-0.27-0.498-0.625-0.498-1.07c0-0.37,0.073-0.647,0.223-0.834
			c0.146-0.186,0.48-0.418,0.998-0.694c0.369-0.187,0.629-0.39,0.775-0.611c0.147-0.222,0.223-0.5,0.223-0.834
			c0-0.315-0.027-0.594-0.084-0.834l-0.894-4.03h-7.766l0.752-3.313h6.233l-5.121-22.648L278.596,236.251z"/>
		<path fill="#C46B45" d="M316.88,235.499v3.199c-1.148,0.315-2.024,0.803-2.628,1.462c-0.603,0.658-0.903,1.472-0.903,2.438
			c0,0.928,0.25,1.739,0.751,2.436c0.501,0.695,1.316,1.359,2.448,1.99c0.778,0.428,2.541,1.244,5.286,2.451
			c1.669,0.723,2.963,1.377,3.881,1.961c0.918,0.586,1.785,1.313,2.603,2.187c2.188,2.302,3.281,5.039,3.281,8.213
			c0,2.396-0.595,4.585-1.781,6.57c-1.188,1.985-2.822,3.546-4.9,4.677c-1.115,0.594-2.336,1.063-3.662,1.406
			c-1.328,0.344-2.565,0.516-3.718,0.516v-3.175c1.613-0.39,2.777-0.933,3.491-1.628c0.714-0.696,1.07-1.639,1.07-2.826
			c0-1.243-0.557-2.338-1.669-3.285c-0.741-0.611-2.151-1.373-4.229-2.281c-2.281-1.002-3.845-1.718-4.688-2.145
			c-0.843-0.427-1.654-0.928-2.435-1.504c-3.486-2.486-5.229-5.799-5.229-9.938c0-2.115,0.437-4.068,1.309-5.859
			s2.089-3.234,3.646-4.33C310.977,236.511,313.668,235.667,316.88,235.499z M315.442,271.828v3.175
			c-1.523,0-3.205-0.438-5.044-1.312c-0.688-0.315-1.162-0.521-1.423-0.613c-0.26-0.092-0.512-0.141-0.752-0.141
			c-0.372,0-0.649,0.062-0.836,0.181c-0.187,0.12-0.483,0.42-0.893,0.899c-0.334,0.404-0.697,0.607-1.087,0.607
			c-1.04,0-1.561-0.793-1.561-2.38v-10.136c0-0.52,0.147-0.959,0.445-1.319c0.297-0.361,0.668-0.552,1.114-0.57
			c0.409-0.019,0.729,0.099,0.962,0.349c0.232,0.25,0.432,0.69,0.6,1.322c0.426,1.596,1.044,3.09,1.854,4.481
			c0.808,1.394,1.751,2.569,2.829,3.535C312.748,270.909,314.012,271.55,315.442,271.828z M319.067,238.698v-3.06
			c1.112,0.074,2.079,0.219,2.896,0.432c0.817,0.215,1.978,0.638,3.479,1.271c0.37,0.148,0.677,0.224,0.919,0.224
			c0.352,0,0.61-0.121,0.778-0.361l0.612-0.809c0.297-0.408,0.659-0.611,1.085-0.611c0.502,0,0.868,0.181,1.1,0.541
			c0.232,0.361,0.35,0.931,0.35,1.708v9.181c0,0.543-0.153,0.986-0.46,1.332c-0.307,0.348-0.7,0.52-1.184,0.52
			c-0.371,0-0.714-0.121-1.029-0.361c-0.166-0.148-0.302-0.329-0.403-0.543s-0.2-0.571-0.292-1.073
			c-0.205-0.91-0.557-1.848-1.059-2.813c-0.5-0.965-1.086-1.828-1.754-2.59C322.77,240.176,321.09,239.184,319.067,238.698z"/>
		<path fill="#C46B45" d="M353.08,274.251h-12.4h-0.723c-0.67,0-1.188-0.125-1.549-0.376c-0.363-0.251-0.544-0.607-0.544-1.071
			c0-0.762,0.372-1.264,1.114-1.504c0.613-0.205,0.972-0.33,1.073-0.376c0.103-0.046,0.209-0.152,0.32-0.32
			c0.223-0.297,0.335-0.771,0.335-1.42v-27.869c0-0.648-0.112-1.121-0.335-1.418c-0.111-0.168-0.219-0.273-0.32-0.32
			c-0.103-0.047-0.46-0.172-1.073-0.375c-0.742-0.242-1.114-0.742-1.114-1.504c0-0.463,0.181-0.819,0.544-1.07
			c0.361-0.25,0.879-0.375,1.549-0.375h0.723h12.4h0.723c0.67,0,1.187,0.125,1.549,0.375c0.362,0.251,0.545,0.607,0.545,1.07
			c0,0.762-0.372,1.262-1.115,1.504c-0.613,0.203-0.973,0.328-1.073,0.375c-0.103,0.047-0.209,0.152-0.32,0.32
			c-0.224,0.297-0.335,0.77-0.335,1.418v27.869c0,1.041,0.27,1.651,0.806,1.838l0.859,0.278c0.702,0.224,1.054,0.724,1.054,1.504
			c0,0.966-0.654,1.447-1.968,1.447H353.08z M364.102,247.268l8.414,22c0.224,0.594,0.455,1.045,0.696,1.351
			c0.241,0.307,0.558,0.543,0.948,0.71c0.389,0.186,0.641,0.324,0.752,0.418c0.26,0.26,0.39,0.604,0.39,1.029
			c0,0.983-0.7,1.477-2.099,1.477h-14c-0.668,0-1.184-0.139-1.546-0.418c-0.362-0.277-0.543-0.677-0.543-1.197
			c0-0.594,0.345-1.057,1.036-1.392c0.43-0.204,0.719-0.376,0.867-0.515c0.149-0.14,0.233-0.33,0.253-0.57
			c0-0.131-0.075-0.428-0.225-0.891l-3.585-10.636c-0.336-0.983-0.504-1.819-0.504-2.506c0-0.649,0.271-1.354,0.811-2.115
			l6.678-9.383c0.633-0.871,0.95-1.78,0.95-2.728c0-0.521-0.141-1.004-0.421-1.448c-0.279-0.445-0.652-0.761-1.119-0.945
			l-1.009-0.418c-0.635-0.26-0.951-0.696-0.951-1.309c0-0.501,0.193-0.91,0.585-1.226c0.261-0.205,0.688-0.307,1.282-0.307h9.908
			c0.652,0,1.159,0.145,1.522,0.432c0.362,0.287,0.545,0.69,0.545,1.211c0,0.777-0.427,1.334-1.281,1.668l-1.477,0.584
			c-0.612,0.224-1.394,0.725-2.34,1.502c-0.706,0.595-1.578,1.586-2.618,2.978L364.102,247.268z"/>
	</g>
</g>
</svg>
