<?xml version="1.0" encoding="utf-8"?>
<!-- Generator: Adobe Illustrator 12.0.1, SVG Export Plug-In . SVG Version: 6.00 Build 51448)  -->
<!DOCTYPE svg PUBLIC "-//W3C//DTD SVG 1.1//EN" "http://www.w3.org/Graphics/SVG/1.1/DTD/svg11.dtd" [
	<!ENTITY ns_svg "http://www.w3.org/2000/svg">
	<!ENTITY ns_xlink "http://www.w3.org/1999/xlink">
]>
<svg  version="1.1" id="Layer_1" xmlns="&ns_svg;" xmlns:xlink="&ns_xlink;" width="198" height="234" viewBox="0 0 198 234"
	 overflow="visible" enable-background="new 0 0 198 234" xml:space="preserve">
<g>
	<rect fill-rule="evenodd" clip-rule="evenodd" fill="#FFFFFF" width="198" height="234"/>
	<path fill-rule="evenodd" clip-rule="evenodd" fill="#E5E0CB" d="M0,0h198v156H0V0z M0,0"/>
	<rect y="156" fill-rule="evenodd" clip-rule="evenodd" fill="#ABA238" width="198" height="78"/>
	<g>
		<path fill="#414142" d="M21.498,44.007c-3.915,0-7.395-2.03-9.498-5.075l5.002-5.002c0.544,1.958,2.356,3.407,4.495,3.407
			c2.538,0,4.64-2.103,4.64-4.64c0-1.885-1.16-3.552-2.755-4.277l2.61-2.574L23.31,23.2v8.954l-4.06,3.987l-4.567-4.604l0.87-1.087
			v-6.018l8.954-8.99l5.981,5.945l-2.03,1.958c2.755,2.102,4.567,5.583,4.531,9.135C32.953,38.824,27.805,44.007,21.498,44.007z
			 M22.658,22.692L22.15,23.2v7.648l0.508,0.471V22.692z"/>
		<path fill="#414142" d="M46.981,24.976v9.461l0.943,0.942l-3.045,2.973l-2.972-2.973l-3.045,2.973l-3.842-3.879l0.797-0.797
			v-5.329l8.229-8.193l3.915,3.879L46.981,24.976z M41.833,23.961l-0.797,0.87v9.643l0.797-0.797V23.961z"/>
		<path fill="#414142" d="M56.623,26.716l-0.87-0.979v3.589l3.625-3.734v7.25l-5.51,5.546l-3.625-3.697l2.973-3.045l1.051,1.196
			v-3.697l-3.698,3.661v-7.069l5.546-5.583l3.552,3.589L56.623,26.716z"/>
		<path fill="#414142" d="M67.969,38.353l-5.945-6.018l0.797-0.797v-9.933h-0.797v-1.377h0.797V19.14l-0.797-0.798l3.009-3.045
			l3.879,3.879l-0.87,0.87v0.181h1.994v1.377h-1.994l-0.073,10.621l3.082,3.045L67.969,38.353z"/>
		<path fill="#414142" d="M85.042,24.976v9.461l0.943,0.942l-3.045,2.973l-2.972-2.973l-3.045,2.973l-3.842-3.879l0.797-0.797
			v-5.329l8.229-8.193l3.915,3.879L85.042,24.976z M79.895,23.961l-0.797,0.87v9.643l0.797-0.797V23.961z"/>
		<path fill="#414142" d="M97.875,27.115l-2.972-3.045l-0.943,0.943v9.425l0.943,0.942l-3.045,2.973l-3.842-3.879l0.797-0.797
			v-9.679L88.015,23.2l3.009-2.973l3.009,2.973l2.973-2.973l3.915,3.842L97.875,27.115z"/>
		<path fill="#414142" d="M112.991,38.28l-2.973-2.973l-3.045,2.973l-3.843-3.879l0.798-0.798v-9.679l-0.798-0.833l3.009-3.009
			l3.807,3.842v-4.857l-0.798-0.797l2.973-3.009l3.915,3.879l-0.942,0.942v14.283l0.942,0.942L112.991,38.28z M109.946,24.07
			l-0.87,0.834v9.606l0.87-0.907V24.07z"/>
	</g>
	<g>
		<path d="M20.91,169.906v7.047l0.702,0.702l-2.268,2.214l-2.214-2.214l-2.268,2.214L12,176.98l0.594-0.595v-3.969l6.129-6.102
			l2.916,2.889L20.91,169.906z M17.076,169.15l-0.594,0.647v7.183l0.594-0.595V169.15z"/>
		<path d="M33.275,179.842l-2.214-2.214l-2.268,2.214l-2.862-2.889l0.594-0.594v-10.746l-0.594-0.594l2.241-2.215l2.889,2.862
			l-0.702,0.702v10.557l0.054,0.027l0.594-0.594v-7.183l-0.594-0.62l2.214-2.241l2.916,2.916l-0.702,0.675v7.02l0.702,0.702
			L33.275,179.842z"/>
		<path d="M46.073,172.147l-1.674-1.675v4.833l1.485,1.485l1.377-1.404l0.81,0.811l-3.672,3.672l-4.428-4.482l0.594-0.594v-4.32
			l4.158-4.157l3.591,3.591L46.073,172.147z"/>
		<path d="M60.113,179.815l-2.214-2.214l-2.268,2.214l-2.862-2.89l0.594-0.594v-7.209l-0.594-0.621l2.241-2.241l2.835,2.862v-3.618
			l-0.594-0.594l2.214-2.241l2.916,2.89l-0.702,0.701v10.639l0.702,0.702L60.113,179.815z M57.845,169.231l-0.648,0.621v7.154
			l0.648-0.675V169.231z"/>
		<path d="M71.21,174.442v0.837l1.485,1.484l1.377-1.403l0.81,0.81l-3.672,3.672l-4.428-4.481l0.594-0.594v-4.401l4.158-4.131
			l3.969,3.941L71.21,174.442z M71.21,170.365v2.511l1.242-1.242L71.21,170.365z"/>
		<path d="M85.627,167.881l-0.972-0.972v1.161h1.215v1.053h-1.215v11.205l0.648,0.675l-2.241,2.214l-2.889-2.889l0.648-0.621
			v-10.584h-0.918v-1.053h0.918v-1.161l4.158-4.158l2.889,2.862L85.627,167.881z"/>
		<path d="M101.018,169.853v8.369l0.621,0.648l-4.401,4.482l-2.214-2.431l2.16-2.105v-1.134l-2.214,2.214l-2.862-2.916l0.594-0.595
			l-0.027-6.398L92,169.285l2.862-2.889l1.89,1.89l2.052-2.025l2.916,2.916L101.018,169.853z M97.184,169.123l-0.648,0.648v6.75
			l0.648-0.676V169.123z"/>
		<path d="M110.467,166.369v11.988l-1.512,1.512l-2.916-2.862l0.594-0.621v-10.772l-0.594-0.594l2.214-2.215l2.916,2.862
			L110.467,166.369z M113.355,179.869l-2.24-2.268v-8.586l-0.594-0.567l2.213-2.214l2.916,2.861l-0.701,0.702v7.155l0.701,0.702
			L113.355,179.869z"/>
		<path d="M122.969,179.869l-2.863-2.862l0.595-0.594v-7.263l-0.595-0.594l2.215-2.241l2.861,2.861l-0.675,0.729v7.047l0.675,0.702
			L122.969,179.869z M122.859,166.234l-2.213-2.188l2.24-2.214l2.241,2.16L122.859,166.234z"/>
		<path d="M132.472,183.325l-2.862-2.916l0.594-0.594v-10.72l-0.594-0.566l2.214-2.295l2.916,2.942l-0.702,0.676v10.557l0.702,0.702
			L132.472,183.325z M132.363,166.234l-2.214-2.188l2.241-2.214l2.24,2.16L132.363,166.234z"/>
		<path d="M148.698,166.801l-2.214,3.511l2.214,2.646l-0.702,0.756v3.24l0.702,0.702l-2.269,2.214l-2.268-2.268v-3.24v-1.296
			l-0.647-0.621v5.913l-1.566,1.512l-2.862-2.889l0.595-0.595v-10.881l-0.595-0.594l2.242-2.241l2.889,2.89l-0.702,0.701v2.565
			l1.403-2.781l-0.647-0.594l2.269-2.214l2.861,2.862L148.698,166.801z"/>
		<path d="M156.016,179.815l-2.916-2.862l0.594-0.621V165.56l-0.594-0.595l2.213-2.214l2.916,2.862l-0.701,0.702v10.584l0.701,0.702
			L156.016,179.815z"/>
		<path d="M174.375,179.869l-2.322-2.268v-8.316l-0.621,0.648v8.424l-1.512,1.512l-2.295-2.268v-8.316l-0.675,0.648v8.424
			l-1.539,1.512l-2.89-2.835l0.648-0.621v-7.236l-0.648-0.594l2.269-2.214l2.214,2.214l2.268-2.214l2.215,2.214l2.214-2.214
			l2.889,2.862l-0.702,0.702v7.02l0.702,0.729L174.375,179.869z"/>
	</g>
	<g>
		<path d="M19.317,201.896l-2.241-2.269v-8.451l-0.648,0.648v8.559l-1.512,1.513L12,199.034l0.594-0.621v-7.344L12,190.476
			l2.214-2.215l2.268,2.215l2.214-2.215l2.916,2.862l-0.702,0.702v7.155l0.702,0.702L19.317,201.896z"/>
		<path d="M33.411,201.896l-2.295-2.214l-2.214,2.214l-2.295-2.269v-9.639l1.647-1.674l2.268,2.241l2.241-2.241l2.187,2.187v9.882
			L33.411,201.896z M31.116,191.177l-0.675,0.729l0.027,7.316l0.702-0.701L31.116,191.177z"/>
		<path d="M48.828,191.906l-0.027,6.398l0.648,0.676l-2.916,2.889l-2.187-2.187v2.699l0.621,0.621l-2.268,2.214l-2.862-2.916
			l0.702-0.647v-9.72l-0.702-0.676l2.862-2.889l1.944,1.944l1.998-1.998l2.862,2.861L48.828,191.906z M45.021,191.879l-0.675-0.675
			v7.182l0.675,0.676V191.879z"/>
		<path d="M60.6,205.244l-2.268-2.214l0.621-0.621v-2.7l-2.187,2.188l-2.916-2.89l0.648-0.675l-0.027-6.426l-0.675-0.729
			l2.862-2.861l1.998,1.998l1.944-1.944l2.862,2.889l-0.702,0.676v9.746l0.702,0.648L60.6,205.244z M58.952,191.258v-0.054
			l-0.675,0.675v7.209l0.675-0.675V191.258z"/>
		<path d="M75.017,193.499l-2.214-2.268l-0.702,0.702v7.02l0.702,0.702l-2.268,2.214l-2.862-2.889l0.594-0.595v-7.209l-0.594-0.594
			l2.241-2.214l2.241,2.214l2.214-2.214l2.916,2.862L75.017,193.499z"/>
		<path d="M86.708,193.202l-0.648-0.729v2.674l2.7-2.781v5.4l-4.104,4.131l-2.7-2.754l2.214-2.269l0.783,0.892v-2.755l-2.754,2.728
			v-5.266l4.131-4.157l2.646,2.673L86.708,193.202z"/>
		<path d="M97.967,201.869l-4.428-4.482l0.594-0.594v-7.397h-0.594v-1.026h0.594v-0.81l-0.594-0.595l2.241-2.268l2.889,2.889
			l-0.648,0.648v0.135h1.485v1.026h-1.485l-0.054,7.91l2.295,2.269L97.967,201.869z"/>
		<path d="M111.979,201.869l-2.269-2.214l-2.213,2.214l-2.916-2.862l0.701-0.702v-7.154l-0.701-0.675l2.295-2.215l2.24,2.241v8.451
			l0.648-0.648v-8.559l1.512-1.485l2.916,2.809l-0.594,0.647v7.371l0.594,0.567L111.979,201.869z"/>
		<path d="M123.617,201.869l-4.861-4.86l0.703-0.701v-4.969l-0.703-0.729l2.242-2.241l2.295,2.268v6.021l0.324,0.351l0.323-0.351
			v-6.723l1.565-1.566l2.863,2.889l-0.595,0.621v4.429l0.675,0.701L123.617,201.869z"/>
		<path d="M144.568,201.869l-2.215-2.214l-2.295,2.214l-2.187-2.214l-2.214,2.214l-2.916-2.862l0.702-0.702v-7.02l-0.702-0.729
			l2.214-2.188l2.322,2.268v8.316l0.647-0.648v-8.424l1.512-1.512l2.269,2.268v8.316l0.702-0.648v-8.424l1.512-1.512l2.889,2.835
			l-0.621,0.621v7.236l0.621,0.594L144.568,201.869z"/>
		<path d="M158.582,201.869l-2.89-2.889l0.729-0.729l-0.541-1.025l-1.025,1.836l0.999,0.972l-1.863,1.836l-2.862-2.889l1.566-1.539
			l1.161-2.322l-1.269-3.105l-1.459-1.431l2.242-2.241l2.889,2.89l-0.918,0.918l0.162,0.485l1.377-1.565l-0.838-0.837l1.891-1.891
			l2.889,2.89l-1.729,1.728l-1.43,2.16l1.457,2.862l1.701,1.674L158.582,201.869z"/>
		<path d="M168.031,201.869l-2.916-2.862l0.701-0.702v-7.073l-0.701-0.702l2.213-2.188l2.322,2.241v8.479l0.594,0.594
			L168.031,201.869z M172.432,205.271l-2.835-2.862l0.702-0.702v-11.88l1.512-1.485l2.916,2.835l-0.648,0.648v10.638l0.648,0.594
			L172.432,205.271z"/>
		<path d="M187.066,201.06l-4.32,4.212l-3.672-3.699l0.81-0.783l1.377,1.404l2.024-2.052v0.054v-0.054v-0.919l-3.807-3.834
			l2.376-2.43l-1.485-1.512l-0.647,0.647l-0.783-0.81l2.89-2.889l4.806,4.725l-2.754,2.754l3.213,3.159L187.066,201.06z"/>
	</g>
	<g>
		<path fill="#FFFFFF" d="M56.862,223.653l-2.295-2.214l-2.214,2.214l-2.295-2.269v-9.396l1.647-1.674l2.268,2.241l2.241-2.241
			l2.187,2.187v9.64L56.862,223.653z M54.567,213.177l-0.675,0.729l0.027,7.074l0.702-0.702L54.567,213.177z"/>
		<path fill="#FFFFFF" d="M64.826,223.815l-2.862-2.89l0.594-0.594v-7.344l-0.594-0.594l2.241-2.241l2.187,2.187v8.56l0.702,0.702
			L64.826,223.815z"/>
	</g>
	<g>
		<path fill="#FFFFFF" d="M75.065,219.09v3.483h3.834v1.269h-7.56l-0.054-3.348l4.644-4.644l-2.538-2.484l-1.404,1.404l-0.81-0.757
			l3.726-3.726l4.428,4.482L75.065,219.09z"/>
		<path fill="#FFFFFF" d="M88.106,229.998l-3.672-3.699l0.81-0.81l1.377,1.431l2.025-2.024v-0.298l-4.212-4.212l4.59-4.616
			l-2.511-2.457l-1.377,1.377l-0.81-0.783l3.672-3.672l4.428,4.455l-4.914,4.94l4.914,4.914v1.27L88.106,229.998z"/>
		<path fill="#FFFFFF" d="M107.249,223.815v2.97l0.54,0.702l-2.214,2.268l-2.916-2.916l0.81-0.566v-2.457l-4.697,0.107l-1.134-0.647
			l0.594-0.595v-9.449l-0.594-0.595l2.214-2.268l2.917,2.916l-0.702,0.702v8.532h1.403v-2.943l-0.81-0.594l2.187-2.269l2.943,2.916
			l-0.54,0.702v2.188h0.972v1.296H107.249z"/>
		<path fill="#FFFFFF" d="M114.188,213.609v0.972l7.156,7.182v4.051l-4.32,4.185l-3.672-3.672l0.81-0.81l1.377,1.431l2.024-2.025
			v-3.104l-2.727-2.754l-1.484-1.485v-7.425h8.721v3.456H114.188z"/>
		<path fill="#FFFFFF" d="M133.871,223.869l-5.967-5.886l-0.756-0.756l0.701-0.702V211.8l0.055-6.102l-0.594-0.621l2.213-2.214
			l2.916,2.889l-0.701,0.675v3.43l4.428,4.374v6.155l0.594,0.621L133.871,223.869z M132.332,220.953v-9.288l-0.676-0.675
			l0.082,9.423l0.539,0.594h0.055V220.953z"/>
		<path fill="#FFFFFF" d="M145.373,226.191l0.999,0.972l-2.269,2.268l-2.861-2.916l0.594-0.539l6.129-13.203l-2.24-0.027
			l-1.539,1.539l-2.889-2.889l1.35-1.351l0.863-0.891l0.892,0.891h8.532L145.373,226.191z"/>
		<path fill="#FFFFFF" d="M164.65,223.869l-6.695-6.615l0.702-0.702v-2.105l-0.702-0.702l2.889-2.808l-2.889-2.862l0.702-0.702
			v-0.81l-0.702-0.729l2.916-2.889l6.048,6.102v2.16l0.647,0.648l-2.916,2.835l2.269,2.268v3.429l0.647,0.648L164.65,223.869z
			 M163.139,206.373l-0.647-0.647l-0.027,5.373l0.675,0.729V206.373z M163.139,214.393l-0.647-0.729v6.723l0.621,0.621l0.026-0.026
			V214.393z M163.139,220.98l-0.026,0.026l0.026,0.027V220.98z"/>
		<path fill="#FFFFFF" d="M181.634,217.309v9.854l0.54,0.648l-2.241,2.214l-2.89-2.862l0.703-0.702v-3.672l-4.429-4.428v-4.941
			l-0.594-0.594l2.89-2.862l6.723,6.643L181.634,217.309z M177.772,221.628l-0.026-8.234l-0.595-0.621v8.181l0.648,0.675H177.772z"
			/>
	</g>
	<g>
		<path fill="#FFFFFF" d="M175.937,60.07v31.06l3.094,3.094l-9.996,9.758l-9.758-9.758l-9.996,9.758l-12.614-12.733l2.619-2.617
			V71.138l27.012-26.894l12.853,12.732L175.937,60.07z M159.039,56.738l-2.619,2.856v31.653l2.619-2.617V56.738z"/>
	</g>
	<g>
		<path d="M28.001,71.869L24.6,68.521l-2.808,3.456l-4.806-3.511l-3.402,3.402h-0.972l8.316-8.316
			c-0.378-0.756-0.594-1.619-0.594-2.537c0-3.133,2.538-5.671,5.67-5.671c0.918,0,1.782,0.217,2.538,0.595l1.026-1.026v13.554
			l0.918,0.918L28.001,71.869z M25.194,66.631c-1.62-0.243-3.024-1.35-3.888-2.457l-4.32,4.293h7.668l0.54-0.54V66.631z
			 M21.738,62.393c0,0.08,0,0.188,0.027,0.297l3.942-3.942C22.737,58.612,21.738,60.961,21.738,62.393z M25.194,60.259l-3.267,3.268
			c0.459,1.35,1.728,2.402,3.267,2.511V60.259z"/>
		<path d="M35.939,71.842l-1.35-1.377l-1.377,1.377l-1.755-1.755l0.378-0.378v-7.668l3.726-3.726l1.755,1.755l-0.432,0.432v9.559
			l0.432,0.404L35.939,71.842z M34.562,60.043l-0.405,0.378v9.64l0.405-0.352V60.043z"/>
	</g>
	<g>
		<path d="M25.277,101.815l-3.321-3.349l-1.917,3.483l-3.969-3.51h5.859l0.54-0.54v-1.08c-1.107-0.378-2.106-1.08-2.862-1.971
			l-6.939,6.992h-1.809l7.965-7.884c-0.405-0.864-0.648-1.836-0.648-2.808c0-3.456,2.781-6.237,6.237-6.237
			c0.945,0,1.89,0.216,2.754,0.648l0.648-0.676v13.527l0.459,0.432L25.277,101.815z M23.063,89.179
			c-1.512,0-2.754,1.458-2.754,2.943c0,0.081,0,0.162,0.027,0.243l3.132-3.159C23.333,89.179,23.199,89.179,23.063,89.179z
			 M22.442,92.203l-1.62,1.62l0.027-0.027c0.351,0.621,0.918,1.107,1.593,1.323V92.203z M21.957,98.44H21.93l0.027,0.026V98.44z"/>
		<path d="M38.454,91.906v7.047l0.702,0.702l-2.268,2.214l-2.214-2.214l-2.268,2.214l-2.862-2.889l0.594-0.595v-3.969l6.129-6.102
			l2.916,2.889L38.454,91.906z M34.62,91.15l-0.594,0.647v7.183l0.594-0.595V91.15z"/>
	</g>
	<g>
		<path d="M66.66,71.869l-2.025-1.998c-1.485,1.242-3.375,1.971-5.481,1.971c-4.698,0-8.532-3.86-8.532-8.559
			c0-4.725,3.834-8.586,8.532-8.586c4.752,0,8.586,3.861,8.586,8.586c0,1.404-0.351,2.754-0.999,3.996l1.89,1.89l0.756-0.756
			l0.378,0.378L66.66,71.869z M56.778,58.828c-1.674,0.837-2.835,2.565-2.835,4.563c0,1.997,1.161,3.726,2.835,4.562V58.828z
			 M59.046,58.261c-0.594,0-1.188,0.108-1.728,0.324v9.612c0.54,0.216,1.134,0.324,1.728,0.324c1.188,0,2.268-0.433,3.132-1.08
			l-3.915-3.942l-0.621,0.621l-0.324-0.351l2.97-2.971l3.753,3.78c0.081-0.378,0.135-0.756,0.135-1.188
			C64.176,60.583,61.881,58.261,59.046,58.261z"/>
		<path d="M75.975,60.421v13.096l0.351,0.351l-1.35,1.35l-1.782-1.728l0.432-0.433V70.52l-1.296,1.296l-1.782-1.729l0.351-0.378
			v-7.775l3.726-3.673l1.782,1.729L75.975,60.421z M73.626,59.962l-0.378,0.378v9.721l0.378-0.352V59.962z"/>
	</g>
	<g>
		<path d="M64.976,101.869l-2.241-2.187c-1.539,1.458-3.645,2.24-5.778,2.24c-4.698,0-8.559-3.86-8.559-8.559
			c0-4.726,3.834-8.586,8.559-8.586s8.559,3.86,8.559,8.586c0,1.404-0.324,2.835-1.026,4.077l2.214,2.214l0.432-0.459l0.27,0.297
			L64.976,101.869z M55.229,90.232c-1.215,0.594-1.971,1.89-1.971,3.213v0.026c0,1.297,0.783,2.619,1.971,3.187V90.232z
			 M60.494,93.472c0-1.997-1.62-3.617-3.618-3.617c-0.378,0-0.756,0.054-1.134,0.162v3.726v3.159
			c0.378,0.107,0.756,0.188,1.107,0.188c0.837,0,1.647-0.297,2.295-0.81l-2.7-2.7l-0.432,0.432l-0.27-0.27l2.43-2.376l2.322,2.268
			V93.472z"/>
		<path d="M75.506,105.244l-2.268-2.214l0.621-0.621v-2.7l-2.187,2.188l-2.916-2.89l0.648-0.675l-0.027-6.426l-0.675-0.729
			l2.862-2.861l1.998,1.998l1.944-1.944l2.862,2.889l-0.702,0.676v9.746l0.702,0.648L75.506,105.244z M73.859,91.258v-0.054
			l-0.675,0.675v7.209l0.675-0.675V91.258z"/>
	</g>
	<g>
		<path d="M105.867,71.761l-8.99-9.045l2.079-2.079l-2.106-2.105v10.746l-2.484,2.483l-3.348-3.401l0.594-0.594v-6.372l6.615-6.562
			l3.24,3.268l-2.052,2.078l8.37,8.451l0.81-0.81l0.647,0.594L105.867,71.761z M96.283,57.964l-0.378-0.351l0.027,10.746
			l0.351,0.378V57.964z"/>
		<path d="M115.048,61.366l-1.351-1.377l-0.432,0.432v9.64l0.432,0.404l-1.377,1.377l-1.754-1.755l0.377-0.378v-9.747l-0.377-0.351
			l1.35-1.377l1.377,1.377l1.377-1.377l1.755,1.755L115.048,61.366z"/>
	</g>
	<g>
		<path d="M103.252,101.761l-8.559-8.586v5.454l-3.024,3.051l-3.348-3.401l0.594-0.594v-6.13l7.02-7.182l3.915,3.834l-1.539,1.566
			l7.885,7.775l0.836-0.81l0.595,0.621L103.252,101.761z M94.207,90.097l-0.378-0.378v8.208l0.378,0.352V90.097z M94.693,90.61
			v1.593l0.783-0.81L94.693,90.61z"/>
		<path d="M116.266,93.499l-2.214-2.268l-0.702,0.702v7.02l0.702,0.702l-2.269,2.214l-2.861-2.889l0.594-0.595v-7.209l-0.594-0.594
			l2.241-2.214l2.241,2.214l2.213-2.214l2.916,2.862L116.266,93.499z"/>
	</g>
	<g>
		<path fill="#978E00" d="M64.704,145.385l-6.24-6.24c1.056,0.384,2.112,0.576,3.168,0.576c4.992,0,9.12-4.128,9.12-9.12
			c0-4.128-2.784-7.584-6.528-8.688l-2.544,2.544l-3.216-3.216v26.256l-4.416,4.417l-5.952-6.049l1.056-1.056v-18l12.576-12.721
			l0.96,1.152c7.968,0.384,14.4,7.056,14.4,15.168C77.088,137.801,71.76,143.992,64.704,145.385z M57.504,120.088l-0.672-0.72
			v26.496l0.672,0.672V120.088z M65.136,135.784l-4.944-4.943l-1.056,1.104l-0.672-0.672l5.28-5.28l4.896,4.896l1.392-1.345
			l0.672,0.673L65.136,135.784z"/>
	</g>
	<g>
		<path d="M89.231,145.721l-7.296-7.248l0.768-0.72v-12.049l-0.768-0.768l3.12-3.168l6.624,6.624v13.536l0.672,0.672L89.231,145.721
			z M87.551,125.608l-0.72-0.768v17.088l0.72,0.72V125.608z M87.503,142.601l0.048-0.048L87.503,142.601z"/>
		<path d="M103.199,127.097l-2.4-2.448l-0.769,0.768v17.137l0.769,0.72l-2.448,2.448l-3.12-3.12l0.672-0.672v-17.328l-0.672-0.624
			l2.4-2.448l2.448,2.448l2.448-2.448l3.12,3.12L103.199,127.097z"/>
		<path d="M112.559,145.769l-4.801-4.848l0.672-0.673v-19.344h-0.672v-1.104h0.672v-1.345l-0.672-0.624l2.4-2.447l3.168,3.119
			l-0.72,0.673v0.624h1.632v1.104h-1.632l-0.048,19.92l2.496,2.448L112.559,145.769z"/>
		<path d="M124.174,127.816l-1.824-1.824v14.832l1.633,1.584l1.487-1.487l0.864,0.863l-3.984,3.984l-4.8-4.848l0.672-0.673v-14.256
			l4.464-4.464l3.889,3.888L124.174,127.816z"/>
		<path d="M139.726,143.272l-2.448,2.4l-2.4-2.4l-2.399,2.4l-3.168-3.12l0.769-0.769v-16.848l-0.769-0.769l2.399-2.399l2.496,2.496
			v18.24l0.721-0.721V123.4l1.632-1.632l3.168,3.072l-0.72,0.72v17.04L139.726,143.272z M130.078,141.784l-0.769,0.769
			L130.078,141.784z"/>
		<path d="M145.773,145.673l-3.168-3.072l0.623-0.672v-23.616l-0.623-0.672l2.399-2.4l3.168,3.12l-0.769,0.72v23.473l0.769,0.72
			L145.773,145.673z"/>
		<path d="M154.604,145.673l-3.168-3.072l0.625-0.672v-23.616l-0.625-0.672l2.4-2.4l3.168,3.12l-0.768,0.72v23.473l0.768,0.72
			L154.604,145.673z"/>
		<path d="M163.388,120.809l-3.12-3.168l2.4-2.4l3.168,3.12L163.388,120.809z M163.483,145.576l-3.12-3.168l0.672-0.624v-17.136
			l-0.672-0.672l2.4-2.4l3.168,3.12l-0.768,0.769v16.943l0.768,0.721L163.483,145.576z"/>
		<path d="M174.763,127.145l-0.96-1.008v5.279l2.928-2.928v12.769l-4.464,4.416l-3.168-3.072l2.399-2.448l1.057,1.104v-7.776
			l-2.977,2.928v-10.271l4.513-4.561l3.168,3.168L174.763,127.145z"/>
	</g>
</g>
</svg>
