<?xml version="1.0" encoding="UTF-8" standalone="no"?>
<!-- Generator: Adobe Illustrator 12.0.1, SVG Export Plug-In . SVG Version: 6.00 Build 51448)  -->

<svg
   xmlns:dc="http://purl.org/dc/elements/1.1/"
   xmlns:cc="http://creativecommons.org/ns#"
   xmlns:rdf="http://www.w3.org/1999/02/22-rdf-syntax-ns#"
   xmlns:svg="http://www.w3.org/2000/svg"
   xmlns="http://www.w3.org/2000/svg"
   xmlns:xlink="http://www.w3.org/1999/xlink"
   xmlns:sodipodi="http://sodipodi.sourceforge.net/DTD/sodipodi-0.dtd"
   xmlns:inkscape="http://www.inkscape.org/namespaces/inkscape"
   version="1.1"
   id="Layer_1"
   width="396"
   height="468"
   viewBox="0 0 396 468"
   overflow="visible"
   enable-background="new 0 0 396 468"
   xml:space="preserve"
   sodipodi:docname="AndaleMono.svg"
   inkscape:version="0.92.1 r"><metadata
     id="metadata187"><rdf:RDF><cc:Work
         rdf:about=""><dc:format>image/svg+xml</dc:format><dc:type
           rdf:resource="http://purl.org/dc/dcmitype/StillImage" /></cc:Work></rdf:RDF></metadata><defs
     id="defs185" /><sodipodi:namedview
     pagecolor="#ffffff"
     bordercolor="#666666"
     borderopacity="1"
     objecttolerance="10"
     gridtolerance="10"
     guidetolerance="10"
     inkscape:pageopacity="0"
     inkscape:pageshadow="2"
     inkscape:window-width="3200"
     inkscape:window-height="1698"
     id="namedview183"
     showgrid="false"
     inkscape:zoom="1.4263009"
     inkscape:cx="-20.240976"
     inkscape:cy="234"
     inkscape:window-x="0"
     inkscape:window-y="50"
     inkscape:window-maximized="1"
     inkscape:current-layer="text191" /><g
     id="g180"><g
       id="g12"><defs
         id="defs3"><rect
           id="XMLID_1_"
           width="396"
           height="468" /></defs><clipPath
         id="XMLID_3_"><use
           xlink:href="#XMLID_1_"
           id="use5" /></clipPath><rect
         clip-path="url(#XMLID_3_)"
         fill-rule="evenodd"
         clip-rule="evenodd"
         fill="#FFFFFF"
         width="396"
         height="468"
         id="rect8" /><path
         clip-path="url(#XMLID_3_)"
         fill-rule="evenodd"
         clip-rule="evenodd"
         fill="#E9E4D1"
         d="M0,0h396v312H0V0z M0,0"
         id="path10" /></g><rect
       y="312"
       fill-rule="evenodd"
       clip-rule="evenodd"
       fill="#A2AC46"
       width="396"
       height="156"
       id="rect14" /><g
       id="g66"><path
         d="M43.371,352.293h-2.876c-0.235-0.779-0.353-1.818-0.353-3.117c-1.646,2.412-3.884,3.618-6.717,3.618    c-1.435,0-2.7-0.511-3.794-1.53c-1.095-1.021-1.642-2.335-1.642-3.943c0-0.952,0.191-1.793,0.575-2.523    c0.383-0.729,0.946-1.346,1.688-1.846c0.742-0.502,1.645-0.896,2.709-1.188c1.063-0.291,2.325-0.492,3.785-0.604l3.247-0.26    v-0.928c0-3.314-1.546-4.973-4.639-4.973c-0.73,0-1.655,0.158-2.774,0.473c-1.12,0.316-2.082,0.69-2.885,1.123l-0.761-2.078    c2.635-1.348,5.084-2.022,7.348-2.022c4.403,0,6.605,2.332,6.605,6.995v8.312C42.889,349.485,43.049,350.982,43.371,352.293z     M39.994,346.56v-3.507c-2.61,0.235-4.401,0.455-5.372,0.658c-0.971,0.205-1.812,0.585-2.523,1.142    c-0.711,0.557-1.067,1.312-1.067,2.264c0,0.866,0.303,1.565,0.909,2.097c0.606,0.532,1.379,0.798,2.319,0.798    c1.026,0,2.047-0.306,3.062-0.919C38.336,348.48,39.227,347.636,39.994,346.56z"
         id="path40" /><path
         d="M57.563,335.464c0.643-0.891,1.512-1.608,2.607-2.152s2.248-0.816,3.46-0.816c2.251,0,4.004,0.903,5.26,2.709    c1.255,1.806,1.883,4.181,1.883,7.125c0,2.981-0.668,5.471-2.004,7.468c-1.336,1.998-3.124,2.997-5.362,2.997    c-1.2,0-2.323-0.3-3.368-0.899c-1.045-0.6-1.871-1.395-2.477-2.385v2.783h-2.895v-26.181h2.895V335.464z M57.563,338.34v8.034    c0.544,1.089,1.28,1.998,2.208,2.728c0.928,0.73,1.886,1.095,2.876,1.095c1.559,0,2.798-0.742,3.72-2.227    c0.921-1.484,1.382-3.309,1.382-5.474c0-2.227-0.439-4.032-1.317-5.418C65.554,335.693,64.33,335,62.759,335    C60.718,335,58.986,336.113,57.563,338.34z"
         id="path42" /><path
         d="M96.174,351.644c-1.683,0.767-3.532,1.15-5.548,1.15c-3.043,0-5.471-0.925-7.283-2.774    c-1.812-1.849-2.718-4.307-2.718-7.375c0-3.067,0.912-5.525,2.737-7.375c1.824-1.85,4.221-2.774,7.19-2.774    c1.942,0,3.791,0.341,5.548,1.021l-0.761,2.394c-1.757-0.606-3.34-0.909-4.75-0.909c-2.128,0-3.813,0.687-5.056,2.06    s-1.865,3.235-1.865,5.585c0,2.152,0.643,3.961,1.93,5.428c1.286,1.465,2.962,2.198,5.028,2.198c1.633,0,3.315-0.315,5.047-0.946    L96.174,351.644z"
         id="path44" /><path
         d="M122.854,352.293h-2.895v-2.783c-0.594,0.953-1.444,1.738-2.551,2.356c-1.107,0.618-2.273,0.928-3.498,0.928    c-2.214,0-3.965-0.986-5.251-2.96c-1.287-1.973-1.93-4.475-1.93-7.505c0-2.833,0.671-5.18,2.013-7.042    c1.342-1.861,3.12-2.792,5.334-2.792c2.437,0,4.397,0.989,5.882,2.969v-9.352h2.895V352.293z M119.959,346.374v-8.034    c-1.386-2.227-3.056-3.34-5.01-3.34c-1.596,0-2.857,0.709-3.785,2.125s-1.392,3.207-1.392,5.371c0,2.227,0.436,4.066,1.308,5.52    c0.872,1.454,2.069,2.181,3.59,2.181c0.729,0,1.466-0.198,2.208-0.594s1.441-0.989,2.097-1.781    C119.631,347.029,119.959,346.547,119.959,346.374z"
         id="path46" /><path
         d="M150.183,342.719h-13.267c0,2.189,0.634,3.996,1.902,5.418c1.268,1.423,2.823,2.134,4.667,2.134    c1.756,0,3.568-0.315,5.437-0.946l0.501,2.319c-1.707,0.767-3.699,1.15-5.975,1.15c-2.87,0-5.183-0.921-6.939-2.765    c-1.757-1.843-2.635-4.329-2.635-7.459c0-3.067,0.789-5.514,2.366-7.338s3.615-2.737,6.114-2.737c2.227,0,4.088,0.848,5.585,2.542    c1.497,1.695,2.245,3.952,2.245,6.772V342.719z M147.028,340.362c0-1.509-0.47-2.78-1.41-3.813    c-0.94-1.032-1.992-1.549-3.154-1.549c-1.497,0-2.737,0.495-3.72,1.484c-0.983,0.99-1.531,2.282-1.642,3.878H147.028z"
         id="path48" /><path
         d="M176.473,326.409l-0.761,2.356c-1.373-0.396-2.604-0.594-3.692-0.594c-1.039,0-1.753,0.294-2.143,0.881    c-0.39,0.588-0.584,1.772-0.584,3.554v0.353h6.494v2.505h-6.494v16.829h-2.895v-16.829h-4.861v-2.505h4.861v-0.649    c0-2.462,0.42-4.187,1.262-5.177c0.841-0.989,2.294-1.484,4.36-1.484C173.355,325.648,174.84,325.902,176.473,326.409z"
         id="path50" /><path
         d="M193.43,345.001c-1.806,0.878-2.709,1.651-2.709,2.319c0,0.359,0.207,0.662,0.622,0.909    c0.414,0.247,0.98,0.371,1.698,0.371l6.513-0.186c1.546,0,2.749,0.378,3.609,1.132c0.859,0.755,1.289,1.824,1.289,3.21    c0,2.189-0.978,3.934-2.932,5.232c-1.955,1.299-4.237,1.948-6.847,1.948c-2.14,0-3.891-0.449-5.251-1.346    c-1.361-0.896-2.041-2.057-2.041-3.479c0-1.547,1.051-2.852,3.154-3.915c-1.744-0.816-2.616-1.818-2.616-3.006    c0-1.36,1.125-2.628,3.377-3.804c-1.039-0.631-1.837-1.447-2.394-2.449s-0.835-2.06-0.835-3.173c0-1.818,0.618-3.312,1.855-4.481    c1.237-1.168,2.783-1.753,4.639-1.753c1.336,0,2.542,0.278,3.618,0.835l5.733-0.872v2.82h-3.692    c0.557,0.978,0.835,2.128,0.835,3.451c0,1.757-0.612,3.241-1.837,4.453s-2.777,1.818-4.657,1.818    C194.166,345.038,193.788,345.025,193.43,345.001z M194.673,357.692c1.905,0,3.528-0.424,4.87-1.271    c1.342-0.848,2.014-1.896,2.014-3.146c0-1.286-0.953-1.93-2.857-1.93c-0.631,0-1.72,0.037-3.266,0.111    c-0.978,0.05-1.744,0.074-2.301,0.074c-0.272,0-0.696,0.223-1.271,0.668s-1.015,0.894-1.317,1.345    c-0.303,0.451-0.455,0.919-0.455,1.401c0,0.755,0.42,1.401,1.262,1.938C192.192,357.424,193.3,357.692,194.673,357.692z     M194.562,342.793c1.063,0,1.933-0.367,2.607-1.104c0.674-0.736,1.011-1.698,1.011-2.886c0-1.249-0.328-2.227-0.983-2.932    c-0.656-0.705-1.534-1.058-2.635-1.058c-1.027,0-1.89,0.368-2.588,1.104c-0.699,0.736-1.048,1.698-1.048,2.886    c0,1.163,0.349,2.118,1.048,2.866C192.672,342.419,193.535,342.793,194.562,342.793z"
         id="path52" /><path
         d="M229.646,352.293h-2.895v-12.395c0-1.719-0.275-2.965-0.826-3.738s-1.413-1.16-2.588-1.16    c-1.77,0-3.668,1.102-5.696,3.303v13.99h-2.895v-26.181h2.895v9.686c2.078-2.202,4.268-3.303,6.568-3.303    c3.624,0,5.437,2.189,5.437,6.568V352.293z"
         id="path54" /><path
         d="M251.502,352.293h-2.895v-16.829h-5.696v-2.505h8.591V352.293z M250.092,325.648c0.544,0,1.008,0.195,1.392,0.584    c0.384,0.391,0.575,0.857,0.575,1.401c0,0.569-0.189,1.046-0.566,1.429c-0.377,0.384-0.844,0.575-1.4,0.575    c-0.508,0-0.955-0.2-1.346-0.603c-0.389-0.402-0.584-0.869-0.584-1.401s0.195-0.995,0.584-1.392    C249.137,325.847,249.584,325.648,250.092,325.648z"
         id="path56" /><path
         d="M278.182,353.276c0,2.425-0.418,4.141-1.252,5.149c-0.836,1.008-2.292,1.512-4.37,1.512c-1.336,0-2.82-0.254-4.453-0.761    l0.761-2.356c1.373,0.396,2.604,0.594,3.692,0.594c1.039,0,1.753-0.294,2.144-0.881c0.389-0.588,0.584-1.772,0.584-3.554v-17.516    h-5.696v-2.505h8.591V353.276z M276.771,325.648c0.544,0,1.008,0.195,1.392,0.584c0.384,0.391,0.575,0.857,0.575,1.401    c0,0.569-0.189,1.046-0.566,1.429c-0.377,0.384-0.844,0.575-1.4,0.575c-0.508,0-0.955-0.2-1.346-0.603    c-0.389-0.402-0.584-0.869-0.584-1.401s0.195-0.995,0.584-1.392C275.816,325.847,276.264,325.648,276.771,325.648z"
         id="path58" /><path
         d="M311.578,352.293h-3.804l-8.201-9.611l-1.893,1.633v7.979h-2.895v-26.181h2.895v15.011l9.073-8.164h3.692l-8.813,7.904    L311.578,352.293z"
         id="path60" /><path
         d="M334.955,352.293h-7.904v-23.676h-5.047v-2.505h7.941v23.676h5.01V352.293z"
         id="path62" /><path
         d="M364.566,352.293h-2.895v-12.691c0-3.067-0.569-4.602-1.707-4.602c-0.582,0-1.222,0.529-1.92,1.586    c-0.699,1.059-1.049,1.643-1.049,1.754v13.953h-2.876v-12.691c0-3.067-0.575-4.602-1.726-4.602c-0.569,0-1.203,0.529-1.902,1.586    c-0.699,1.059-1.048,1.643-1.048,1.754v13.953h-2.895v-19.334h2.783v2.913c0.544-1.026,1.19-1.847,1.938-2.458    c0.748-0.613,1.494-0.919,2.236-0.919c0.779,0,1.479,0.306,2.097,0.919c0.618,0.611,1.045,1.432,1.28,2.458    c0.544-1.026,1.193-1.847,1.948-2.458c0.755-0.613,1.497-0.919,2.227-0.919c2.338,0,3.507,2.091,3.507,6.271V352.293z"
         id="path64" /></g><g
       id="g94"><path
         d="M42.889,399.293h-2.895v-12.395c0-1.719-0.275-2.965-0.826-3.738c-0.551-0.773-1.414-1.16-2.588-1.16    c-1.769,0-3.668,1.102-5.696,3.303v13.99h-2.895v-19.334h2.895v2.839c2.078-2.202,4.268-3.303,6.568-3.303    c3.624,0,5.437,2.189,5.437,6.568V399.293z"
         id="path68" /><path
         d="M62.072,379.495c2.659,0,4.774,0.928,6.346,2.783c1.571,1.855,2.356,4.299,2.356,7.329c0,3.056-0.786,5.518-2.356,7.385    c-1.571,1.868-3.687,2.802-6.346,2.802c-2.672,0-4.791-0.931-6.355-2.792c-1.565-1.861-2.347-4.326-2.347-7.395    c0-3.043,0.785-5.488,2.356-7.338C57.297,380.42,59.413,379.495,62.072,379.495z M62.072,397.271c1.756,0,3.142-0.742,4.156-2.227    c1.014-1.484,1.521-3.284,1.521-5.399c0-2.227-0.501-4.057-1.503-5.492c-1.002-1.435-2.394-2.152-4.175-2.152    c-1.794,0-3.186,0.709-4.175,2.125c-0.99,1.416-1.484,3.256-1.484,5.52c0,2.152,0.501,3.961,1.503,5.428    C58.918,396.537,60.303,397.271,62.072,397.271z"
         id="path70" /><path
         d="M84.243,382.464c0.643-0.891,1.512-1.608,2.607-2.152s2.248-0.816,3.46-0.816c2.227,0,3.974,0.919,5.242,2.755    c1.268,1.838,1.902,4.229,1.902,7.172c0,2.969-0.665,5.439-1.995,7.412c-1.33,1.974-3.121,2.96-5.372,2.96    c-1.2,0-2.323-0.3-3.368-0.899c-1.045-0.6-1.871-1.395-2.477-2.385v10.428h-2.895v-26.979h2.895V382.464z M84.243,385.34v8.034    c0.544,1.089,1.28,1.998,2.208,2.728c0.928,0.73,1.886,1.095,2.876,1.095c1.559,0,2.798-0.729,3.72-2.189    c0.921-1.46,1.382-3.271,1.382-5.437c0-2.227-0.439-4.045-1.317-5.455c-0.878-1.41-2.103-2.115-3.674-2.115    C87.397,382,85.666,383.113,84.243,385.34z"
         id="path72" /><path
         d="M122.854,406.938h-2.895V396.51c-0.594,0.953-1.444,1.738-2.551,2.356c-1.107,0.618-2.273,0.928-3.498,0.928    c-2.214,0-3.965-0.971-5.251-2.913c-1.287-1.941-1.93-4.416-1.93-7.422c0-2.882,0.668-5.264,2.004-7.144s3.117-2.82,5.344-2.82    c2.437,0,4.397,0.989,5.882,2.969v-2.505h2.895V406.938z M119.959,393.374v-8.034c-1.386-2.227-3.056-3.34-5.01-3.34    c-1.596,0-2.857,0.724-3.785,2.171s-1.392,3.26-1.392,5.437c0,2.215,0.436,4.033,1.308,5.455c0.872,1.423,2.069,2.134,3.59,2.134    c0.729,0,1.466-0.198,2.208-0.594s1.441-0.989,2.097-1.781C119.631,394.029,119.959,393.547,119.959,393.374z"
         id="path74" /><path
         d="M149.904,380.479l-1.169,2.783c-1.274-0.557-2.375-0.835-3.303-0.835c-0.854,0-1.688,0.245-2.505,0.733    s-1.568,1.188-2.254,2.096c-0.687,0.91-1.03,1.42-1.03,1.531v12.506h-2.876v-19.334h2.876v3.915    c1.546-2.919,3.55-4.379,6.012-4.379C147.115,379.495,148.531,379.823,149.904,380.479z"
         id="path76" /><path
         d="M174.265,382.724c-1.621-0.532-3.148-0.798-4.583-0.798c-1.571,0-2.814,0.264-3.729,0.789    c-0.916,0.525-1.373,1.228-1.373,2.105c0,0.557,0.21,1.043,0.631,1.457c0.42,0.414,1.262,0.801,2.523,1.159l2.765,0.798    c1.274,0.359,2.313,0.789,3.117,1.289c0.804,0.502,1.407,1.107,1.809,1.818c0.402,0.712,0.603,1.537,0.603,2.478    c0,1.843-0.773,3.3-2.319,4.37c-1.546,1.07-3.513,1.604-5.9,1.604c-2.375,0-4.336-0.358-5.882-1.076l0.557-2.505    c1.62,0.768,3.358,1.15,5.214,1.15c1.608,0,2.916-0.3,3.924-0.9c1.008-0.6,1.512-1.395,1.512-2.384c0-0.668-0.25-1.265-0.751-1.79    s-1.679-1.073-3.535-1.643c-1.497-0.457-2.598-0.801-3.303-1.029s-1.361-0.566-1.967-1.012c-0.606-0.445-1.067-0.977-1.382-1.596    c-0.315-0.618-0.473-1.311-0.473-2.078c0-1.67,0.729-2.993,2.189-3.971c1.459-0.977,3.396-1.466,5.808-1.466    c1.559,0,3.29,0.267,5.195,0.798L174.265,382.724z"
         id="path78" /><path
         d="M203.152,398.421c-1.942,0.891-3.854,1.336-5.733,1.336c-3.451,0-5.177-1.824-5.177-5.474v-11.819h-3.711v-2.505h3.711    v-5.288h2.82v5.288h6.568v2.505h-6.568v11.059c0,1.175,0.26,2.087,0.779,2.737c0.52,0.648,1.225,0.974,2.115,0.974    c1.583,0,3.148-0.353,4.694-1.058L203.152,398.421z"
         id="path80" /><path
         d="M229.609,399.293h-2.895v-2.857c-2.078,2.215-4.268,3.321-6.568,3.321c-3.625,0-5.437-2.195-5.437-6.587v-13.211h2.895    v12.376c0,1.646,0.26,2.873,0.779,3.683c0.52,0.811,1.397,1.216,2.635,1.216c1.769,0,3.667-1.101,5.696-3.303v-13.972h2.895    V399.293z"
         id="path82" /><path
         d="M257.198,379.959l-7.329,19.334h-2.635l-7.292-19.334h3.154l5.474,15.382l5.474-15.382H257.198z"
         id="path84" /><path
         d="M285.288,379.959l-2.783,19.334h-2.208l-4.546-10.947l-4.564,10.947h-2.208l-2.728-19.334h2.876    c1.026,9.03,1.559,13.768,1.596,14.213l3.544-8.405h2.969l3.525,8.35l1.559-14.157H285.288z"
         id="path86" /><path
         d="M310.372,399.293h-3.266l-5.177-7.57l-5.362,7.57h-3.08l6.884-9.686l-6.884-9.648h3.321l5.195,7.515l5.288-7.515h3.08    l-6.847,9.537L310.372,399.293z"
         id="path88" /><path
         d="M337.237,379.959l-7.329,19.334c-1.064,2.845-2.119,4.83-3.164,5.956s-2.235,1.688-3.571,1.688    c-1.188,0-2.362-0.217-3.525-0.649l0.482-2.319c0.94,0.297,1.781,0.445,2.523,0.445c1.039,0,1.893-0.402,2.561-1.206    s1.342-2.122,2.022-3.952l-7.255-19.297h3.154l5.474,15.419l5.474-15.419H337.237z"
         id="path90" /><path
         d="M362.785,399.293h-14.862v-1.559l11.021-15.233h-10.762v-2.542h14.603v1.429l-11.021,15.363h11.021V399.293z"
         id="path92" /></g><g
       id="g102"><path
         fill="#FFFFFF"
         d="M122.238,419.611c2.771,0,4.901,1.191,6.392,3.572c1.49,2.381,2.236,5.724,2.236,10.028    c0,4.169-0.724,7.475-2.171,9.917c-1.447,2.443-3.6,3.665-6.457,3.665c-2.759,0-4.886-1.188-6.383-3.562    c-1.497-2.375-2.245-5.715-2.245-10.02c0-4.181,0.727-7.493,2.18-9.937C117.243,420.833,119.393,419.611,122.238,419.611z     M122.238,444.122c1.831,0,3.188-0.868,4.073-2.606c0.884-1.738,1.327-4.506,1.327-8.304c0-3.81-0.442-6.577-1.327-8.304    c-0.885-1.725-2.242-2.588-4.073-2.588c-1.806,0-3.154,0.885-4.045,2.653s-1.336,4.515-1.336,8.238    c0,3.772,0.442,6.534,1.327,8.284C119.068,443.247,120.419,444.122,122.238,444.122z M122.164,430.429    c0.779,0,1.438,0.269,1.976,0.808c0.538,0.537,0.807,1.196,0.807,1.976c0,0.804-0.272,1.493-0.816,2.069    c-0.544,0.574-1.2,0.862-1.967,0.862c-0.755,0-1.401-0.288-1.939-0.862c-0.538-0.576-0.807-1.266-0.807-2.069    c0-0.792,0.263-1.453,0.789-1.985C120.731,430.695,121.384,430.429,122.164,430.429z"
         id="path96" /><path
         fill="#FFFFFF"
         d="M154.171,446.293h-13.768v-2.653h5.548v-20.336l-5.232,2.616v-3.043l5.659-2.913h2.616v23.676h5.177    V446.293z"
         id="path98" /><path
         fill="#FFFFFF"
         d="M177.884,446.293h-14.398v-2.208c3.649-4.069,6.018-6.797,7.106-8.183c1.088-1.385,1.973-2.839,2.653-4.36    c0.68-1.521,1.021-3.036,1.021-4.546c0-1.459-0.442-2.609-1.327-3.451c-0.885-0.841-2.125-1.262-3.72-1.262    c-1.225,0-2.87,0.377-4.936,1.132l-0.427-2.616c1.868-0.791,3.822-1.188,5.863-1.188c2.338,0,4.221,0.658,5.65,1.977    c1.429,1.316,2.143,3.076,2.143,5.278c0,1.571-0.368,3.13-1.104,4.676c-0.736,1.546-1.679,3.03-2.83,4.453    s-3.39,3.971-6.717,7.645h11.021V446.293z"
         id="path100" /></g><g
       id="g118"><path
         fill="#FFFFFF"
         d="M199.389,432.229c1.596,0.445,2.875,1.259,3.84,2.439c0.965,1.182,1.447,2.509,1.447,3.98    c0,2.301-0.896,4.234-2.689,5.799c-1.795,1.564-3.91,2.347-6.346,2.347c-2.078,0-3.94-0.458-5.585-1.373l0.594-2.505    c1.719,0.805,3.42,1.206,5.103,1.206c1.583,0,2.935-0.491,4.054-1.476c1.119-0.982,1.679-2.248,1.679-3.794    c0-1.521-0.6-2.759-1.799-3.711c-1.201-0.952-2.79-1.429-4.769-1.429h-0.798v-2.505h0.223c1.905,0,3.476-0.448,4.713-1.345    c1.236-0.896,1.855-2.106,1.855-3.628c0-1.237-0.445-2.204-1.336-2.903c-0.891-0.699-2.116-1.049-3.674-1.049    c-1.349,0-2.857,0.365-4.527,1.095l-0.408-2.616c1.682-0.767,3.377-1.15,5.084-1.15c2.338,0,4.264,0.615,5.78,1.846    c1.516,1.231,2.273,2.812,2.273,4.741c0,1.336-0.461,2.583-1.383,3.739s-2.031,1.883-3.33,2.18V432.229z"
         id="path104" /><path
         fill="#FFFFFF"
         d="M232.951,440.244h-3.229v6.049h-3.043v-6.049h-11.393v-2.319l10.336-17.812h4.1v17.479h3.229V440.244z     M226.68,437.591v-14.473l-8.312,14.473H226.68z"
         id="path106" /><path
         fill="#FFFFFF"
         d="M247.775,430.67c0.84-0.223,1.663-0.334,2.467-0.334c2.475,0,4.429,0.758,5.863,2.273    c1.436,1.516,2.152,3.404,2.152,5.668c0,2.375-0.834,4.389-2.504,6.039c-1.67,1.652-3.705,2.478-6.105,2.478    c-2.288,0-4.205-0.384-5.752-1.15l0.613-2.579c1.682,0.705,3.42,1.058,5.213,1.058c1.596,0,2.886-0.513,3.869-1.54    c0.983-1.026,1.475-2.461,1.475-4.305c0-1.744-0.463-3.086-1.391-4.026s-2.122-1.41-3.582-1.41c-1.063,0-2.115,0.204-3.154,0.612    l-1.818-0.835v-12.506h11.969v2.653h-9.314V430.67z"
         id="path108" /><path
         fill="#FFFFFF"
         d="M273.119,432.655c1.633-1.323,3.407-1.985,5.324-1.985c2.215,0,4.061,0.709,5.539,2.125    s2.217,3.244,2.217,5.482c0,2.462-0.655,4.496-1.967,6.104c-1.311,1.608-3.061,2.412-5.25,2.412c-2.797,0-5.01-1.283-6.643-3.851    c-1.633-2.566-2.449-5.705-2.449-9.416c0-3.958,0.85-7.268,2.551-9.927s4.029-3.989,6.986-3.989c2.041,0,3.803,0.303,5.287,0.909    l-0.482,2.709c-1.719-0.631-3.29-0.946-4.713-0.946c-2.016,0-3.587,0.965-4.713,2.895    C273.682,427.107,273.119,429.6,273.119,432.655z M273.211,435.271c0,2.239,0.525,4.273,1.578,6.104    c1.051,1.831,2.375,2.746,3.971,2.746c1.348,0,2.387-0.495,3.117-1.484c0.729-0.989,1.094-2.356,1.094-4.101    c0-1.607-0.402-2.876-1.205-3.804c-0.805-0.928-1.937-1.392-3.396-1.392C276.477,433.342,274.758,433.985,273.211,435.271z"
         id="path110" /><path
         fill="#FFFFFF"
         d="M312.305,422.283l-10.373,24.01h-3.117l10.225-23.527h-12.266v-2.653h15.531V422.283z"
         id="path112" /><path
         fill="#FFFFFF"
         d="M333.789,431.932c1.781,0.52,3.163,1.404,4.146,2.653s1.475,2.709,1.475,4.379    c0,2.399-0.795,4.305-2.384,5.715c-1.59,1.41-3.548,2.115-5.872,2.115c-2.438,0-4.438-0.711-6.003-2.134    c-1.565-1.422-2.347-3.309-2.347-5.659c0-1.657,0.506-3.117,1.521-4.379c1.014-1.262,2.43-2.158,4.248-2.69    c-1.447-0.371-2.606-1.086-3.479-2.143c-0.872-1.059-1.309-2.242-1.309-3.554c0-1.683,0.668-3.206,2.004-4.573    s3.1-2.051,5.289-2.051c2.164,0,3.955,0.681,5.371,2.041c1.416,1.361,2.125,2.889,2.125,4.583c0,1.274-0.445,2.446-1.336,3.517    S335.199,431.549,333.789,431.932z M331.08,433.268c-3.391,0.99-5.084,2.852-5.084,5.585c0,1.596,0.513,2.873,1.539,3.831    c1.027,0.959,2.232,1.438,3.619,1.438c1.434,0,2.644-0.474,3.627-1.419c0.983-0.947,1.475-2.23,1.475-3.851    c0-1.225-0.34-2.322-1.02-3.294C334.555,434.588,333.17,433.824,331.08,433.268z M331.08,430.67c0.061,0,0.357-0.074,0.891-0.223    c0.531-0.148,0.986-0.33,1.363-0.547s0.727-0.492,1.049-0.826c0.32-0.334,0.58-0.727,0.779-1.178    c0.197-0.451,0.297-0.956,0.297-1.513c0-1.188-0.428-2.174-1.281-2.96c-0.854-0.785-1.887-1.178-3.098-1.178    c-1.176,0-2.184,0.402-3.025,1.206c-0.841,0.804-1.262,1.781-1.262,2.932c0,0.729,0.152,1.367,0.455,1.911    c0.303,0.545,0.68,0.983,1.132,1.317c0.451,0.334,0.971,0.594,1.559,0.779C330.525,430.577,330.906,430.67,331.08,430.67z"
         id="path114" /><path
         fill="#FFFFFF"
         d="M362.824,433.713c-1.509,1.324-3.283,1.985-5.324,1.985c-2.215,0-4.061-0.708-5.539-2.124    s-2.217-3.244-2.217-5.483c0-2.399,0.707-4.419,2.124-6.058c1.416-1.639,3.243-2.459,5.483-2.459c2.732,0,4.867,1.25,6.4,3.748    c1.534,2.499,2.301,5.672,2.301,9.519s-0.899,7.128-2.699,9.843c-1.8,2.716-4.209,4.073-7.227,4.073    c-2.029,0-3.785-0.31-5.27-0.928l0.482-2.69c1.707,0.631,3.277,0.946,4.713,0.946c2.053,0,3.695-0.995,4.926-2.987    C362.209,439.106,362.824,436.645,362.824,433.713z M362.75,431.097c0-2.351-0.477-4.413-1.428-6.188    c-0.953-1.774-2.203-2.662-3.748-2.662c-1.398,0-2.515,0.517-3.35,1.549c-0.835,1.033-1.252,2.379-1.252,4.036    c0,1.521,0.423,2.769,1.271,3.739c0.847,0.971,1.958,1.456,3.331,1.456c1.893,0,3.537-0.581,4.936-1.744L362.75,431.097z"
         id="path116" /></g><g
       id="g122"><path
         fill="#FFFFFF"
         d="M361.326,227.53h-16.953c-1.387-4.594-2.078-10.719-2.078-18.375    c-9.699,14.219-22.896,21.328-39.594,21.328c-8.459,0-15.914-3.008-22.367-9.023s-9.68-13.762-9.68-23.242    c0-5.613,1.129-10.572,3.391-14.875c2.26-4.301,5.578-7.93,9.953-10.883s9.697-5.285,15.969-7    c6.27-1.713,13.707-2.898,22.312-3.555l19.141-1.531v-5.469c0-19.541-9.115-29.312-27.344-29.312    c-4.303,0-9.754,0.93-16.352,2.789c-6.6,1.859-12.27,4.066-17.008,6.617l-4.484-12.25c15.531-7.947,29.969-11.922,43.312-11.922    c25.957,0,38.938,13.746,38.938,41.234v49C358.482,210.979,359.43,219.802,361.326,227.53z M341.42,193.733v-20.672    c-15.387,1.387-25.941,2.68-31.664,3.883c-5.725,1.203-10.684,3.445-14.875,6.727c-4.193,3.281-6.289,7.73-6.289,13.344    c0,5.105,1.785,9.225,5.359,12.359c3.572,3.137,8.129,4.703,13.672,4.703c6.051,0,12.066-1.805,18.047-5.414    C331.648,205.054,336.898,200.077,341.42,193.733z"
         id="path120" /></g><g
       id="g128"><path
         d="M52.711,147.059h-4.199l-3.809-12.061H33.399l-3.857,12.061h-4.15l11.255-34.448h4.81L52.711,147.059z M43.556,131.507    l-4.517-14.258l-4.492,14.258H43.556z"
         id="path124" /><path
         d="M79.493,147.059h-3.784c-0.31-1.025-0.464-2.393-0.464-4.102c-2.165,3.174-5.111,4.761-8.838,4.761    c-1.888,0-3.552-0.671-4.993-2.015c-1.44-1.342-2.161-3.071-2.161-5.188c0-1.253,0.252-2.359,0.757-3.32    c0.504-0.96,1.245-1.77,2.222-2.43c0.977-0.658,2.165-1.18,3.564-1.562c1.399-0.382,3.06-0.646,4.98-0.793l4.272-0.342v-1.221    c0-4.361-2.035-6.543-6.104-6.543c-0.96,0-2.177,0.207-3.65,0.623c-1.473,0.414-2.739,0.907-3.796,1.477l-1.001-2.734    c3.467-1.773,6.689-2.661,9.668-2.661c5.794,0,8.691,3.068,8.691,9.204v10.938C78.858,143.364,79.07,145.334,79.493,147.059z     M75.05,139.515V134.9c-3.435,0.31-5.791,0.598-7.068,0.867c-1.278,0.268-2.385,0.769-3.32,1.501    c-0.936,0.732-1.404,1.726-1.404,2.979c0,1.14,0.398,2.06,1.196,2.759c0.797,0.7,1.814,1.05,3.052,1.05    c1.351,0,2.693-0.403,4.028-1.208C72.869,142.041,74.041,140.931,75.05,139.515z"
         id="path126" /></g><g
       id="g134"><path
         d="M52.662,206.059h-5.005L37.55,190.409h-4.443v15.649h-4.004V171.61h9.741c3.271,0,5.855,0.794,7.751,2.38    c1.896,1.588,2.844,3.797,2.844,6.629c0,2.1-0.692,3.967-2.075,5.604c-1.384,1.635-3.288,2.746-5.713,3.332L52.662,206.059z     M33.106,186.918h5.054c2.116,0,3.833-0.574,5.151-1.721c1.318-1.148,1.978-2.592,1.978-4.334c0-3.841-2.344-5.762-7.031-5.762    h-5.151V186.918z"
         id="path130" /><path
         d="M79.249,181.303l-1.538,3.662c-1.677-0.732-3.125-1.099-4.346-1.099c-1.123,0-2.222,0.321-3.296,0.964    c-1.074,0.644-2.063,1.562-2.966,2.76c-0.903,1.195-1.355,1.867-1.355,2.014v16.455h-3.784v-25.439h3.784v5.151    c2.034-3.841,4.671-5.762,7.91-5.762C75.579,180.009,77.442,180.44,79.249,181.303z"
         id="path132" /></g><g
       id="g140"><path
         d="M126.243,147.059H108.25V112.61h17.847v3.491h-13.843v10.669h13.306v3.491h-13.306v13.306h13.989V147.059z"
         id="path136" /><path
         d="M157.615,134.461h-17.456c0,2.881,0.834,5.258,2.502,7.129c1.668,1.872,3.715,2.808,6.14,2.808    c2.311,0,4.695-0.415,7.153-1.245l0.659,3.052c-2.246,1.009-4.867,1.514-7.861,1.514c-3.776,0-6.82-1.212-9.131-3.638    c-2.312-2.425-3.467-5.696-3.467-9.814c0-4.036,1.038-7.255,3.113-9.656c2.075-2.4,4.756-3.601,8.044-3.601    c2.93,0,5.379,1.115,7.349,3.345c1.969,2.23,2.954,5.2,2.954,8.911V134.461z M153.465,131.36c0-1.985-0.619-3.657-1.855-5.017    c-1.237-1.359-2.621-2.039-4.15-2.039c-1.97,0-3.601,0.651-4.895,1.953c-1.294,1.303-2.014,3.003-2.161,5.103H153.465z"
         id="path138" /></g><g
       id="g146"><path
         d="M129.661,174.857h-10.62v31.201h-3.979v-31.201h-10.669v-3.247h25.269V174.857z"
         id="path142" /><path
         d="M157.103,204.911c-2.556,1.172-5.07,1.758-7.544,1.758c-4.541,0-6.812-2.4-6.812-7.202v-15.552h-4.883v-3.296h4.883    v-6.958h3.711v6.958h8.643v3.296h-8.643v14.551c0,1.546,0.342,2.747,1.025,3.601c0.684,0.855,1.611,1.282,2.783,1.282    c2.083,0,4.142-0.464,6.177-1.392L157.103,204.911z"
         id="path144" /></g><g
       id="g152"><path
         d="M214.244,152.747c-1.416,0.439-2.815,0.659-4.199,0.659c-3.58,0-5.9-1.953-6.957-5.859    c-0.635,0.113-1.172,0.171-1.611,0.171c-3.842,0-6.775-1.526-8.802-4.577c-2.026-3.053-3.04-7.483-3.04-13.294    s1.009-10.245,3.027-13.306c2.018-3.06,4.956-4.59,8.814-4.59c3.857,0,6.799,1.525,8.825,4.578c2.026,3.051,3.04,7.49,3.04,13.317    c0,8.464-2.117,13.965-6.348,16.504c0.602,2.376,1.749,3.564,3.441,3.564c0.944,0,1.979-0.122,3.102-0.366L214.244,152.747z     M201.477,144.202c5.078,0,7.617-4.785,7.617-14.355c0-9.587-2.539-14.38-7.617-14.38c-2.475,0-4.358,1.241-5.652,3.723    c-1.294,2.482-1.941,6.035-1.941,10.657c0,4.671,0.643,8.231,1.929,10.681C197.098,142.978,198.986,144.202,201.477,144.202z"
         id="path148" /><path
         d="M241.295,157.117h-3.809v-13.721c-0.781,1.254-1.9,2.287-3.356,3.101c-1.457,0.813-2.991,1.221-4.603,1.221    c-2.913,0-5.217-1.277-6.908-3.833c-1.693-2.555-2.539-5.811-2.539-9.766c0-3.792,0.879-6.926,2.637-9.399    s4.102-3.711,7.031-3.711c3.205,0,5.785,1.302,7.738,3.906v-3.296h3.809V157.117z M237.486,139.271v-10.571    c-1.822-2.93-4.02-4.395-6.592-4.395c-2.1,0-3.76,0.952-4.98,2.856s-1.83,4.289-1.83,7.153c0,2.914,0.573,5.307,1.721,7.178    c1.147,1.872,2.723,2.808,4.725,2.808c0.959,0,1.928-0.261,2.904-0.781s1.896-1.302,2.76-2.344    C237.055,140.133,237.486,139.498,237.486,139.271z"
         id="path150" /></g><g
       id="g158"><path
         d="M211.926,174.467l-16.382,28.101h16.089v3.491h-20.655v-2.808l16.309-28.149h-15.601v-3.491h20.24V174.467z"
         id="path154" /><path
         d="M241.051,206.059h-19.555v-2.051l14.502-20.044h-14.16v-3.345h19.213v1.88l-14.502,20.215h14.502V206.059z"
         id="path156" /></g><g
       id="g178"><path
         fill="#8D9B1B"
         d="M130.239,281.007c-2.918,2.021-6.302,3.032-10.151,3.032c-4.816,0-8.477-1.652-10.982-4.957    s-3.757-8.086-3.757-14.344c0-6.047,1.213-10.78,3.639-14.198c2.426-3.42,6.126-5.129,11.101-5.129    c1.793,0,3.568,0.229,5.326,0.686s3.173,1.063,4.245,1.819l-1.424,3.401c-2.479-1.406-5.194-2.109-8.147-2.109    c-3.428,0-5.977,1.244-7.646,3.73c-1.67,2.488-2.505,6.421-2.505,11.8c0,10.336,3.384,15.504,10.151,15.504    c2.865,0,5.801-0.879,8.807-2.637L130.239,281.007z"
         id="path160" /><path
         fill="#8D9B1B"
         d="M159.665,283.327h-4.087c-0.334-1.107-0.501-2.584-0.501-4.43c-2.338,3.428-5.52,5.142-9.545,5.142    c-2.039,0-3.836-0.726-5.392-2.175c-1.556-1.451-2.333-3.318-2.333-5.604c0-1.354,0.272-2.549,0.817-3.586    s1.345-1.912,2.399-2.623c1.055-0.713,2.338-1.275,3.85-1.688c1.512-0.414,3.305-0.699,5.379-0.857l4.614-0.369v-1.318    c0-4.711-2.197-7.066-6.592-7.066c-1.037,0-2.351,0.225-3.942,0.672c-1.591,0.449-2.958,0.98-4.1,1.596l-1.081-2.953    c3.744-1.916,7.225-2.874,10.441-2.874c6.258,0,9.387,3.313,9.387,9.94v11.812C158.979,279.337,159.208,281.464,159.665,283.327z     M154.866,275.18v-4.983c-3.709,0.334-6.253,0.646-7.633,0.936c-1.38,0.291-2.575,0.831-3.586,1.622s-1.516,1.863-1.516,3.217    c0,1.23,0.431,2.224,1.292,2.979s1.96,1.134,3.296,1.134c1.459,0,2.909-0.435,4.351-1.306    C152.51,277.909,153.776,276.709,154.866,275.18z"
         id="path162" /><path
         fill="#8D9B1B"
         d="M187.112,283.327H175.88v-33.645h-7.172v-3.56h11.285v33.645h7.119V283.327z"
         id="path164" /><path
         fill="#8D9B1B"
         d="M212.398,283.327h-4.113v-23.915h-8.096v-3.56h12.209V283.327z M210.395,245.464    c0.773,0,1.432,0.277,1.977,0.83c0.545,0.555,0.818,1.218,0.818,1.991c0,0.809-0.269,1.485-0.805,2.03s-1.199,0.817-1.99,0.817    c-0.721,0-1.358-0.286-1.912-0.856c-0.554-0.572-0.83-1.235-0.83-1.991s0.276-1.415,0.83-1.978S209.674,245.464,210.395,245.464z"
         id="path166" /><path
         fill="#8D9B1B"
         d="M232.332,259.412c0.914-1.266,2.148-2.285,3.704-3.059s3.194-1.16,4.917-1.16    c3.199,0,5.691,1.283,7.476,3.85s2.677,5.941,2.677,10.125c0,4.236-0.949,7.774-2.848,10.612c-1.898,2.84-4.439,4.259-7.621,4.259    c-1.705,0-3.3-0.427-4.785-1.278c-1.485-0.854-2.658-1.982-3.52-3.389v3.955h-4.113v-37.204h4.113V259.412z M232.332,263.499    v11.417c0.773,1.547,1.818,2.839,3.137,3.876s2.682,1.556,4.088,1.556c2.215,0,3.977-1.055,5.286-3.164s1.964-4.702,1.964-7.778    c0-3.164-0.623-5.73-1.871-7.699s-2.988-2.953-5.221-2.953C236.814,258.753,234.354,260.335,232.332,263.499z"
         id="path168" /><path
         fill="#8D9B1B"
         d="M279.95,256.591l-1.661,3.955c-1.811-0.791-3.375-1.187-4.693-1.187c-1.213,0-2.399,0.347-3.56,1.042    c-1.16,0.693-2.228,1.688-3.204,2.979c-0.975,1.293-1.463,2.018-1.463,2.176v17.771h-4.087v-27.475h4.087v5.563    c2.197-4.148,5.045-6.223,8.543-6.223C275.986,255.193,277.999,255.659,279.95,256.591z"
         id="path170" /><path
         fill="#8D9B1B"
         d="M310.352,283.327h-4.088c-0.334-1.107-0.5-2.584-0.5-4.43c-2.338,3.428-5.52,5.142-9.545,5.142    c-2.039,0-3.837-0.726-5.393-2.175c-1.556-1.451-2.334-3.318-2.334-5.604c0-1.354,0.273-2.549,0.818-3.586    s1.344-1.912,2.398-2.623c1.055-0.713,2.338-1.275,3.85-1.688c1.512-0.414,3.305-0.699,5.379-0.857l4.615-0.369v-1.318    c0-4.711-2.197-7.066-6.592-7.066c-1.037,0-2.352,0.225-3.942,0.672c-1.591,0.449-2.958,0.98-4.101,1.596l-1.08-2.953    c3.744-1.916,7.225-2.874,10.441-2.874c6.258,0,9.387,3.313,9.387,9.94v11.812C309.666,279.337,309.895,281.464,310.352,283.327z     M305.553,275.18v-4.983c-3.709,0.334-6.254,0.646-7.634,0.936c-1.38,0.291-2.575,0.831-3.586,1.622s-1.517,1.863-1.517,3.217    c0,1.23,0.432,2.224,1.293,2.979s1.959,1.134,3.295,1.134c1.459,0,2.91-0.435,4.352-1.306    C303.197,277.909,304.463,276.709,305.553,275.18z"
         id="path172" /><path
         fill="#8D9B1B"
         d="M340.066,282.088c-2.76,1.266-5.476,1.898-8.147,1.898c-4.904,0-7.356-2.593-7.356-7.778v-16.796h-5.273    v-3.56h5.273v-7.515h4.008v7.515h9.334v3.56h-9.334v15.715c0,1.67,0.369,2.966,1.107,3.89c0.738,0.922,1.74,1.384,3.006,1.384    c2.25,0,4.474-0.501,6.671-1.503L340.066,282.088z"
         id="path174" /><path
         fill="#8D9B1B"
         d="M370.758,269.722h-18.854c0,3.111,0.901,5.678,2.703,7.699s4.012,3.032,6.631,3.032    c2.496,0,5.072-0.448,7.727-1.345l0.711,3.296c-2.426,1.09-5.256,1.635-8.49,1.635c-4.078,0-7.365-1.31-9.861-3.929    s-3.744-6.152-3.744-10.6c0-4.359,1.121-7.836,3.362-10.428c2.241-2.594,5.138-3.89,8.688-3.89c3.164,0,5.809,1.204,7.936,3.612    s3.191,5.616,3.191,9.624V269.722z M366.275,266.373c0-2.145-0.668-3.95-2.004-5.419c-1.336-1.467-2.83-2.201-4.482-2.201    c-2.127,0-3.89,0.703-5.287,2.109s-2.176,3.243-2.334,5.511H366.275z"
         id="path176" /></g><g
       aria-label="Andalé Mono"
       style="font-style:normal;font-weight:normal;font-size:40.40013123px;line-height:25.25008202px;font-family:sans-serif;letter-spacing:0px;word-spacing:0px;fill:#414142;fill-opacity:1;stroke:none;stroke-width:1.01000333"
       id="text191"><path
         d="M 51.824915,63.170856 H 47.753339 L 44.060514,51.476912 H 33.1004 L 29.360231,63.170856 H 25.335999 L 36.24877,29.769731 h 4.663375 z m -8.876982,-15.079034 -4.379312,-13.82442 -4.355639,13.82442 z"
         style="font-style:normal;font-variant:normal;font-weight:normal;font-stretch:normal;font-size:48.48015976px;font-family:'Andale Mono';-inkscape-font-specification:'Andale Mono';fill:#414142;fill-opacity:1;stroke-width:1.01000333"
         id="path4668" /><path
         d="M 77.153905,63.170856 H 73.46108 V 47.357992 q 0,-3.290402 -1.065238,-4.758063 -1.041566,-1.491333 -3.290401,-1.491333 -3.385089,0 -7.26729,4.213608 V 63.170856 H 58.145327 V 38.504681 h 3.692824 v 3.621809 q 3.976888,-4.213607 8.379872,-4.213607 6.935882,0 6.935882,8.379871 z"
         style="font-style:normal;font-variant:normal;font-weight:normal;font-stretch:normal;font-size:48.48015976px;font-family:'Andale Mono';-inkscape-font-specification:'Andale Mono';fill:#414142;fill-opacity:1;stroke-width:1.01000333"
         id="path4670" /><path
         d="m 106.12838,63.170856 h -3.69283 v -3.550792 q -1.13625,1.82274 -3.266729,3.006338 -2.106803,1.183597 -4.450327,1.183597 -4.237279,0 -6.699162,-3.76384 -2.461884,-3.787513 -2.461884,-9.587141 0,-5.420878 2.556571,-8.97167 2.580243,-3.574465 6.817523,-3.574465 4.663375,0 7.504008,3.787512 V 29.769731 h 3.69283 z m -3.69283,-7.551353 V 45.369548 q -2.651258,-4.260952 -6.391426,-4.260952 -3.053682,0 -4.829079,2.722275 -1.775396,2.698603 -1.775396,6.841194 0,4.260952 1.657036,7.054242 1.680709,2.769619 4.592359,2.769619 1.396646,0 2.816963,-0.757503 1.420317,-0.757502 2.674933,-2.272507 1.25461,-1.515005 1.25461,-1.846413 z"
         style="font-style:normal;font-variant:normal;font-weight:normal;font-stretch:normal;font-size:48.48015976px;font-family:'Andale Mono';-inkscape-font-specification:'Andale Mono';fill:#414142;fill-opacity:1;stroke-width:1.01000333"
         id="path4672" /><path
         d="m 135.90769,63.170856 h -3.66915 q -0.44977,-1.491333 -0.44977,-3.976888 -3.14837,4.616031 -8.56925,4.616031 -2.74594,0 -4.85275,-1.9411 -2.08313,-1.964772 -2.08313,-5.042126 0,-1.82274 0.73383,-3.219386 0.73383,-1.396645 2.15415,-2.343523 1.42032,-0.97055 3.45611,-1.515005 2.03578,-0.568127 4.82907,-0.781174 l 4.1426,-0.331408 V 47.45268 q 0,-6.344084 -5.91799,-6.344084 -1.39665,0 -3.5508,0.615471 -2.13047,0.591799 -3.66915,1.420317 l -0.97055,-2.651259 q 5.04213,-2.580242 9.37409,-2.580242 8.42722,0 8.42722,8.924326 v 10.605035 q 0,3.219385 0.61547,5.728612 z m -4.30829,-7.314633 v -4.473999 q -4.99479,0.449767 -6.86487,0.85219 -1.84641,0.378751 -3.21939,1.443989 -1.3493,1.065238 -1.3493,2.887979 0,1.657036 1.15993,2.67493 1.15992,1.017894 2.95899,1.017894 1.96477,0 3.90587,-1.159925 1.9411,-1.183598 3.40877,-3.243058 z"
         style="font-style:normal;font-variant:normal;font-weight:normal;font-stretch:normal;font-size:48.48015976px;font-family:'Andale Mono';-inkscape-font-specification:'Andale Mono';fill:#414142;fill-opacity:1;stroke-width:1.01000333"
         id="path4674" /><path
         d="M 162.56231,63.170856 H 152.47806 V 32.965444 h -6.43877 v -3.195713 h 10.13159 v 30.205412 h 6.39143 z"
         style="font-style:normal;font-variant:normal;font-weight:normal;font-stretch:normal;font-size:48.48015976px;font-family:'Andale Mono';-inkscape-font-specification:'Andale Mono';fill:#414142;fill-opacity:1;stroke-width:1.01000333"
         id="path4676" /><path
         d="m 194.16437,50.956129 h -16.92544 q 0,4.189935 2.41453,6.91221 2.43822,2.722275 5.96534,2.722275 3.36141,0 6.93588,-1.20727 l 0.63914,2.958994 q -3.26673,1.467661 -7.62237,1.467661 -5.49189,0 -8.85331,-3.527121 -3.36142,-3.527121 -3.36142,-9.516125 0,-5.870644 3.00634,-9.350421 3.03001,-3.503449 7.81175,-3.503449 4.26095,0 7.12526,3.243057 2.8643,3.243058 2.8643,8.640263 z m -4.02423,-3.006338 q 0,-2.887979 -1.79907,-4.852751 -1.79907,-1.988444 -4.02423,-1.988444 -2.86431,0 -4.75806,1.893757 -1.87009,1.893756 -2.08314,4.947438 z m -0.0947,-19.482018 -7.38565,7.125258 h -2.65126 l 4.68705,-7.125258 z"
         style="font-style:normal;font-variant:normal;font-weight:normal;font-stretch:normal;font-size:48.48015976px;font-family:'Andale Mono';-inkscape-font-specification:'Andale Mono';fill:#414142;fill-opacity:1;stroke-width:1.01000333"
         id="path4678" /><path
         d="m 252.77613,63.170856 h -3.74017 V 34.527793 l -5.04212,13.706061 h -3.66916 l -5.04212,-13.706061 v 28.643063 h -3.74017 V 29.769731 h 5.04213 l 5.58658,15.221066 5.56291,-15.221066 h 5.04212 z"
         style="font-style:normal;font-variant:normal;font-weight:normal;font-stretch:normal;font-size:48.48015976px;font-family:'Andale Mono';-inkscape-font-specification:'Andale Mono';fill:#414142;fill-opacity:1;stroke-width:1.01000333"
         id="path4680" /><path
         d="m 271.07455,37.912883 q 5.08947,0 8.0958,3.550793 3.00634,3.550793 3.00634,9.350421 0,5.846972 -3.00634,9.421437 -3.00633,3.574465 -8.0958,3.574465 -5.11315,0 -8.11948,-3.550793 -2.98267,-3.574465 -2.98267,-9.445109 0,-5.8233 3.00634,-9.350421 3.00634,-3.550793 8.09581,-3.550793 z m 0,22.677731 q 3.36141,0 5.30251,-2.840635 1.9411,-2.840634 1.9411,-6.888538 0,-4.260952 -1.91742,-7.006898 -1.91743,-2.745947 -5.32619,-2.745947 -3.43244,0 -5.32619,2.722275 -1.89376,2.698603 -1.89376,7.03057 0,4.11892 1.91743,6.935882 1.91743,2.793291 5.30252,2.793291 z"
         style="font-style:normal;font-variant:normal;font-weight:normal;font-stretch:normal;font-size:48.48015976px;font-family:'Andale Mono';-inkscape-font-specification:'Andale Mono';fill:#414142;fill-opacity:1;stroke-width:1.01000333"
         id="path4682" /><path
         d="m 309.70718,63.170856 h -3.69282 V 47.357992 q 0,-3.290402 -1.06524,-4.758063 -1.04157,-1.491333 -3.2904,-1.491333 -3.38509,0 -7.26729,4.213608 V 63.170856 H 290.6986 V 38.504681 h 3.69283 v 3.621809 q 3.97689,-4.213607 8.37987,-4.213607 6.93588,0 6.93588,8.379871 z"
         style="font-style:normal;font-variant:normal;font-weight:normal;font-stretch:normal;font-size:48.48015976px;font-family:'Andale Mono';-inkscape-font-specification:'Andale Mono';fill:#414142;fill-opacity:1;stroke-width:1.01000333"
         id="path4684" /><path
         d="m 329.21287,37.912883 q 5.08947,0 8.0958,3.550793 3.00634,3.550793 3.00634,9.350421 0,5.846972 -3.00634,9.421437 -3.00633,3.574465 -8.0958,3.574465 -5.11315,0 -8.11948,-3.550793 -2.98267,-3.574465 -2.98267,-9.445109 0,-5.8233 3.00634,-9.350421 3.00634,-3.550793 8.09581,-3.550793 z m 0,22.677731 q 3.36141,0 5.30251,-2.840635 1.9411,-2.840634 1.9411,-6.888538 0,-4.260952 -1.91742,-7.006898 -1.91743,-2.745947 -5.32619,-2.745947 -3.43244,0 -5.32619,2.722275 -1.89376,2.698603 -1.89376,7.03057 0,4.11892 1.91743,6.935882 1.91743,2.793291 5.30252,2.793291 z"
         style="font-style:normal;font-variant:normal;font-weight:normal;font-stretch:normal;font-size:48.48015976px;font-family:'Andale Mono';-inkscape-font-specification:'Andale Mono';fill:#414142;fill-opacity:1;stroke-width:1.01000333"
         id="path4686" /></g></g></svg>